<svg width="463" height="445" viewBox="0 0 463 445" fill="none" xmlns="http://www.w3.org/2000/svg">
<path d="M240.679 182.294C242.559 176.192 244.629 170.565 246.797 164.962C249.759 157.306 252.614 149.618 255.566 141.959C255.945 140.972 255.895 140.337 255.169 139.575C250.301 134.463 245.431 129.35 240.685 124.133C233.596 116.342 226.587 108.483 221.879 98.9987C219.078 93.3587 216.887 87.508 216.631 81.0408C216.533 78.5043 216.838 75.9791 218.777 73.8871C220.973 71.5141 223.824 71.2425 226.712 71.5497C232.11 72.1222 236.841 74.2256 241.452 76.6386C248.555 80.3536 254.852 85.0158 260.511 90.4561C263.988 93.7975 267.471 97.1385 270.824 100.594C274.425 104.301 278.121 107.912 281.935 111.42C282.749 112.168 283.47 112.182 284.521 112.019C297.886 109.921 311.118 106.841 324.449 104.509C326.49 104.153 328.551 103.942 330.662 103.447C329.79 102.076 328.438 101.228 327.687 99.8739C326.713 98.1183 326.955 96.3629 328.381 94.9879C331.03 92.4337 333.678 89.8181 336.797 87.7866C339.692 85.9004 341.121 86.0349 343.407 88.325C345.972 90.8933 348.415 93.5742 350.825 96.2786C352.36 98.0019 352.85 98.1925 355.233 97.5427C358.248 96.7207 361.259 95.8075 364.309 95.2001C375.673 92.9309 386.811 89.5465 398.105 86.9365C400.092 86.4775 400.718 86.1053 401.807 87.6743C402.641 88.8775 404.525 90.5042 405.536 91.5949C406.706 92.8607 406.661 93.0454 405.092 93.974C396.691 98.9438 388.4 104.117 379.853 108.824C367.644 115.547 355.859 122.962 343.759 129.856C338.434 132.892 333.131 135.985 328.007 139.334C325.058 141.262 322.485 143.75 319.762 146.003C318.522 147.03 317.335 148.118 316.103 149.152C315.616 149.561 315.5 149.823 315.914 150.377C317.366 152.317 318.831 154.241 320.461 156.043C323.522 159.426 326.167 163.12 328.977 166.691C331.758 170.228 334.652 173.68 337.457 177.198C340.075 180.483 342.631 183.815 345.241 187.107C347.819 190.362 350.431 193.592 353.028 196.832C353.122 196.948 353.276 197.03 353.328 197.16C354.354 199.711 356.335 199.352 358.647 198.601C361.523 197.665 364.449 196.872 367.384 196.18C377.924 193.695 388.162 189.946 398.702 187.462C400.099 187.134 400.938 187.383 401.799 188.358C403.742 190.551 405.791 192.659 407.854 194.748C408.636 195.54 408.718 195.954 407.509 196.614C398.724 201.412 390.035 206.392 381.185 211.066C377.266 213.136 373.353 215.217 369.431 217.28C367.996 218.036 368.03 218.691 368.621 219.722C371.797 225.276 374.803 230.923 377.288 236.827C378.002 238.52 378.889 240.153 379.245 242.119C378.039 242.075 377.069 241.579 376.134 241.12C369.326 237.78 362.863 233.923 356.542 229.861C355.74 229.345 355.422 229.241 354.738 230.193C352.389 233.465 349.715 236.549 347.474 239.879C341.674 248.51 335.017 256.611 329.18 265.216C328.622 266.037 328.288 265.997 327.693 265.358C325.488 262.996 323.255 260.656 320.977 258.359C320.343 257.72 320.201 257.176 320.577 256.272C324.226 247.445 327.971 238.644 331.369 229.744C333.127 225.141 334.979 220.568 336.788 215.983C337.051 215.313 336.94 214.991 336.386 214.516C332.335 211.05 328.354 207.512 324.349 203.995C320.571 200.677 316.786 197.365 313.019 194.033C309.292 190.733 305.579 187.414 301.868 184.095C297.862 180.509 293.851 176.928 289.876 173.313C289.312 172.8 288.937 172.953 288.409 173.383C285.955 175.378 283.836 177.721 281.411 179.723C274.428 185.484 270.043 193.107 264.597 199.961C257.6 208.768 250.667 217.627 243.995 226.645C240.842 230.908 237.72 235.19 234.469 239.39C230.901 243.999 227.219 248.53 223.583 253.094C223.073 253.735 222.678 253.925 222.016 253.223C220.56 251.672 219.021 250.184 217.412 248.775C216.626 248.085 216.697 247.383 216.975 246.507C218.876 240.523 221.158 234.639 223.388 228.74C224.875 224.806 226.574 220.917 227.782 216.924C229.123 212.499 231.036 208.242 232.477 203.852C232.782 202.924 232.735 202.327 232.06 201.6C229.091 198.397 225.877 195.398 223.233 191.92C221.963 190.252 221.818 188.707 223.23 186.975C225.864 183.748 229.053 181.036 232.606 178.782C234.524 177.564 236.509 178.114 238.56 180.084C239.206 180.695 239.791 181.363 240.679 182.294Z" fill="#878787"/>
<g clip-path="url(#clip0)">
<path d="M153.576 444.989C238.394 444.989 307.153 376.267 307.153 291.494C307.153 206.722 238.394 138 153.576 138C68.7585 138 0 206.722 0 291.494C0 376.267 68.7585 444.989 153.576 444.989Z" fill="#B6D3FF"/>
<path d="M43.0441 361.151C40.3269 356.321 33.4143 351.947 34.051 346.015C35.1425 341.345 36.9161 336.822 37.8938 332.129C38.7806 327.857 39.7243 313.88 32.2319 320.618C25.5013 315.709 18.7366 310.755 11.9605 305.823C8.3678 302.721 2.0351 300.676 1.51212 295.369C1.60307 293.233 1.0005 291.392 0.0113693 289.744C0 290.335 0 290.915 0 291.494C0 337.584 20.3169 378.923 52.492 407.058C51.7189 397.979 51.5938 388.775 51.1049 379.616C50.4342 372.662 47.0006 366.73 43.0441 361.151Z" fill="#B6D3FF"/>
<path d="M300.092 298.937C301.627 300.983 303.549 303.448 303.651 305.801C303.833 314.118 302.685 322.686 299.206 330.277C296.022 336.049 292.793 326.993 292.111 323.97C290.213 316.3 288.598 308.55 286.722 300.88C285.938 297.665 285.096 297.449 282.402 299.085C281.288 295.437 280.105 291.801 279.093 288.108C278.468 285.813 277.183 285.222 275.091 285.79C272.295 286.551 269.975 287.358 268.588 290.722C267.349 293.71 264.609 296.04 262.494 298.619C260.948 300.494 260.368 302.437 260.459 305.062C260.584 308.494 259.709 311.971 259.254 315.425C258.845 315.437 258.435 315.448 258.037 315.459C255.764 309.982 253.99 304.255 252.262 298.574C251.227 292.722 259.402 287.813 247.498 286.301C247.35 286.665 247.203 287.029 247.055 287.381C243.837 284.29 241.927 278.597 236.902 278.813C233.571 278.097 229.137 279.552 226.419 277.165C225.294 275.336 224.18 274.597 222.031 275.677C217.779 275.472 217.972 269.461 212.526 268.029C208.513 273.609 212.435 274.518 214.448 279.392C215.891 283.381 218.029 284.688 222.304 284.722C226.545 284.756 228.284 289.301 225.942 292.983C223.009 297.653 210.616 309.198 207.001 300.449C203.829 294.187 200.645 287.926 197.473 281.665C196.7 279.767 195.927 278.04 193.994 277.177C190.538 283.199 199.406 303.812 203.954 309.005C208.172 315.016 210.628 313.903 216.744 311.584C215.403 318.277 213.902 324.345 209.843 329.652C205.739 336.084 197.598 344.481 198.758 352.537C198.997 360.946 203.351 370.446 194.926 376.116C187.536 381.775 195.825 387.559 190.106 391.479C188.935 392.297 188.196 394.275 187.878 395.865C187.093 401.752 175.121 423.455 171.267 409.717C166.128 407.604 164.639 403.24 165.059 397.968C167.06 384.389 156.123 379.116 161.103 367.969C167.674 352.878 154.85 345.515 156.623 333.572C157.09 330.277 156.828 324.675 152.326 324.902C151.28 324.879 149.95 324.198 149.256 323.357C144.583 316.641 139.422 325.732 133.612 323.504C133.1 323.345 132.339 323.436 131.884 323.732C128.632 325.823 126.722 323.948 125.119 321.3C122.402 316.789 119.582 312.334 117.161 307.653C116.41 306.21 116.683 304.107 116.751 302.312C117.217 296.574 116.899 290.335 118.457 284.824C120.276 280.642 122.118 276.381 125.881 273.472C126.813 272.756 127.541 271.313 127.745 270.097C128.257 265.938 130.679 262.37 133.885 260.086C140.195 258.802 146.436 257.211 152.701 255.734C158.249 254.473 152.201 263.086 160.921 266.313C163.024 267.211 165.037 268.325 167.117 269.268C169.016 270.12 170.824 269.927 171.438 267.632C172.29 264.45 173.95 265.018 175.849 266.279C179.93 268.972 184.399 269.154 189.014 268.711C194.153 268.359 193.551 261.586 194.335 257.7C194.847 251.155 187.73 254.757 184.035 253.962C177.259 253.018 182.67 245.701 177.861 245.223C173.814 244.678 173.086 247.269 173.109 251.325C172.472 250.234 171.881 249.621 171.745 248.916C170.63 243.155 167.038 239.235 162.967 235.565C161.785 234.496 160.944 233.246 159.227 234.36C154.008 238.292 162.626 243.848 162.57 248.655C162.308 248.746 162.058 248.825 161.796 248.916C157.874 243.985 152.349 235.371 145.629 240.939C141.957 243.803 139.319 248.655 135.556 251.257C134.067 251.791 131.895 251.95 130.701 251.155C129.007 249.473 129.076 244.985 130.77 242.951C133.657 239.258 138.865 244.553 141.184 239.405C142.992 235.86 141.479 232.883 139.285 230.553C143.208 227.417 146.959 224.11 151.007 221.27C153.861 219.27 156.748 217.645 160.819 218.633C167.629 220.292 176.838 214.463 179.305 207.577C180.158 204.725 178.305 202.395 175.349 202.464C172.995 203.168 169.994 204.145 170.949 200.179C171.29 199.259 172.051 198.498 172.677 197.702C176.281 194.225 169.311 188.294 166.981 193.077C165.071 197.327 160.171 201.327 165.355 205.85C158.147 209.691 163.638 214.156 151.735 206.225C148.767 200.907 162.797 188.919 167.129 186.532C173.007 183.248 179.669 186.873 185.274 189.191C188.787 191.021 192.198 191.1 195.825 189.839C213.493 183.316 231.558 177.987 249.931 174.135C250.761 173.976 251.568 173.965 252.376 174.055C225.737 151.556 191.243 138 153.576 138C102.642 138 57.5059 162.783 29.5602 200.929C29.7421 200.873 29.9126 200.804 30.0718 200.714C34.7105 198.089 39.8835 200.089 44.1015 198.714C44.7382 200.452 45.0679 202.952 45.8069 203.077C48.3991 203.509 51.3096 203.668 53.7199 202.816C54.8341 202.418 55.2662 199.52 55.5959 197.68C55.8232 196.464 54.2543 194.725 56.3235 194.089C61.7921 191.714 61.7808 193.589 66.7605 194.702C72.4565 194.827 72.9113 199.873 75.8332 203.929C71.5356 202.532 71.2059 205.588 70.3532 208.236C68.0225 208.452 66.0897 208.838 63.8613 206.622C57.4491 203.475 50.15 210.918 44.7268 214.02C42.9077 215.247 42.2256 217.327 43.2374 219.292C45.6932 224.031 48.2968 228.713 51.0936 233.269C52.2533 235.155 54.0155 234.905 55.1979 233.053C59.5183 226.701 64.282 212.895 73.673 221.054C76.1515 223.349 78.505 225.838 80.631 228.463C82.3023 230.508 81.8589 231.258 79.3122 232.144C77.4931 232.815 75.4239 234.769 73.5025 234.712C69.5119 233.917 67.3744 236.28 65.2939 238.985C58.8475 247.337 52.4352 255.712 45.8751 263.95C40.8499 269.325 33.6645 272.302 36.1885 281.12C36.8138 282.301 36.1885 283.245 35.5518 284.256C32.4935 281.767 36.6887 275.199 28.6165 275.154C13.5409 277.858 10.2324 281.245 10.9487 296.676C10.9259 297.835 11.9492 299.414 12.961 300.119C19.6348 304.721 26.4336 309.153 33.2211 313.584C33.8123 313.971 34.6764 314.187 35.3699 314.107C41.7594 313.425 47.6374 315.777 53.6176 317.277C57.631 318.289 61.1554 320.482 63.9068 323.902C66.8515 326.97 72.1041 327.811 75.3784 330.459C81.1654 335.572 86.725 340.947 92.3187 346.276C101.107 354.787 90.9771 361.583 92.1936 373.525C92.6256 387.695 79.6078 381.9 80.6424 392.809C80.7447 393.627 80.8925 394.672 80.506 395.297C75.9014 402.922 74.2188 412.149 67.5222 418.649C92.0685 435.273 121.686 444.989 153.565 444.989C206 444.989 252.307 418.717 280.014 378.627C280.06 378.173 280.117 377.718 280.173 377.264C280.912 372.628 282.516 371.9 285.142 370.719C299.115 347.594 307.153 320.482 307.153 291.494C307.153 289.619 307.119 287.744 307.05 285.881C300.593 287.597 294.385 291.04 300.092 298.937ZM104.643 212.372C100.266 219.747 95.3315 207.191 99.1516 203.429C101.516 199.634 101.073 195.464 100.243 191.418C98.3444 187.01 82.0295 189.078 78.1412 186.396C78.4595 185.873 78.6528 185.123 79.1189 184.873C84.9741 181.055 87.8505 181.044 94.6949 181.305C105.189 183.339 115.546 181.157 125.96 180.476C129.576 180.51 137.796 179.385 135.886 185.316C135.397 186.873 135.135 188.725 134.726 190.237C130.736 193.589 130.008 200.077 123.448 201.134C116.501 202.975 108.145 205.395 104.643 212.372Z" fill="#B6D3FF"/>
<path d="M252.455 174.044C251.648 173.953 250.84 173.965 250.01 174.124C231.626 177.976 213.572 183.305 195.904 189.828C192.277 191.089 188.866 191.009 185.353 189.18C179.76 186.862 173.097 183.237 167.208 186.521C162.876 188.907 148.847 200.895 151.814 206.213C163.718 214.145 158.226 209.679 165.434 205.838C160.239 201.316 165.15 197.316 167.06 193.066C169.391 188.282 176.36 194.214 172.756 197.691C172.131 198.486 171.369 199.248 171.028 200.168C170.073 204.134 173.086 203.157 175.428 202.452C178.384 202.384 180.226 204.702 179.384 207.566C176.917 214.452 167.708 220.281 160.898 218.622C156.828 217.633 153.94 219.258 151.086 221.258C147.039 224.099 143.276 227.406 139.365 230.542C141.559 232.883 143.071 235.849 141.263 239.394C138.944 244.541 133.737 239.246 130.849 242.939C129.155 244.973 129.087 249.462 130.781 251.144C131.975 251.939 134.146 251.768 135.635 251.246C139.399 248.644 142.025 243.792 145.709 240.928C152.428 235.36 157.965 243.973 161.876 248.905C162.137 248.814 162.387 248.735 162.649 248.644C162.694 243.826 154.076 238.28 159.306 234.349C161.023 233.235 161.864 234.485 163.047 235.553C167.117 239.223 170.698 243.144 171.824 248.905C171.96 249.609 172.552 250.223 173.188 251.314C173.165 247.257 173.893 244.666 177.941 245.212C182.738 245.689 177.338 253.007 184.114 253.95C187.809 254.757 194.926 251.144 194.415 257.689C193.63 261.575 194.233 268.347 189.094 268.7C184.478 269.143 180.01 268.972 175.928 266.268C174.018 265.007 172.37 264.438 171.517 267.62C170.903 269.916 169.095 270.109 167.197 269.256C165.116 268.313 163.104 267.2 161 266.302C152.269 263.075 158.329 254.45 152.78 255.723C146.516 257.2 140.274 258.791 133.964 260.075C130.758 262.359 128.336 265.916 127.825 270.086C127.631 271.302 126.892 272.745 125.96 273.461C122.197 276.37 120.355 280.631 118.536 284.813C116.978 290.324 117.297 296.562 116.831 302.301C116.762 304.096 116.49 306.198 117.24 307.641C119.662 312.323 122.47 316.777 125.198 321.289C126.801 323.936 128.712 325.811 131.963 323.72C132.418 323.425 133.168 323.334 133.691 323.493C139.49 325.72 144.663 316.641 149.335 323.345C150.029 324.186 151.348 324.868 152.405 324.891C156.907 324.663 157.169 330.266 156.703 333.561C154.94 345.504 167.754 352.867 161.182 367.957C156.202 379.105 167.14 384.377 165.139 397.956C164.718 403.24 166.207 407.604 171.346 409.706C175.201 423.444 187.172 401.752 187.957 395.854C188.275 394.263 189.003 392.286 190.185 391.468C195.893 387.548 187.604 381.764 195.006 376.105C203.431 370.435 199.076 360.935 198.837 352.526C197.666 344.47 205.818 336.072 209.922 329.641C213.981 324.334 215.482 318.266 216.824 311.573C210.707 313.903 208.24 315.016 204.033 308.994C199.485 303.801 190.606 283.188 194.074 277.165C195.995 278.029 196.779 279.756 197.553 281.654C200.725 287.915 203.908 294.176 207.08 300.437C210.695 309.187 223.088 297.653 226.021 292.972C228.375 289.29 226.635 284.756 222.383 284.71C218.108 284.676 215.971 283.358 214.527 279.381C212.515 274.506 208.592 273.609 212.606 268.018C218.051 269.45 217.858 275.461 222.11 275.665C224.259 274.586 225.373 275.324 226.499 277.154C229.216 279.54 233.639 278.086 236.981 278.802C242.007 278.586 243.917 284.279 247.134 287.369C247.282 287.006 247.43 286.642 247.577 286.29C259.47 287.801 251.295 292.71 252.341 298.562C254.081 304.244 255.854 309.971 258.117 315.448C258.526 315.437 258.935 315.425 259.333 315.414C259.777 311.959 260.652 308.482 260.538 305.051C260.448 302.414 261.027 300.483 262.574 298.608C264.7 296.028 267.428 293.699 268.667 290.71C270.066 287.347 272.374 286.529 275.171 285.779C277.263 285.21 278.547 285.79 279.173 288.097C280.185 291.79 281.367 295.415 282.481 299.074C285.176 297.437 286.017 297.653 286.801 300.869C288.677 308.539 290.303 316.289 292.191 323.959C292.873 326.993 296.102 336.038 299.285 330.266C302.775 322.675 303.912 314.096 303.73 305.789C303.628 303.437 301.707 300.983 300.172 298.926C294.464 291.028 300.672 287.585 307.13 285.869C305.436 241.019 284.573 201.077 252.455 174.044Z" fill="white"/>
<path d="M80.5172 395.297C80.9037 394.661 80.7559 393.627 80.6536 392.809C79.619 381.9 92.6368 387.695 92.2048 373.525C90.9996 361.583 101.118 354.787 92.3298 346.276C86.7362 340.947 81.1766 335.572 75.3896 330.459C72.1266 327.8 66.8626 326.97 63.918 323.902C61.1666 320.482 57.6535 318.277 53.6288 317.277C47.6485 315.777 41.7706 313.425 35.3811 314.107C34.6876 314.187 33.8121 313.971 33.2323 313.584C26.4448 309.153 19.646 304.721 12.9722 300.119C11.9604 299.414 10.9371 297.835 10.9599 296.676C10.2322 281.245 13.5407 277.858 28.6277 275.154C36.6999 275.188 32.5047 281.756 35.563 284.256C36.1997 283.256 36.8136 282.301 36.1997 281.12C33.6757 272.313 40.8611 269.325 45.8863 263.95C52.4578 255.7 58.87 247.325 65.3051 238.985C67.3856 236.28 69.5231 233.917 73.5137 234.712C75.4237 234.769 77.4929 232.815 79.3234 232.144C81.8587 231.247 82.3021 230.508 80.6422 228.463C78.5048 225.838 76.1627 223.36 73.6842 221.054C64.2818 212.884 59.5295 226.69 55.2091 233.053C54.0381 234.905 52.2645 235.155 51.1048 233.269C48.3193 228.713 45.7158 224.031 43.2486 219.292C42.2254 217.327 42.9076 215.236 44.738 214.02C50.1612 210.918 57.4602 203.486 63.8725 206.622C66.1009 208.838 68.0337 208.452 70.3644 208.236C71.2171 205.588 71.5468 202.532 75.8444 203.929C72.9338 199.873 72.4677 194.827 66.7717 194.702C61.7919 193.589 61.8033 191.725 56.3347 194.089C54.2768 194.725 55.8344 196.464 55.6071 197.68C55.266 199.52 54.8453 202.418 53.7311 202.816C51.3322 203.657 48.4103 203.509 45.8181 203.077C45.0791 202.952 44.7494 200.452 44.1127 198.714C39.8947 200.089 34.733 198.089 30.083 200.714C29.9238 200.804 29.7419 200.873 29.5714 200.929C11.3009 225.883 0.386417 256.541 0.0112305 289.744C1.00036 291.381 1.60293 293.233 1.51198 295.369C2.03496 300.676 8.36766 302.721 11.9604 305.823C18.7364 310.755 25.5012 315.709 32.2318 320.618C39.7242 313.88 38.7805 327.857 37.8937 332.129C36.9159 336.822 35.1423 341.345 34.0509 346.015C33.4142 351.947 40.3154 356.321 43.044 361.151C47.0005 366.73 50.4454 372.662 51.1162 379.616C51.6051 388.775 51.7188 397.979 52.5032 407.058C57.267 411.229 62.2922 415.103 67.5448 418.66C74.2299 412.149 75.9126 402.933 80.5172 395.297Z" fill="white"/>
<path d="M134.715 190.237C135.136 188.714 135.386 186.873 135.875 185.316C137.785 179.385 129.565 180.51 125.949 180.476C115.535 181.169 105.177 183.351 94.6836 181.305C87.8279 181.044 84.9628 181.055 79.1076 184.873C78.6415 185.123 78.4482 185.873 78.1299 186.396C82.0182 189.066 98.3331 187.01 100.232 191.418C101.062 195.464 101.505 199.634 99.1403 203.429C95.3316 207.191 100.266 219.758 104.632 212.372C108.133 205.407 116.49 202.975 123.437 201.134C129.997 200.077 130.724 193.589 134.715 190.237Z" fill="white"/>
<path d="M31.6748 208.702L33.3802 208.736" stroke="#E52741" stroke-width="0.5" stroke-linecap="round" stroke-linejoin="round"/>
<path d="M35.6543 208.781L204.534 212.054" stroke="#E52741" stroke-width="0.5" stroke-linecap="round" stroke-linejoin="round" stroke-dasharray="2.99 2.99"/>
<path d="M205.67 212.077L207.376 212.111L205.682 212.372" stroke="#E52741" stroke-width="0.5" stroke-linecap="round" stroke-linejoin="round"/>
<path d="M203.408 212.713L50.4907 235.996" stroke="#E52741" stroke-width="0.5" stroke-linecap="round" stroke-linejoin="round" stroke-dasharray="3.05 3.05"/>
<path d="M49.3423 236.178L47.6597 236.428" stroke="#E52741" stroke-width="0.5" stroke-linecap="round" stroke-linejoin="round"/>
<path d="M81.0176 353.697L82.1545 352.424" stroke="#E52741" stroke-width="0.5" stroke-linecap="round" stroke-linejoin="round"/>
<path d="M83.6782 350.708L205.466 214.247" stroke="#E52741" stroke-width="0.5" stroke-linecap="round" stroke-linejoin="round" stroke-dasharray="3.04 3.04"/>
<path d="M206.239 213.384L207.376 212.111L205.773 212.713" stroke="#E52741" stroke-width="0.5" stroke-linecap="round" stroke-linejoin="round"/>
<path d="M203.669 213.497L9.68652 285.813" stroke="#E52741" stroke-width="0.5" stroke-linecap="round" stroke-linejoin="round" stroke-dasharray="2.97 2.97"/>
<path d="M8.6293 286.21L7.0376 286.801" stroke="#E52741" stroke-width="0.5" stroke-linecap="round" stroke-linejoin="round"/>
<path d="M189.322 275.824L189.788 274.188" stroke="#E52741" stroke-width="0.5" stroke-linecap="round" stroke-linejoin="round"/>
<path d="M190.391 272.063L206.603 214.815" stroke="#E52741" stroke-width="0.5" stroke-linecap="round" stroke-linejoin="round" stroke-dasharray="2.91 2.91"/>
<path d="M206.91 213.759L207.376 212.111L206.319 213.452" stroke="#E52741" stroke-width="0.5" stroke-linecap="round" stroke-linejoin="round"/>
<path d="M204.92 215.224L58.8364 400.502" stroke="#E52741" stroke-width="0.5" stroke-linecap="round" stroke-linejoin="round" stroke-dasharray="2.98 2.98"/>
<path d="M58.1316 401.388L57.0742 402.729" stroke="#E52741" stroke-width="0.5" stroke-linecap="round" stroke-linejoin="round"/>
<path d="M110.828 193.668L112.499 193.987" stroke="#E52741" stroke-width="0.5" stroke-linecap="round" stroke-linejoin="round"/>
<path d="M114.773 194.418L204.557 211.577" stroke="#E52741" stroke-width="0.5" stroke-linecap="round" stroke-linejoin="round" stroke-dasharray="3.05 3.05"/>
<path d="M205.694 211.793L207.376 212.111L205.762 211.554" stroke="#E52741" stroke-width="0.5" stroke-linecap="round" stroke-linejoin="round"/>
<path d="M203.681 210.838L163.195 196.805" stroke="#E52741" stroke-width="0.5" stroke-linecap="round" stroke-linejoin="round" stroke-dasharray="2.9 2.9"/>
<path d="M162.149 196.441L160.546 195.884" stroke="#E52741" stroke-width="0.5" stroke-linecap="round" stroke-linejoin="round"/>
<path d="M266.235 288.858L265.2 287.506" stroke="#E52741" stroke-width="0.5" stroke-linecap="round" stroke-linejoin="round"/>
<path d="M263.813 285.699L209.104 214.372" stroke="#E52741" stroke-width="0.5" stroke-linecap="round" stroke-linejoin="round" stroke-dasharray="3 3"/>
<path d="M208.411 213.463L207.376 212.111L208.797 213.054" stroke="#E52741" stroke-width="0.5" stroke-linecap="round" stroke-linejoin="round"/>
<path d="M210.673 214.293L294.488 269.597" stroke="#E52741" stroke-width="0.5" stroke-linecap="round" stroke-linejoin="round" stroke-dasharray="2.98 2.98"/>
<path d="M295.431 270.222L296.852 271.154" stroke="#E52741" stroke-width="0.5" stroke-linecap="round" stroke-linejoin="round"/>
<path d="M207.376 212.111L207.603 213.804" stroke="#E52741" stroke-width="0.5" stroke-linecap="round" stroke-linejoin="round"/>
<path d="M207.922 216.054L217.972 288.029" stroke="#E52741" stroke-width="0.5" stroke-linecap="round" stroke-linejoin="round" stroke-dasharray="3 3"/>
<path d="M218.12 289.154L218.359 290.847" stroke="#E52741" stroke-width="0.5" stroke-linecap="round" stroke-linejoin="round"/>
<path d="M183.432 397.706L183.648 396.025" stroke="#E52741" stroke-width="0.5" stroke-linecap="round" stroke-linejoin="round"/>
<path d="M183.944 393.775L207.012 214.929" stroke="#E52741" stroke-width="0.5" stroke-linecap="round" stroke-linejoin="round" stroke-dasharray="2.99 2.99"/>
<path d="M207.148 213.804L207.376 212.111L209.047 211.793" stroke="#E52741" stroke-width="0.5" stroke-linecap="round" stroke-linejoin="round"/>
<path d="M211.355 211.338L262.039 201.452" stroke="#E52741" stroke-width="0.5" stroke-linecap="round" stroke-linejoin="round" stroke-dasharray="3.1 3.1"/>
<path d="M263.188 201.225L264.859 200.907" stroke="#E52741" stroke-width="0.5" stroke-linecap="round" stroke-linejoin="round"/>
<path d="M286.745 225.497L285.074 225.213" stroke="#E52741" stroke-width="0.5" stroke-linecap="round" stroke-linejoin="round"/>
<path d="M282.8 224.838L210.184 212.588" stroke="#E52741" stroke-width="0.5" stroke-linecap="round" stroke-linejoin="round" stroke-dasharray="3.04 3.04"/>
<path d="M209.059 212.395L207.376 212.111L208.899 212.872" stroke="#E52741" stroke-width="0.5" stroke-linecap="round" stroke-linejoin="round"/>
<path d="M210.855 213.849L244.11 230.474" stroke="#E52741" stroke-width="0.5" stroke-linecap="round" stroke-linejoin="round" stroke-dasharray="2.89 2.89"/>
<path d="M245.088 230.962L246.611 231.724" stroke="#E52741" stroke-width="0.5" stroke-linecap="round" stroke-linejoin="round"/>
<path d="M134.715 246.791L136.261 246.053" stroke="#E52741" stroke-width="0.5" stroke-linecap="round" stroke-linejoin="round"/>
<path d="M138.33 245.064L204.795 213.35" stroke="#E52741" stroke-width="0.5" stroke-linecap="round" stroke-linejoin="round" stroke-dasharray="3.04 3.04"/>
<path d="M205.83 212.849L207.376 212.111" stroke="#E52741" stroke-width="0.5" stroke-linecap="round" stroke-linejoin="round"/>
<path d="M206.808 212.156L207.888 210.827" stroke="#E52741" stroke-width="0.5" stroke-linecap="round" stroke-linejoin="round"/>
<path d="M209.422 208.941L227.829 186.282" stroke="#E52741" stroke-width="0.5" stroke-linecap="round" stroke-linejoin="round" stroke-dasharray="3.21 3.21"/>
<path d="M228.591 185.328L229.671 184.01" stroke="#E52741" stroke-width="0.5" stroke-linecap="round" stroke-linejoin="round"/>
<path d="M176.429 234.008L177.827 233.031" stroke="#E52741" stroke-width="0.5" stroke-linecap="round" stroke-linejoin="round"/>
<path d="M179.578 231.781L205.102 213.724" stroke="#E52741" stroke-width="0.5" stroke-linecap="round" stroke-linejoin="round" stroke-dasharray="2.85 2.85"/>
<path d="M205.978 213.099L207.376 212.111" stroke="#E52741" stroke-width="0.5" stroke-linecap="round" stroke-linejoin="round"/>
<path d="M207.376 213.599C208.173 213.599 208.819 212.953 208.819 212.156C208.819 211.359 208.173 210.713 207.376 210.713C206.578 210.713 205.932 211.359 205.932 212.156C205.932 212.953 206.578 213.599 207.376 213.599Z" fill="#E93842" stroke="#E52741" stroke-width="0.5" stroke-miterlimit="10"/>
<path d="M296.409 272.165C297.206 272.165 297.853 271.519 297.853 270.722C297.853 269.925 297.206 269.279 296.409 269.279C295.611 269.279 294.965 269.925 294.965 270.722C294.965 271.519 295.611 272.165 296.409 272.165Z" fill="#E93842" stroke="#E52741" stroke-width="0.5" stroke-miterlimit="10"/>
<path d="M265.678 289.903C266.475 289.903 267.122 289.257 267.122 288.46C267.122 287.663 266.475 287.017 265.678 287.017C264.88 287.017 264.234 287.663 264.234 288.46C264.234 289.257 264.88 289.903 265.678 289.903Z" fill="#E93842" stroke="#E52741" stroke-width="0.5" stroke-miterlimit="10"/>
<path d="M218.472 291.744C219.27 291.744 219.916 291.098 219.916 290.301C219.916 289.504 219.27 288.858 218.472 288.858C217.675 288.858 217.028 289.504 217.028 290.301C217.028 291.098 217.675 291.744 218.472 291.744Z" fill="#E93842" stroke="#E52741" stroke-width="0.5" stroke-miterlimit="10"/>
<path d="M183.432 398.445C184.23 398.445 184.876 397.799 184.876 397.002C184.876 396.205 184.23 395.559 183.432 395.559C182.635 395.559 181.988 396.205 181.988 397.002C181.988 397.799 182.635 398.445 183.432 398.445Z" fill="#E93842" stroke="#E52741" stroke-width="0.5" stroke-miterlimit="10"/>
<path d="M81.6544 354.617C82.4518 354.617 83.0983 353.971 83.0983 353.174C83.0983 352.377 82.4518 351.731 81.6544 351.731C80.8569 351.731 80.2104 352.377 80.2104 353.174C80.2104 353.971 80.8569 354.617 81.6544 354.617Z" fill="#E93842" stroke="#E52741" stroke-width="0.5" stroke-miterlimit="10"/>
<path d="M7.54937 287.824C8.34681 287.824 8.99327 287.178 8.99327 286.381C8.99327 285.584 8.34681 284.938 7.54937 284.938C6.75192 284.938 6.10547 285.584 6.10547 286.381C6.10547 287.178 6.75192 287.824 7.54937 287.824Z" fill="#E93842" stroke="#E52741" stroke-width="0.5" stroke-miterlimit="10"/>
<path d="M48.3765 237.871C49.174 237.871 49.8204 237.225 49.8204 236.428C49.8204 235.631 49.174 234.985 48.3765 234.985C47.5791 234.985 46.9326 235.631 46.9326 236.428C46.9326 237.225 47.5791 237.871 48.3765 237.871Z" fill="#E93842" stroke="#E52741" stroke-width="0.5" stroke-miterlimit="10"/>
<path d="M32.1299 210.145C32.9274 210.145 33.5738 209.499 33.5738 208.702C33.5738 207.905 32.9274 207.259 32.1299 207.259C31.3325 207.259 30.686 207.905 30.686 208.702C30.686 209.499 31.3325 210.145 32.1299 210.145Z" fill="#E93842" stroke="#E52741" stroke-width="0.5" stroke-miterlimit="10"/>
<path d="M107.918 194.612C108.715 194.612 109.361 193.965 109.361 193.168C109.361 192.371 108.715 191.725 107.918 191.725C107.12 191.725 106.474 192.371 106.474 193.168C106.474 193.965 107.12 194.612 107.918 194.612Z" fill="#E93842" stroke="#E52741" stroke-width="0.5" stroke-miterlimit="10"/>
<path d="M161.046 197.327C161.843 197.327 162.49 196.681 162.49 195.884C162.49 195.087 161.843 194.441 161.046 194.441C160.248 194.441 159.602 195.087 159.602 195.884C159.602 196.681 160.248 197.327 161.046 197.327Z" fill="#E93842" stroke="#E52741" stroke-width="0.5" stroke-miterlimit="10"/>
<path d="M135.25 248.235C136.047 248.235 136.693 247.588 136.693 246.791C136.693 245.994 136.047 245.348 135.25 245.348C134.452 245.348 133.806 245.994 133.806 246.791C133.806 247.588 134.452 248.235 135.25 248.235Z" fill="#E93842" stroke="#E52741" stroke-width="0.5" stroke-miterlimit="10"/>
<path d="M173.848 237.099C174.645 237.099 175.292 236.452 175.292 235.655C175.292 234.858 174.645 234.212 173.848 234.212C173.05 234.212 172.404 234.858 172.404 235.655C172.404 236.452 173.05 237.099 173.848 237.099Z" fill="#E93842" stroke="#E52741" stroke-width="0.5" stroke-miterlimit="10"/>
<path d="M189.594 276.677C190.392 276.677 191.038 276.031 191.038 275.234C191.038 274.437 190.392 273.79 189.594 273.79C188.797 273.79 188.15 274.437 188.15 275.234C188.15 276.031 188.797 276.677 189.594 276.677Z" fill="#E93842" stroke="#E52741" stroke-width="0.5" stroke-miterlimit="10"/>
<path d="M246.577 233.167C247.375 233.167 248.021 232.521 248.021 231.724C248.021 230.927 247.375 230.281 246.577 230.281C245.78 230.281 245.133 230.927 245.133 231.724C245.133 232.521 245.78 233.167 246.577 233.167Z" fill="#E93842" stroke="#E52741" stroke-width="0.5" stroke-miterlimit="10"/>
<path d="M57.6421 403.649C58.4396 403.649 59.086 403.003 59.086 402.206C59.086 401.409 58.4396 400.763 57.6421 400.763C56.8447 400.763 56.1982 401.409 56.1982 402.206C56.1982 403.003 56.8447 403.649 57.6421 403.649Z" fill="#E93842" stroke="#E52741" stroke-width="0.5" stroke-miterlimit="10"/>
<path d="M286.006 226.94C286.803 226.94 287.45 226.294 287.45 225.497C287.45 224.7 286.803 224.054 286.006 224.054C285.208 224.054 284.562 224.7 284.562 225.497C284.562 226.294 285.208 226.94 286.006 226.94Z" fill="#E93842" stroke="#E52741" stroke-width="0.5" stroke-miterlimit="10"/>
<path d="M264.233 202.35C265.031 202.35 265.677 201.704 265.677 200.907C265.677 200.11 265.031 199.464 264.233 199.464C263.436 199.464 262.79 200.11 262.79 200.907C262.79 201.704 263.436 202.35 264.233 202.35Z" fill="#E93842" stroke="#E52741" stroke-width="0.5" stroke-miterlimit="10"/>
<path d="M229.023 185.453C229.82 185.453 230.467 184.807 230.467 184.01C230.467 183.213 229.82 182.566 229.023 182.566C228.226 182.566 227.579 183.213 227.579 184.01C227.579 184.807 228.226 185.453 229.023 185.453Z" fill="#E93842" stroke="#E52741" stroke-width="0.5" stroke-miterlimit="10"/>
</g>
<g clip-path="url(#clip1)">
<path d="M150.033 144.063C150.033 144.063 147.101 143.035 145.381 140.671C143.99 138.76 143.405 136.994 144.792 136.537C145.956 136.152 148.336 135.308 150.318 136.238C150.695 136.415 151.056 136.655 151.394 136.974" fill="white"/>
<path d="M156.907 149.945L156.588 151.339L156.534 153.403L157.216 154.478L156.265 153.873L156.021 155L155.887 153.831L154.775 154.222L155.891 153.184L156.133 151.277L156.462 149.892L156.907 149.945Z" fill="#DC4B64"/>
<path d="M159.44 149.884L159.825 151.261L159.977 153.319L159.348 154.426L160.268 153.777L160.566 154.89L160.644 153.715L161.773 154.053L160.61 153.07L160.277 151.177L159.881 149.809L159.44 149.884Z" fill="#DC4B64"/>
<path d="M166.368 141.474C166.482 146.102 162.841 149.947 158.234 150.062C153.627 150.177 149.799 146.519 149.685 141.891C149.571 137.264 151.424 128.067 157.686 127.912C163.948 127.755 166.253 136.847 166.368 141.474Z" fill="white"/>
<path d="M156.579 129.195C156.287 129.227 154.931 127.329 156.664 126.518C158.397 125.707 158.597 127.532 158.597 127.532C158.597 127.532 158.055 125.671 159.763 126.051C160.715 126.263 160.011 127.605 160.011 127.605C160.011 127.605 160.453 126.578 161.135 127.233C161.852 127.922 161.002 128.83 160.621 128.573C158.93 127.822 157.132 128.683 156.579 129.195Z" fill="#DC4B64"/>
<path d="M159.535 135.253C159.534 136.097 160.034 136.794 160.653 136.809C161.273 136.823 161.776 136.151 161.778 135.307C161.779 134.462 161.279 133.766 160.659 133.751C160.041 133.736 159.537 134.408 159.535 135.253Z" fill="black" stroke="black" stroke-miterlimit="10" stroke-linecap="square" stroke-linejoin="round"/>
<path d="M160.347 134.088C160.345 134.088 160.343 134.088 160.341 134.088C160.141 134.093 159.984 134.317 159.991 134.59C159.997 134.859 160.161 135.074 160.357 135.074C160.36 135.074 160.362 135.074 160.364 135.074C160.564 135.069 160.72 134.844 160.714 134.572C160.708 134.303 160.544 134.088 160.347 134.088Z" fill="white" stroke="white" stroke-miterlimit="30"/>
<path d="M153.671 135.253C153.67 136.097 154.17 136.794 154.79 136.809C155.409 136.823 155.912 136.151 155.914 135.307C155.915 134.463 155.415 133.766 154.796 133.751C154.176 133.736 153.673 134.408 153.671 135.253Z" fill="black" stroke="black" stroke-miterlimit="10" stroke-linecap="square" stroke-linejoin="round"/>
<path d="M154.409 134.09C154.407 134.09 154.404 134.09 154.402 134.09C154.203 134.095 154.046 134.319 154.052 134.592C154.059 134.861 154.223 135.076 154.419 135.076C154.421 135.076 154.423 135.076 154.425 135.076C154.625 135.071 154.782 134.847 154.775 134.574C154.769 134.305 154.606 134.09 154.409 134.09Z" fill="white" stroke="white" stroke-miterlimit="30"/>
<path d="M150.319 136.238C150.695 136.415 151.057 136.655 151.394 136.974L150.319 136.238Z" fill="white"/>
<path d="M150.32 136.235C150.427 136.263 150.529 136.307 150.627 136.357C150.725 136.408 150.814 136.473 150.902 136.539C151.08 136.669 151.245 136.814 151.397 136.972L151.392 136.977C151.226 136.835 151.052 136.704 150.87 136.587C150.778 136.529 150.683 136.479 150.591 136.421C150.5 136.362 150.408 136.306 150.318 136.242L150.32 136.235Z" fill="#B2B2B2"/>
<path d="M165.967 144.063C165.967 144.063 168.899 143.035 170.619 140.671C172.01 138.76 172.595 136.994 171.208 136.537C170.043 136.152 167.664 135.308 165.681 136.238C165.305 136.415 164.943 136.655 164.606 136.974" fill="white"/>
<path d="M165.681 136.238C165.305 136.415 164.943 136.655 164.606 136.974L165.681 136.238Z" fill="white"/>
<path d="M165.683 136.242C165.593 136.306 165.501 136.363 165.41 136.421C165.318 136.479 165.223 136.529 165.131 136.587C164.949 136.704 164.775 136.835 164.609 136.977L164.604 136.972C164.755 136.814 164.92 136.668 165.098 136.539C165.186 136.473 165.276 136.408 165.374 136.357C165.472 136.307 165.573 136.263 165.681 136.235L165.683 136.242Z" fill="#B2B2B2"/>
<path d="M157.984 138.71C158.219 138.675 159.498 137.508 159.407 137.407C159.316 137.307 157.289 137.67 157.207 137.853C157.124 138.035 157.749 138.744 157.984 138.71Z" fill="#DC4B64"/>
<path d="M157.898 136.4C157.601 136.327 155.779 137.253 155.871 137.434C155.963 137.615 158.748 138.285 159.4 137.438C159.55 137.244 158.196 136.473 157.898 136.4Z" fill="#DC4B64"/>
<path d="M157.268 137.8C157.454 137.819 157.64 137.83 157.826 137.833C158.012 137.838 158.198 137.833 158.383 137.814C158.568 137.795 158.749 137.758 158.923 137.704C159.098 137.651 159.264 137.569 159.397 137.437C159.398 137.435 159.4 137.435 159.402 137.437C159.403 137.438 159.403 137.44 159.403 137.441C159.3 137.603 159.123 137.708 158.946 137.773C158.766 137.839 158.575 137.86 158.388 137.873C158.011 137.896 157.636 137.864 157.266 137.807C157.264 137.807 157.263 137.805 157.263 137.803C157.264 137.8 157.266 137.8 157.268 137.8Z" fill="#660011"/>
<path d="M154.415 138.724C154.785 138.724 155.085 138.422 155.085 138.05C155.085 137.678 154.785 137.377 154.415 137.377C154.044 137.377 153.744 137.678 153.744 138.05C153.744 138.422 154.044 138.724 154.415 138.724Z" fill="#FFBDBD"/>
<path d="M161.136 138.724C161.506 138.724 161.806 138.422 161.806 138.05C161.806 137.678 161.506 137.377 161.136 137.377C160.765 137.377 160.465 137.678 160.465 138.05C160.465 138.422 160.765 138.724 161.136 138.724Z" fill="#FFBDBD"/>
</g>
<defs>
<clipPath id="clip0">
<rect width="320" height="307" fill="white" transform="translate(0 138)"/>
</clipPath>
<clipPath id="clip1">
<rect width="28" height="29" fill="white" transform="translate(144 126)"/>
</clipPath>
</defs>
</svg>
