<svg width="1129" height="1075" viewBox="0 0 1129 1075" fill="none" xmlns="http://www.w3.org/2000/svg">
<path d="M601.568 433.581C606.039 419.068 610.964 405.685 616.12 392.358C623.166 374.147 629.956 355.862 636.978 337.645C637.88 335.299 637.759 333.788 636.034 331.976C624.454 319.817 612.872 307.654 601.584 295.246C584.723 276.717 568.052 258.023 556.854 235.465C550.192 222.051 544.979 208.135 544.372 192.753C544.138 186.72 544.863 180.714 549.475 175.738C554.697 170.094 561.48 169.448 568.348 170.179C581.188 171.541 592.439 176.543 603.407 182.283C620.301 191.119 635.279 202.208 648.739 215.147C657.009 223.095 665.293 231.041 673.269 239.259C681.834 248.076 690.625 256.665 699.696 265.01C701.632 266.788 703.345 266.823 705.847 266.433C737.634 261.444 769.105 254.118 800.813 248.573C805.669 247.725 810.57 247.223 815.591 246.045C813.516 242.786 810.3 240.769 808.515 237.547C806.197 233.372 806.775 229.196 810.166 225.926C816.466 219.851 822.765 213.63 830.182 208.798C837.068 204.312 840.467 204.631 845.904 210.078C852.004 216.187 857.816 222.563 863.547 228.996C867.2 233.095 868.364 233.548 874.031 232.002C881.203 230.047 888.364 227.875 895.62 226.431C922.648 221.034 949.138 212.984 976.001 206.776C980.728 205.684 982.217 204.799 984.807 208.531C986.79 211.393 991.273 215.262 993.676 217.856C996.46 220.867 996.353 221.306 992.621 223.514C972.638 235.335 952.918 247.64 932.589 258.835C903.552 274.825 875.521 292.463 846.741 308.859C834.075 316.079 821.462 323.436 809.276 331.403C802.263 335.989 796.142 341.905 789.665 347.265C786.717 349.707 783.894 352.294 780.962 354.754C779.803 355.725 779.529 356.349 780.514 357.668C783.967 362.281 787.45 366.859 791.327 371.144C798.607 379.19 804.899 387.976 811.584 396.471C818.198 404.882 825.08 413.094 831.753 421.461C837.98 429.274 844.057 437.199 850.265 445.029C856.399 452.771 862.611 460.452 868.788 468.158C869.011 468.435 869.378 468.629 869.501 468.94C871.941 475.008 876.654 474.153 882.152 472.366C888.993 470.14 895.951 468.254 902.934 466.61C928.002 460.697 952.352 451.781 977.422 445.873C980.745 445.093 982.74 445.686 984.788 448.003C989.409 453.22 994.283 458.233 999.189 463.203C1001.05 465.085 1001.24 466.071 998.369 467.641C977.474 479.052 956.809 490.897 935.758 502.015C926.438 506.938 917.131 511.887 907.802 516.795C904.387 518.593 904.47 520.149 905.875 522.603C913.429 535.813 920.578 549.243 926.49 563.285C928.187 567.312 930.296 571.197 931.143 575.872C928.275 575.767 925.969 574.588 923.745 573.498C907.552 565.552 892.18 556.38 877.146 546.717C875.239 545.491 874.482 545.242 872.856 547.507C867.267 555.289 860.907 562.626 855.578 570.544C841.781 591.073 825.949 610.342 812.065 630.809C810.739 632.761 809.945 632.666 808.529 631.147C803.285 625.528 797.973 619.964 792.555 614.5C791.047 612.98 790.709 611.687 791.603 609.536C800.283 588.54 809.191 567.608 817.273 546.439C821.453 535.491 825.859 524.613 830.161 513.709C830.788 512.115 830.522 511.351 829.206 510.219C819.571 501.976 810.102 493.562 800.575 485.197C791.59 477.304 782.587 469.427 773.627 461.501C764.763 453.652 755.931 445.76 747.106 437.865C737.576 429.336 728.038 420.818 718.581 412.219C717.24 410.999 716.35 411.363 715.093 412.386C709.256 417.132 704.217 422.704 698.449 427.465C681.839 441.168 671.411 459.298 658.457 475.601C641.814 496.549 625.325 517.619 609.455 539.069C601.956 549.208 594.53 559.393 586.798 569.382C578.312 580.345 569.553 591.121 560.907 601.978C559.694 603.501 558.754 603.954 557.18 602.284C553.717 598.595 550.055 595.055 546.229 591.704C544.359 590.064 544.529 588.393 545.188 586.31C549.711 572.076 555.138 558.082 560.442 544.052C563.98 534.694 568.02 525.445 570.894 515.947C574.084 505.422 578.632 495.298 582.061 484.856C582.787 482.649 582.673 481.23 581.068 479.5C574.007 471.88 566.363 464.748 560.074 456.477C557.053 452.508 556.709 448.835 560.067 444.715C566.331 437.04 573.917 430.589 582.367 425.228C586.928 422.331 591.65 423.639 596.53 428.324C598.065 429.778 599.456 431.367 601.568 433.581Z" fill="#878787"/>
<path d="M375.798 1075C583.345 1075 751.596 906.883 751.596 699.5C751.596 492.117 583.345 324 375.798 324C168.25 324 0 492.117 0 699.5C0 906.883 168.25 1075 375.798 1075Z" fill="#B6D3FF"/>
<path d="M105.315 869.887C98.6519 858.079 81.7644 847.361 83.3205 832.864C85.984 821.423 90.3409 810.366 92.7207 798.888C94.8991 788.434 97.2057 754.238 78.8721 770.737C62.4057 758.719 45.8478 746.619 29.2624 734.547C20.4846 726.947 4.96097 721.962 3.69784 708.975C3.92667 703.744 2.45302 699.235 0.0183062 695.22C0.00915308 696.647 0 698.073 0 699.5C0 812.241 49.7287 913.366 128.454 982.188C126.55 959.964 126.248 937.474 125.068 915.058C123.411 898.038 115.008 883.532 105.315 869.887Z" fill="#B6D3FF"/>
<path d="M617.732 412.166C615.764 411.946 613.769 411.974 611.746 412.349C566.777 421.778 522.586 434.811 479.347 450.752C470.468 453.834 462.121 453.642 453.535 449.17C439.842 443.508 423.54 434.637 409.152 442.667C398.562 448.502 364.219 477.842 371.487 490.847C400.621 510.255 387.175 499.316 404.813 489.933C392.109 478.866 404.108 469.08 408.777 458.681C414.488 446.984 431.522 461.48 422.717 470.004C421.188 471.943 419.321 473.809 418.488 476.068C416.145 485.771 423.513 483.384 429.261 481.656C436.501 481.482 441.014 487.171 438.936 494.158C432.895 511.005 410.369 525.254 393.701 521.202C383.743 518.779 376.686 522.748 369.693 527.641C359.78 534.583 350.59 542.667 340.998 550.341C346.353 556.057 350.05 563.328 345.639 572.007C339.955 584.61 327.213 571.651 320.147 580.677C316.001 585.653 315.836 596.637 319.973 600.734C322.893 602.673 328.202 602.271 331.845 600.972C341.044 594.616 347.478 582.744 356.476 575.739C372.915 562.121 386.461 583.183 396.045 595.256C396.676 595.046 397.308 594.835 397.939 594.625C398.058 582.854 376.97 569.273 389.756 559.651C393.967 556.926 396.008 559.99 398.9 562.605C408.85 571.587 417.628 581.171 420.364 595.265C420.703 597.003 422.149 598.494 423.696 601.164C423.641 591.232 425.435 584.894 435.32 586.229C447.064 587.4 433.847 605.298 450.414 607.612C459.439 609.569 476.866 600.762 475.603 616.767C473.681 626.269 475.155 642.851 462.587 643.692C451.293 644.781 440.355 644.342 430.369 637.747C425.71 634.665 421.655 633.284 419.559 641.058C418.049 646.665 413.628 647.149 408.996 645.055C403.898 642.759 398.974 640.025 393.83 637.83C372.475 629.928 387.285 608.847 373.702 611.947C358.371 615.569 343.103 619.465 327.671 622.611C319.827 628.199 313.905 636.906 312.651 647.094C312.166 650.076 310.372 653.597 308.093 655.362C298.876 662.487 294.372 672.895 289.933 683.138C286.116 696.61 286.903 711.865 285.759 725.913C285.604 730.294 284.935 735.443 286.757 738.973C292.67 750.424 299.562 761.326 306.216 772.346C310.134 778.831 314.811 783.422 322.765 778.3C323.882 777.587 325.721 777.349 326.985 777.742C341.181 783.193 353.831 760.978 365.254 777.395C366.938 779.453 370.187 781.117 372.759 781.181C383.761 780.623 384.402 794.324 383.258 802.39C378.937 831.593 410.296 849.619 394.223 886.532C382.031 913.805 408.804 926.7 403.898 959.927C402.873 972.841 406.507 983.514 419.083 988.682C428.52 1022.29 457.81 969.21 459.723 954.796C460.491 950.909 462.295 946.071 465.169 944.059C479.145 934.465 458.862 920.326 476.958 906.47C497.571 892.605 486.907 869.365 486.321 848.787C483.456 829.078 503.401 808.527 513.433 792.797C523.373 779.819 527.034 764.984 530.329 748.613C515.346 754.302 509.341 757.027 499.026 742.312C487.905 729.608 466.175 679.178 474.651 664.453C479.365 666.566 481.269 670.791 483.154 675.428C490.916 690.747 498.696 706.058 506.467 721.368C515.309 742.769 545.633 714.554 552.809 703.113C558.557 694.104 554.301 683.001 543.913 682.919C533.451 682.836 528.224 679.626 524.682 669.868C519.748 657.951 510.156 655.737 519.977 642.073C533.313 645.585 532.837 660.274 543.244 660.777C548.507 658.143 551.235 659.953 553.99 664.426C560.626 670.252 571.472 666.703 579.628 668.45C591.93 667.919 596.607 681.858 604.478 689.412C604.845 688.525 605.211 687.647 605.577 686.76C634.684 690.464 614.684 702.472 617.22 716.795C621.467 730.696 625.805 744.708 631.361 758.116C632.359 758.088 633.356 758.061 634.345 758.033C635.434 749.573 637.585 741.077 637.283 732.672C637.054 726.233 638.473 721.487 642.253 716.895C647.443 710.594 654.143 704.896 657.173 697.589C660.587 689.357 666.243 687.363 673.09 685.507C678.216 684.117 681.337 685.543 682.884 691.168C685.355 700.195 688.266 709.085 690.984 718.011C697.574 714.014 699.634 714.545 701.556 722.41C706.16 741.187 710.114 760.137 714.746 778.904C716.411 786.321 724.301 808.463 732.109 794.342C740.649 775.776 743.44 754.796 743.001 734.455C742.754 728.712 738.049 722.694 734.287 717.682C720.32 698.375 735.523 689.924 751.321 685.745C747.395 576.022 696.32 478.299 617.732 412.166Z" fill="white"/>
<path d="M197.02 953.434C197.953 951.888 197.606 949.346 197.349 947.333C194.814 920.646 226.658 934.822 225.605 900.178C222.648 870.975 247.426 854.348 225.925 833.523C212.241 820.481 198.64 807.329 184.48 794.827C176.48 788.324 163.611 786.294 156.417 778.776C149.689 770.398 141.076 765.021 131.246 762.56C116.619 758.902 102.221 753.131 86.588 754.814C84.8855 754.997 82.762 754.476 81.325 753.534C64.7121 742.687 48.081 731.849 31.7428 720.59C29.2623 718.88 26.7543 715.002 26.8092 712.167C25.061 674.422 33.1523 666.127 70.0484 659.533C89.8007 659.624 79.5401 675.693 87.0182 681.785C88.5651 679.324 90.0936 677.02 88.5651 674.12C82.3776 652.564 99.9606 645.274 112.272 632.123C128.344 611.947 144.033 591.46 159.794 571.038C164.893 564.425 170.11 558.654 179.876 560.593C184.553 560.73 189.624 555.938 194.082 554.301C200.297 552.115 201.386 550.295 197.304 545.283C192.086 538.863 186.338 532.79 180.27 527.165C157.277 507.182 145.634 540.966 135.054 556.505C132.179 561.023 127.85 561.645 125.022 557.036C118.203 545.887 111.832 534.436 105.809 522.839C103.311 518.029 104.986 512.925 109.443 509.935C122.706 502.353 140.573 484.162 156.27 491.844C161.716 497.277 166.449 496.335 172.151 495.795C174.238 489.32 175.062 481.848 185.569 485.268C178.439 475.354 177.313 463.007 163.382 462.696C151.19 459.989 151.218 455.407 137.836 461.206C132.793 462.76 136.61 467.032 136.06 470.004C135.227 474.504 134.184 481.601 131.456 482.561C125.58 484.628 118.441 484.253 112.107 483.192C110.313 482.89 109.489 476.772 107.933 472.528C97.6174 475.885 84.9771 470.992 73.6089 477.421C73.2153 477.641 72.7852 477.805 72.3458 477.952C27.6422 538.982 0.933498 614.005 0.0273438 695.22C2.46206 699.235 3.93571 703.744 3.70688 708.975C4.97916 721.971 20.4936 726.947 29.2714 734.547C45.8568 746.619 62.4147 758.719 78.8811 770.737C97.2147 754.238 94.9081 788.434 92.7297 798.888C90.3499 810.366 85.9839 821.423 83.3295 832.864C81.7735 847.361 98.6609 858.079 105.324 869.887C115.017 883.523 123.42 898.038 125.068 915.058C126.248 937.474 126.55 959.964 128.454 982.188C140.106 992.377 152.399 1001.86 165.259 1010.57C181.643 994.654 185.752 972.091 197.02 953.434Z" fill="white"/>
<path d="M329.63 451.785C330.655 448.072 331.286 443.563 332.476 439.74C337.135 425.226 317.044 427.97 308.193 427.887C282.711 429.57 257.357 434.921 231.683 429.927C214.914 429.278 207.894 429.314 193.56 438.652C192.425 439.274 191.958 441.103 191.18 442.374C200.681 448.923 240.607 443.865 245.257 454.657C247.289 464.544 248.387 474.741 242.593 484.034C233.266 493.234 245.339 523.973 256.039 505.92C264.606 488.872 285.063 482.927 302.042 478.436C318.097 475.866 319.863 459.989 329.63 451.785Z" fill="white"/>
<path d="M77.5176 496.947L81.1788 497.021" stroke="#E52741" stroke-width="1.5" stroke-linecap="round" stroke-linejoin="round"/>
<path d="M85.7739 497.112L501.461 505.188" stroke="#E52741" stroke-width="1.5" stroke-linecap="round" stroke-linejoin="round" stroke-dasharray="8.03 8.03"/>
<path d="M503.758 505.234L507.42 505.307L503.804 505.856" stroke="#E52741" stroke-width="1.5" stroke-linecap="round" stroke-linejoin="round"/>
<path d="M499.246 506.551L122.514 563.895" stroke="#E52741" stroke-width="1.5" stroke-linecap="round" stroke-linejoin="round" stroke-dasharray="8.05 8.05"/>
<path d="M120.235 564.242L116.62 564.791" stroke="#E52741" stroke-width="1.5" stroke-linecap="round" stroke-linejoin="round"/>
<path d="M198.237 851.668L200.672 848.934" stroke="#E52741" stroke-width="1.5" stroke-linecap="round" stroke-linejoin="round"/>
<path d="M203.72 845.522L503.465 509.742" stroke="#E52741" stroke-width="1.5" stroke-linecap="round" stroke-linejoin="round" stroke-dasharray="8.01 8.01"/>
<path d="M504.985 508.032L507.419 505.307L503.996 506.587" stroke="#E52741" stroke-width="1.5" stroke-linecap="round" stroke-linejoin="round"/>
<path d="M499.703 508.179L22.782 685.937" stroke="#E52741" stroke-width="1.5" stroke-linecap="round" stroke-linejoin="round" stroke-dasharray="7.99 7.99"/>
<path d="M20.6402 686.742L17.2078 688.022" stroke="#E52741" stroke-width="1.5" stroke-linecap="round" stroke-linejoin="round"/>
<path d="M463.256 661.161L464.254 657.64" stroke="#E52741" stroke-width="1.5" stroke-linecap="round" stroke-linejoin="round"/>
<path d="M465.461 653.368L505.817 510.968" stroke="#E52741" stroke-width="1.5" stroke-linecap="round" stroke-linejoin="round" stroke-dasharray="7.78 7.78"/>
<path d="M506.422 508.828L507.419 505.307L505.159 508.179" stroke="#E52741" stroke-width="1.5" stroke-linecap="round" stroke-linejoin="round"/>
<path d="M502.33 511.764L143.347 966.924" stroke="#E52741" stroke-width="1.5" stroke-linecap="round" stroke-linejoin="round" stroke-dasharray="7.99 7.99"/>
<path d="M141.928 968.726L139.667 971.597" stroke="#E52741" stroke-width="1.5" stroke-linecap="round" stroke-linejoin="round"/>
<path d="M271.188 460.172L274.776 460.858" stroke="#E52741" stroke-width="1.5" stroke-linecap="round" stroke-linejoin="round"/>
<path d="M279.325 461.727L501.552 504.182" stroke="#E52741" stroke-width="1.5" stroke-linecap="round" stroke-linejoin="round" stroke-dasharray="8.09 8.09"/>
<path d="M503.822 504.621L507.419 505.307L503.96 504.109" stroke="#E52741" stroke-width="1.5" stroke-linecap="round" stroke-linejoin="round"/>
<path d="M499.548 502.581L398.498 467.562" stroke="#E52741" stroke-width="1.5" stroke-linecap="round" stroke-linejoin="round" stroke-dasharray="8.16 8.16"/>
<path d="M396.292 466.794L392.832 465.596" stroke="#E52741" stroke-width="1.5" stroke-linecap="round" stroke-linejoin="round"/>
<path d="M651.452 693.034L649.228 690.135" stroke="#E52741" stroke-width="1.5" stroke-linecap="round" stroke-linejoin="round"/>
<path d="M646.454 686.522L511.034 510.017" stroke="#E52741" stroke-width="1.5" stroke-linecap="round" stroke-linejoin="round" stroke-dasharray="7.96 7.96"/>
<path d="M509.652 508.206L507.419 505.307L510.476 507.319" stroke="#E52741" stroke-width="1.5" stroke-linecap="round" stroke-linejoin="round"/>
<path d="M514.302 509.843L721.4 646.463" stroke="#E52741" stroke-width="1.5" stroke-linecap="round" stroke-linejoin="round" stroke-dasharray="8.02 8.02"/>
<path d="M723.312 647.725L726.37 649.747" stroke="#E52741" stroke-width="1.5" stroke-linecap="round" stroke-linejoin="round"/>
<path d="M507.419 505.307L507.932 508.929" stroke="#E52741" stroke-width="1.5" stroke-linecap="round" stroke-linejoin="round"/>
<path d="M508.572 513.565L533.478 691.964" stroke="#E52741" stroke-width="1.5" stroke-linecap="round" stroke-linejoin="round" stroke-dasharray="8.19 8.19"/>
<path d="M533.798 694.278L534.31 697.909" stroke="#E52741" stroke-width="1.5" stroke-linecap="round" stroke-linejoin="round"/>
<path d="M448.849 959.324L449.315 955.693" stroke="#E52741" stroke-width="1.5" stroke-linecap="round" stroke-linejoin="round"/>
<path d="M449.892 951.22L506.669 511.169" stroke="#E52741" stroke-width="1.5" stroke-linecap="round" stroke-linejoin="round" stroke-dasharray="7.9 7.9"/>
<path d="M506.952 508.938L507.419 505.307L511.016 504.603" stroke="#E52741" stroke-width="1.5" stroke-linecap="round" stroke-linejoin="round"/>
<path d="M515.529 503.725L642.244 479.022" stroke="#E52741" stroke-width="1.5" stroke-linecap="round" stroke-linejoin="round" stroke-dasharray="8.03 8.03"/>
<path d="M644.505 478.583L648.093 477.878" stroke="#E52741" stroke-width="1.5" stroke-linecap="round" stroke-linejoin="round"/>
<path d="M701.656 538.049L698.041 537.436" stroke="#E52741" stroke-width="1.5" stroke-linecap="round" stroke-linejoin="round"/>
<path d="M693.656 536.695L513.231 506.285" stroke="#E52741" stroke-width="1.5" stroke-linecap="round" stroke-linejoin="round" stroke-dasharray="7.78 7.78"/>
<path d="M511.034 505.91L507.419 505.307L510.696 506.944" stroke="#E52741" stroke-width="1.5" stroke-linecap="round" stroke-linejoin="round"/>
<path d="M514.806 508.993L598.117 550.615" stroke="#E52741" stroke-width="1.5" stroke-linecap="round" stroke-linejoin="round" stroke-dasharray="8.02 8.02"/>
<path d="M600.167 551.639L603.444 553.277" stroke="#E52741" stroke-width="1.5" stroke-linecap="round" stroke-linejoin="round"/>
<path d="M329.639 590.134L332.943 588.561" stroke="#E52741" stroke-width="1.5" stroke-linecap="round" stroke-linejoin="round"/>
<path d="M336.961 586.641L502.11 507.84" stroke="#E52741" stroke-width="1.5" stroke-linecap="round" stroke-linejoin="round" stroke-dasharray="7.78 7.78"/>
<path d="M504.115 506.88L507.419 505.307" stroke="#E52741" stroke-width="1.5" stroke-linecap="round" stroke-linejoin="round"/>
<path d="M506.055 505.398L508.362 502.563" stroke="#E52741" stroke-width="1.5" stroke-linecap="round" stroke-linejoin="round"/>
<path d="M511.446 498.758L558.127 441.295" stroke="#E52741" stroke-width="1.5" stroke-linecap="round" stroke-linejoin="round" stroke-dasharray="8.57 8.57"/>
<path d="M559.674 439.393L561.98 436.548" stroke="#E52741" stroke-width="1.5" stroke-linecap="round" stroke-linejoin="round"/>
<path d="M431.714 558.874L434.698 556.761" stroke="#E52741" stroke-width="1.5" stroke-linecap="round" stroke-linejoin="round"/>
<path d="M438.332 554.191L502.623 508.7" stroke="#E52741" stroke-width="1.5" stroke-linecap="round" stroke-linejoin="round" stroke-dasharray="7.78 7.78"/>
<path d="M504.435 507.419L507.419 505.307" stroke="#E52741" stroke-width="1.5" stroke-linecap="round" stroke-linejoin="round"/>
<path d="M507.437 508.929C509.389 508.929 510.97 507.348 510.97 505.398C510.97 503.448 509.389 501.868 507.437 501.868C505.486 501.868 503.904 503.448 503.904 505.398C503.904 507.348 505.486 508.929 507.437 508.929Z" fill="#E93842" stroke="#E52741" stroke-width="0.5" stroke-miterlimit="10"/>
<path d="M725.299 652.198C727.25 652.198 728.832 650.617 728.832 648.668C728.832 646.718 727.25 645.137 725.299 645.137C723.348 645.137 721.766 646.718 721.766 648.668C721.766 650.617 723.348 652.198 725.299 652.198Z" fill="#E93842" stroke="#E52741" stroke-width="0.5" stroke-miterlimit="10"/>
<path d="M650.098 695.604C652.049 695.604 653.631 694.023 653.631 692.074C653.631 690.124 652.049 688.543 650.098 688.543C648.146 688.543 646.564 690.124 646.564 692.074C646.564 694.023 648.146 695.604 650.098 695.604Z" fill="#E93842" stroke="#E52741" stroke-width="0.5" stroke-miterlimit="10"/>
<path d="M534.585 700.094C536.537 700.094 538.118 698.514 538.118 696.564C538.118 694.614 536.537 693.034 534.585 693.034C532.634 693.034 531.052 694.614 531.052 696.564C531.052 698.514 532.634 700.094 534.585 700.094Z" fill="#E93842" stroke="#E52741" stroke-width="0.5" stroke-miterlimit="10"/>
<path d="M448.849 961.135C450.8 961.135 452.382 959.554 452.382 957.604C452.382 955.655 450.8 954.074 448.849 954.074C446.897 954.074 445.315 955.655 445.315 957.604C445.315 959.554 446.897 961.135 448.849 961.135Z" fill="#E93842" stroke="#E52741" stroke-width="0.5" stroke-miterlimit="10"/>
<path d="M199.793 853.9C201.745 853.9 203.326 852.319 203.326 850.37C203.326 848.42 201.745 846.839 199.793 846.839C197.842 846.839 196.26 848.42 196.26 850.37C196.26 852.319 197.842 853.9 199.793 853.9Z" fill="#E93842" stroke="#E52741" stroke-width="0.5" stroke-miterlimit="10"/>
<path d="M18.4708 690.519C20.4221 690.519 22.0039 688.938 22.0039 686.989C22.0039 685.039 20.4221 683.458 18.4708 683.458C16.5196 683.458 14.9377 685.039 14.9377 686.989C14.9377 688.938 16.5196 690.519 18.4708 690.519Z" fill="#E93842" stroke="#E52741" stroke-width="0.5" stroke-miterlimit="10"/>
<path d="M118.386 568.321C120.337 568.321 121.919 566.741 121.919 564.791C121.919 562.841 120.337 561.261 118.386 561.261C116.434 561.261 114.853 562.841 114.853 564.791C114.853 566.741 116.434 568.321 118.386 568.321Z" fill="#E93842" stroke="#E52741" stroke-width="0.5" stroke-miterlimit="10"/>
<path d="M78.6068 500.478C80.5581 500.478 82.1399 498.897 82.1399 496.947C82.1399 494.998 80.5581 493.417 78.6068 493.417C76.6556 493.417 75.0737 494.998 75.0737 496.947C75.0737 498.897 76.6556 500.478 78.6068 500.478Z" fill="#E93842" stroke="#E52741" stroke-width="0.5" stroke-miterlimit="10"/>
<path d="M264.076 462.486C266.027 462.486 267.609 460.905 267.609 458.956C267.609 457.006 266.027 455.425 264.076 455.425C262.124 455.425 260.542 457.006 260.542 458.956C260.542 460.905 262.124 462.486 264.076 462.486Z" fill="#E93842" stroke="#E52741" stroke-width="0.5" stroke-miterlimit="10"/>
<path d="M394.067 469.126C396.019 469.126 397.6 467.545 397.6 465.596C397.6 463.646 396.019 462.065 394.067 462.065C392.116 462.065 390.534 463.646 390.534 465.596C390.534 467.545 392.116 469.126 394.067 469.126Z" fill="#E93842" stroke="#E52741" stroke-width="0.5" stroke-miterlimit="10"/>
<path d="M330.93 593.665C332.881 593.665 334.463 592.084 334.463 590.134C334.463 588.185 332.881 586.604 330.93 586.604C328.978 586.604 327.396 588.185 327.396 590.134C327.396 592.084 328.978 593.665 330.93 593.665Z" fill="#E93842" stroke="#E52741" stroke-width="0.5" stroke-miterlimit="10"/>
<path d="M425.398 566.419C427.35 566.419 428.931 564.839 428.931 562.889C428.931 560.939 427.35 559.359 425.398 559.359C423.447 559.359 421.865 560.939 421.865 562.889C421.865 564.839 423.447 566.419 425.398 566.419Z" fill="#E93842" stroke="#E52741" stroke-width="0.5" stroke-miterlimit="10"/>
<path d="M463.914 663.246C465.866 663.246 467.448 661.665 467.448 659.716C467.448 657.766 465.866 656.185 463.914 656.185C461.963 656.185 460.381 657.766 460.381 659.716C460.381 661.665 461.963 663.246 463.914 663.246Z" fill="#E93842" stroke="#E52741" stroke-width="0.5" stroke-miterlimit="10"/>
<path d="M603.362 556.807C605.313 556.807 606.895 555.226 606.895 553.277C606.895 551.327 605.313 549.746 603.362 549.746C601.41 549.746 599.829 551.327 599.829 553.277C599.829 555.226 601.41 556.807 603.362 556.807Z" fill="#E93842" stroke="#E52741" stroke-width="0.5" stroke-miterlimit="10"/>
<path d="M141.049 973.838C143 973.838 144.582 972.257 144.582 970.308C144.582 968.358 143 966.777 141.049 966.777C139.097 966.777 137.516 968.358 137.516 970.308C137.516 972.257 139.097 973.838 141.049 973.838Z" fill="#E93842" stroke="#E52741" stroke-width="0.5" stroke-miterlimit="10"/>
<path d="M699.826 541.579C701.777 541.579 703.359 539.999 703.359 538.049C703.359 536.099 701.777 534.518 699.826 534.518C697.875 534.518 696.293 536.099 696.293 538.049C696.293 539.999 697.875 541.579 699.826 541.579Z" fill="#E93842" stroke="#E52741" stroke-width="0.5" stroke-miterlimit="10"/>
<path d="M646.564 481.409C648.516 481.409 650.097 479.828 650.097 477.878C650.097 475.929 648.516 474.348 646.564 474.348C644.613 474.348 643.031 475.929 643.031 477.878C643.031 479.828 644.613 481.409 646.564 481.409Z" fill="#E93842" stroke="#E52741" stroke-width="0.5" stroke-miterlimit="10"/>
<path d="M560.397 440.079C562.349 440.079 563.93 438.498 563.93 436.548C563.93 434.599 562.349 433.018 560.397 433.018C558.446 433.018 556.864 434.599 556.864 436.548C556.864 438.498 558.446 440.079 560.397 440.079Z" fill="#E93842" stroke="#E52741" stroke-width="0.5" stroke-miterlimit="10"/>
<g clip-path="url(#clip0)">
<path d="M352.961 343.303C352.961 343.303 343.747 340.043 338.34 332.543C333.971 326.479 332.131 320.878 336.489 319.427C340.15 318.206 347.627 315.53 353.859 318.48C355.043 319.041 356.179 319.803 357.239 320.815" fill="white"/>
<path d="M374.564 361.963L373.563 366.387L373.394 372.933L375.537 376.344L372.548 374.425L371.78 378L371.36 374.291L367.866 375.533L371.371 372.238L372.132 366.19L373.165 361.794L374.564 361.963Z" fill="#DC4B64"/>
<path d="M382.528 361.768L383.739 366.139L384.216 372.668L382.237 376.179L385.13 374.119L386.067 377.652L386.312 373.924L389.861 374.995L386.204 371.876L385.158 365.872L383.915 361.532L382.528 361.768Z" fill="#DC4B64"/>
<path d="M404.301 335.091C404.66 349.773 393.215 361.97 378.736 362.334C364.257 362.698 352.227 351.094 351.868 336.412C351.51 321.733 357.332 292.558 377.013 292.064C396.693 291.566 403.94 320.412 404.301 335.091Z" fill="white"/>
<path d="M373.534 296.135C372.617 296.237 368.355 290.215 373.801 287.643C379.249 285.071 379.877 290.862 379.877 290.862C379.877 290.862 378.175 284.957 383.543 286.162C386.534 286.834 384.32 291.091 384.32 291.091C384.32 291.091 385.709 287.833 387.853 289.912C390.108 292.099 387.437 294.979 386.237 294.163C380.924 291.781 375.273 294.511 373.534 296.135Z" fill="#DC4B64"/>
<path d="M382.827 315.354C382.823 318.032 384.395 320.243 386.342 320.289C388.289 320.336 389.87 318.204 389.875 315.525C389.879 312.847 388.307 310.636 386.36 310.59C384.415 310.541 382.832 312.675 382.827 315.354Z" fill="black" stroke="black" stroke-miterlimit="10" stroke-linecap="square" stroke-linejoin="round"/>
<path d="M385.379 311.658C385.372 311.658 385.365 311.658 385.358 311.658C384.73 311.674 384.238 312.385 384.259 313.25C384.279 314.105 384.794 314.786 385.411 314.786C385.418 314.786 385.424 314.786 385.431 314.786C386.06 314.77 386.551 314.058 386.53 313.194C386.512 312.341 385.998 311.658 385.379 311.658Z" fill="white" stroke="white" stroke-miterlimit="30"/>
<path d="M364.396 315.354C364.392 318.032 365.964 320.243 367.911 320.289C369.858 320.336 371.44 318.204 371.444 315.525C371.449 312.847 369.877 310.636 367.929 310.59C365.982 310.543 364.401 312.675 364.396 315.354Z" fill="black" stroke="black" stroke-miterlimit="10" stroke-linecap="square" stroke-linejoin="round"/>
<path d="M366.714 311.665C366.707 311.665 366.7 311.665 366.694 311.665C366.067 311.681 365.574 312.392 365.594 313.257C365.615 314.112 366.129 314.793 366.746 314.793C366.753 314.793 366.76 314.793 366.767 314.793C367.395 314.777 367.886 314.065 367.866 313.201C367.848 312.346 367.333 311.665 366.714 311.665Z" fill="white" stroke="white" stroke-miterlimit="30"/>
<path d="M353.86 318.479C355.044 319.039 356.18 319.802 357.24 320.814L353.86 318.479Z" fill="white"/>
<path d="M353.864 318.468C354.2 318.559 354.52 318.698 354.828 318.858C355.137 319.017 355.415 319.226 355.694 319.435C356.252 319.847 356.771 320.308 357.248 320.809L357.232 320.825C356.711 320.373 356.165 319.958 355.591 319.587C355.303 319.402 355.004 319.242 354.716 319.059C354.428 318.874 354.14 318.695 353.857 318.491L353.864 318.468Z" fill="#B2B2B2"/>
<path d="M403.041 343.303C403.041 343.303 412.255 340.043 417.662 332.543C422.031 326.479 423.871 320.878 419.513 319.427C415.852 318.206 408.374 315.53 402.143 318.48C400.959 319.041 399.823 319.803 398.763 320.815" fill="white"/>
<path d="M402.141 318.478C400.957 319.039 399.822 319.801 398.761 320.814L402.141 318.478Z" fill="white"/>
<path d="M402.147 318.491C401.864 318.695 401.574 318.876 401.288 319.059C401 319.242 400.701 319.402 400.413 319.587C399.839 319.958 399.293 320.373 398.772 320.825L398.756 320.809C399.231 320.308 399.75 319.845 400.31 319.435C400.586 319.226 400.867 319.02 401.176 318.858C401.484 318.698 401.802 318.559 402.14 318.468L402.147 318.491Z" fill="#B2B2B2"/>
<path d="M377.949 326.321C378.687 326.212 382.707 322.507 382.421 322.189C382.136 321.872 375.764 323.024 375.506 323.603C375.248 324.18 377.211 326.43 377.949 326.321Z" fill="#DC4B64"/>
<path d="M377.681 318.994C376.746 318.762 371.022 321.7 371.31 322.273C371.598 322.847 380.353 324.972 382.402 322.287C382.873 321.67 378.616 319.226 377.681 318.994Z" fill="#DC4B64"/>
<path d="M375.699 323.434C376.284 323.494 376.869 323.531 377.454 323.54C378.039 323.554 378.624 323.54 379.205 323.48C379.785 323.417 380.354 323.302 380.903 323.13C381.451 322.963 381.972 322.701 382.391 322.282C382.395 322.277 382.402 322.277 382.407 322.282C382.411 322.287 382.411 322.291 382.409 322.296C382.087 322.81 381.531 323.142 380.974 323.35C380.407 323.559 379.808 323.626 379.219 323.665C378.035 323.739 376.856 323.638 375.695 323.457C375.688 323.457 375.683 323.45 375.686 323.443C375.688 323.436 375.693 323.434 375.699 323.434Z" fill="#660011"/>
<path d="M366.731 326.365C367.895 326.365 368.838 325.408 368.838 324.228C368.838 323.048 367.895 322.092 366.731 322.092C365.568 322.092 364.625 323.048 364.625 324.228C364.625 325.408 365.568 326.365 366.731 326.365Z" fill="#FFBDBD"/>
<path d="M387.856 326.365C389.02 326.365 389.963 325.408 389.963 324.228C389.963 323.048 389.02 322.092 387.856 322.092C386.692 322.092 385.749 323.048 385.749 324.228C385.749 325.408 386.692 326.365 387.856 326.365Z" fill="#FFBDBD"/>
</g>
<defs>
<clipPath id="clip0">
<rect width="88" height="92" fill="white" transform="translate(334 286)"/>
</clipPath>
</defs>
</svg>
