<svg width="1147" height="1293" viewBox="0 0 1147 1293" fill="none" xmlns="http://www.w3.org/2000/svg">
<path d="M638.29 417.809C642.599 403.824 647.345 390.928 652.313 378.086C659.102 360.538 665.646 342.917 672.412 325.363C673.281 323.102 673.165 321.647 671.502 319.9C660.344 308.184 649.183 296.463 638.305 284.507C622.058 266.652 605.994 248.638 595.203 226.9C588.783 213.974 583.76 200.564 583.174 185.742C582.949 179.928 583.648 174.141 588.092 169.346C593.125 163.907 599.661 163.285 606.278 163.989C618.652 165.301 629.493 170.122 640.062 175.652C656.342 184.167 670.775 194.852 683.745 207.321C691.714 214.979 699.697 222.637 707.383 230.556C715.636 239.052 724.107 247.329 732.849 255.37C734.714 257.083 736.365 257.117 738.776 256.741C769.407 251.934 799.733 244.874 830.287 239.531C834.967 238.714 839.689 238.23 844.528 237.095C842.528 233.954 839.43 232.011 837.71 228.906C835.476 224.883 836.033 220.859 839.3 217.708C845.371 211.854 851.441 205.859 858.588 201.203C865.223 196.88 868.499 197.188 873.738 202.437C879.617 208.323 885.218 214.468 890.74 220.666C894.26 224.616 895.381 225.053 900.842 223.563C907.754 221.679 914.654 219.586 921.646 218.194C947.691 212.993 973.218 205.236 999.103 199.254C1003.66 198.202 1005.09 197.349 1007.59 200.945C1009.5 203.703 1013.82 207.431 1016.14 209.931C1018.82 212.832 1018.71 213.256 1015.12 215.384C995.862 226.775 976.86 238.632 957.27 249.42C929.29 264.829 902.278 281.824 874.545 297.624C862.34 304.581 850.186 311.671 838.443 319.348C831.685 323.767 825.787 329.468 819.545 334.633C816.704 336.987 813.984 339.48 811.158 341.85C810.042 342.786 809.778 343.386 810.727 344.658C814.054 349.103 817.411 353.514 821.147 357.644C828.162 365.397 834.225 373.863 840.667 382.049C847.04 390.155 853.672 398.067 860.102 406.13C866.103 413.66 871.959 421.296 877.941 428.841C883.851 436.301 889.838 443.703 895.79 451.129C896.005 451.396 896.358 451.583 896.477 451.882C898.828 457.729 903.37 456.905 908.667 455.183C915.26 453.039 921.965 451.221 928.694 449.637C952.85 443.939 976.314 435.347 1000.47 429.655C1003.67 428.903 1005.6 429.474 1007.57 431.707C1012.02 436.734 1016.72 441.565 1021.45 446.354C1023.24 448.168 1023.43 449.117 1020.66 450.63C1000.52 461.627 980.609 473.04 960.324 483.754C951.343 488.498 942.374 493.267 933.385 497.996C930.094 499.729 930.174 501.229 931.528 503.594C938.807 516.323 945.696 529.264 951.393 542.796C953.029 546.676 955.061 550.419 955.877 554.924C953.113 554.824 950.891 553.687 948.748 552.637C933.144 544.98 918.331 536.141 903.844 526.83C902.006 525.649 901.276 525.409 899.71 527.591C894.324 535.09 888.195 542.16 883.06 549.791C869.766 569.572 854.509 588.14 841.13 607.863C839.852 609.744 839.088 609.652 837.723 608.189C832.67 602.774 827.551 597.412 822.33 592.148C820.877 590.682 820.551 589.437 821.413 587.364C829.777 567.132 838.361 546.962 846.148 526.563C850.177 516.012 854.423 505.531 858.568 495.023C859.172 493.486 858.916 492.75 857.648 491.66C848.363 483.716 839.238 475.608 830.058 467.548C821.401 459.942 812.724 452.351 804.09 444.714C795.549 437.15 787.039 429.545 778.534 421.937C769.351 413.719 760.16 405.511 751.047 397.224C749.755 396.049 748.897 396.4 747.686 397.385C742.061 401.959 737.205 407.328 731.647 411.916C715.641 425.12 705.592 442.591 693.11 458.301C677.072 478.487 661.183 498.79 645.89 519.46C638.664 529.231 631.508 539.045 624.058 548.671C615.88 559.235 607.44 569.619 599.108 580.081C597.939 581.548 597.033 581.985 595.517 580.376C592.18 576.821 588.651 573.41 584.965 570.181C583.163 568.6 583.326 566.99 583.961 564.983C588.319 551.267 593.549 537.782 598.66 524.262C602.069 515.244 605.962 506.332 608.732 497.18C611.806 487.037 616.189 477.281 619.493 467.219C620.192 465.092 620.083 463.725 618.536 462.058C611.731 454.716 604.366 447.843 598.306 439.872C595.394 436.048 595.063 432.508 598.298 428.538C604.334 421.143 611.645 414.926 619.788 409.761C624.183 406.969 628.733 408.229 633.435 412.743C634.915 414.145 636.255 415.676 638.29 417.809Z" fill="#878787"/>
<g clip-path="url(#clip0)">
<path d="M419.473 1292.12C651.141 1292.12 838.946 1100.27 838.946 863.62C838.946 626.966 651.141 435.12 419.473 435.12C187.804 435.12 0 626.966 0 863.62C0 1100.27 187.804 1292.12 419.473 1292.12Z" fill="#B6D3FF"/>
<path d="M117.555 1058.06C110.117 1044.58 91.2671 1032.35 93.0039 1015.81C95.977 1002.75 100.84 990.133 103.497 977.035C105.928 965.106 108.503 926.083 88.0385 944.911C69.6584 931.197 51.1762 917.39 32.6632 903.613C22.8653 894.94 5.53753 889.252 4.1276 874.432C4.38303 868.462 2.73811 863.317 0.0204337 858.735C0.0102168 860.363 0 861.991 0 863.62C0 992.273 55.5081 1107.67 143.383 1186.21C141.258 1160.85 140.921 1135.18 139.603 1109.6C137.754 1090.18 128.375 1073.63 117.555 1058.06Z" fill="#B6D3FF"/>
<path d="M689.525 535.729C687.328 535.479 685.101 535.51 682.843 535.938C632.647 546.698 583.321 561.571 535.056 579.762C525.146 583.279 515.828 583.06 506.245 577.956C490.96 571.496 472.764 561.372 456.703 570.536C444.882 577.195 406.549 610.675 414.661 625.516C447.181 647.663 432.172 635.181 451.86 624.473C437.679 611.844 451.074 600.677 456.284 588.811C462.66 575.462 481.673 592.004 471.844 601.731C470.138 603.944 468.054 606.073 467.124 608.651C464.509 619.724 472.733 617 479.15 615.028C487.231 614.829 492.268 621.321 489.949 629.295C483.206 648.519 458.062 664.779 439.457 660.156C428.341 657.39 420.464 661.92 412.658 667.503C401.593 675.425 391.336 684.651 380.629 693.407C386.605 699.93 390.733 708.227 385.808 718.132C379.464 732.514 365.242 717.725 357.355 728.026C352.726 733.703 352.542 746.238 357.16 750.914C360.42 753.126 366.345 752.667 370.412 751.185C380.68 743.931 387.862 730.385 397.905 722.39C416.255 706.85 431.376 730.886 442.073 744.662C442.778 744.422 443.483 744.182 444.188 743.942C444.32 730.51 420.781 715.011 435.054 704.032C439.753 700.922 442.032 704.418 445.26 707.403C456.366 717.652 466.164 728.589 469.219 744.672C469.597 746.655 471.211 748.357 472.938 751.404C472.876 740.07 474.879 732.837 485.913 734.361C499.021 735.697 484.268 756.122 502.761 758.762C512.834 760.995 532.287 750.945 530.877 769.209C528.732 780.053 530.377 798.975 516.349 799.935C503.742 801.177 491.532 800.676 480.386 793.151C475.185 789.634 470.659 788.058 468.32 796.929C466.634 803.327 461.699 803.88 456.529 801.49C450.839 798.87 445.342 795.75 439.6 793.245C415.764 784.228 432.295 760.171 417.133 763.709C400.02 767.842 382.978 772.288 365.753 775.878C356.997 782.255 350.387 792.191 348.987 803.817C348.445 807.22 346.443 811.238 343.899 813.252C333.611 821.382 328.584 833.259 323.629 844.948C319.368 860.322 320.247 877.73 318.97 893.761C318.796 898.76 318.05 904.636 320.084 908.664C326.684 921.731 334.377 934.172 341.805 946.748C346.177 954.148 351.398 959.387 360.277 953.542C361.523 952.728 363.577 952.457 364.987 952.906C380.833 959.126 394.953 933.775 407.703 952.509C409.583 954.857 413.21 956.757 416.081 956.83C428.362 956.193 429.077 971.827 427.8 981.033C422.977 1014.36 457.98 1034.93 440.039 1077.05C426.431 1108.17 456.315 1122.89 450.839 1160.8C449.694 1175.54 453.75 1187.72 467.788 1193.62C478.322 1231.97 511.016 1171.4 513.151 1154.95C514.009 1150.51 516.022 1144.99 519.23 1142.7C534.831 1131.75 512.191 1115.61 532.39 1099.8C555.398 1083.98 543.495 1057.46 542.841 1033.98C539.643 1011.49 561.906 988.036 573.104 970.085C584.199 955.275 588.286 938.346 591.964 919.665C575.239 926.156 568.537 929.267 557.022 912.474C544.609 897.977 520.354 840.429 529.815 823.626C535.077 826.037 537.202 830.859 539.306 836.15C547.97 853.632 556.655 871.103 565.329 888.574C575.198 912.996 609.047 880.798 617.057 867.742C623.473 857.462 618.722 844.792 607.126 844.698C595.448 844.604 589.614 840.941 585.66 829.805C580.153 816.206 569.446 813.68 580.409 798.088C595.295 802.095 594.763 818.857 606.38 819.431C612.255 816.425 615.299 818.491 618.374 823.595C625.782 830.243 637.889 826.194 646.992 828.187C660.723 827.582 665.944 843.487 674.731 852.108C675.139 851.096 675.548 850.094 675.957 849.081C708.446 853.308 686.122 867.012 688.952 883.355C693.693 899.219 698.536 915.208 704.738 930.508C705.851 930.477 706.965 930.446 708.068 930.415C709.284 920.761 711.685 911.065 711.348 901.474C711.092 894.126 712.676 888.709 716.896 883.47C722.688 876.279 730.167 869.777 733.549 861.438C737.36 852.045 743.674 849.77 751.316 847.651C757.038 846.065 760.521 847.693 762.248 854.112C765.007 864.413 768.256 874.557 771.29 884.744C778.646 880.183 780.945 880.788 783.09 889.764C788.23 911.19 792.643 932.815 797.813 954.231C799.672 962.695 808.479 987.963 817.194 971.848C826.727 950.662 829.843 926.72 829.352 903.509C829.076 896.954 823.825 890.087 819.626 884.368C804.035 862.336 821.005 852.692 838.639 847.923C834.256 722.714 777.246 611.197 689.525 535.729Z" fill="white"/>
<path d="M219.917 1153.39C220.96 1151.63 220.571 1148.73 220.285 1146.43C217.455 1115.98 253 1132.16 251.825 1092.62C248.525 1059.3 276.182 1040.32 252.182 1016.56C236.908 1001.68 221.726 986.668 205.92 972.401C196.991 964.981 182.626 962.664 174.596 954.085C167.086 944.525 157.472 938.388 146.499 935.581C130.173 931.406 114.102 924.821 96.6512 926.741C94.7509 926.95 92.3806 926.355 90.7765 925.28C72.233 912.902 53.669 900.534 35.4319 887.687C32.6631 885.735 29.8637 881.31 29.925 878.075C27.9736 835.002 37.0053 825.536 78.1894 818.011C100.237 818.116 88.7842 836.453 97.1314 843.404C98.8581 840.596 100.564 837.966 98.8581 834.658C91.9515 810.058 111.578 801.74 125.32 786.732C143.26 763.709 160.772 740.331 178.366 717.026C184.056 709.48 189.88 702.894 200.781 705.107C206.002 705.263 211.662 699.795 216.638 697.926C223.575 695.432 224.791 693.355 220.234 687.636C214.411 680.309 207.994 673.379 201.221 666.961C175.556 644.156 162.56 682.71 150.749 700.442C147.541 705.597 142.709 706.307 139.552 701.047C131.94 688.325 124.829 675.258 118.107 662.024C115.317 656.534 117.187 650.711 122.163 647.298C136.967 638.646 156.91 617.887 174.432 626.654C180.511 632.854 185.793 631.779 192.158 631.163C194.488 623.774 195.407 615.247 207.136 619.15C199.177 607.837 197.921 593.747 182.371 593.392C168.762 590.303 168.792 585.074 153.855 591.691C148.226 593.465 152.486 598.339 151.873 601.731C150.944 606.866 149.779 614.965 146.734 616.061C140.175 618.42 132.206 617.992 125.136 616.781C123.133 616.437 122.214 609.454 120.477 604.612C108.963 608.442 94.853 602.858 82.1637 610.195C81.7244 610.446 81.2442 610.634 80.7538 610.801C30.8547 680.445 1.04199 766.057 0.0305176 858.735C2.7482 863.317 4.39311 868.462 4.13769 874.432C5.55783 889.263 22.8754 894.94 32.6733 903.613C51.1863 917.39 69.6685 931.197 88.0486 944.911C108.513 926.083 105.938 965.106 103.507 977.035C100.85 990.133 95.9769 1002.75 93.014 1015.81C91.2772 1032.35 110.127 1044.58 117.565 1058.06C128.385 1073.62 137.764 1090.18 139.603 1109.6C140.921 1135.18 141.258 1160.85 143.383 1186.21C156.389 1197.83 170.11 1208.66 184.465 1218.59C202.753 1200.43 207.341 1174.69 219.917 1153.39Z" fill="white"/>
<path d="M367.939 580.941C369.083 576.704 369.788 571.559 371.117 567.196C376.317 550.633 353.891 553.764 344.011 553.67C315.568 555.591 287.267 561.696 258.609 555.998C239.891 555.257 232.055 555.298 216.056 565.954C214.789 566.664 214.268 568.751 213.399 570.202C224.004 577.675 268.57 571.903 273.76 584.218C276.028 595.501 277.254 607.137 270.787 617.741C260.376 628.24 273.852 663.318 285.796 642.716C295.359 623.262 318.193 616.478 337.146 611.354C355.066 608.421 357.038 590.303 367.939 580.941Z" fill="white"/>
<path d="M86.5264 632.478L90.6131 632.561" stroke="#E52741" stroke-width="1.5" stroke-linecap="round" stroke-linejoin="round"/>
<path d="M95.7419 632.666L559.74 641.881" stroke="#E52741" stroke-width="1.5" stroke-linecap="round" stroke-linejoin="round" stroke-dasharray="8.03 8.03"/>
<path d="M562.304 641.933L566.391 642.017L562.356 642.643" stroke="#E52741" stroke-width="1.5" stroke-linecap="round" stroke-linejoin="round"/>
<path d="M557.268 643.436L136.752 708.875" stroke="#E52741" stroke-width="1.5" stroke-linecap="round" stroke-linejoin="round" stroke-dasharray="8.05 8.05"/>
<path d="M134.208 709.271L130.173 709.897" stroke="#E52741" stroke-width="1.5" stroke-linecap="round" stroke-linejoin="round"/>
<path d="M221.276 1037.27L223.994 1034.15" stroke="#E52741" stroke-width="1.5" stroke-linecap="round" stroke-linejoin="round"/>
<path d="M227.396 1030.25L561.978 647.079" stroke="#E52741" stroke-width="1.5" stroke-linecap="round" stroke-linejoin="round" stroke-dasharray="8.01 8.01"/>
<path d="M563.674 645.127L566.391 642.017L562.57 643.478" stroke="#E52741" stroke-width="1.5" stroke-linecap="round" stroke-linejoin="round"/>
<path d="M557.779 645.294L25.4299 848.142" stroke="#E52741" stroke-width="1.5" stroke-linecap="round" stroke-linejoin="round" stroke-dasharray="7.99 7.99"/>
<path d="M23.0391 849.06L19.2078 850.522" stroke="#E52741" stroke-width="1.5" stroke-linecap="round" stroke-linejoin="round"/>
<path d="M517.095 819.869L518.209 815.851" stroke="#E52741" stroke-width="1.5" stroke-linecap="round" stroke-linejoin="round"/>
<path d="M519.557 810.977L564.603 648.477" stroke="#E52741" stroke-width="1.5" stroke-linecap="round" stroke-linejoin="round" stroke-dasharray="7.78 7.78"/>
<path d="M565.278 646.035L566.391 642.017L563.868 645.294" stroke="#E52741" stroke-width="1.5" stroke-linecap="round" stroke-linejoin="round"/>
<path d="M560.711 649.385L160.006 1168.79" stroke="#E52741" stroke-width="1.5" stroke-linecap="round" stroke-linejoin="round" stroke-dasharray="7.99 7.99"/>
<path d="M158.423 1170.84L155.899 1174.12" stroke="#E52741" stroke-width="1.5" stroke-linecap="round" stroke-linejoin="round"/>
<path d="M302.705 590.512L306.71 591.295" stroke="#E52741" stroke-width="1.5" stroke-linecap="round" stroke-linejoin="round"/>
<path d="M311.787 592.286L559.842 640.733" stroke="#E52741" stroke-width="1.5" stroke-linecap="round" stroke-linejoin="round" stroke-dasharray="8.09 8.09"/>
<path d="M562.376 641.234L566.391 642.017L562.529 640.65" stroke="#E52741" stroke-width="1.5" stroke-linecap="round" stroke-linejoin="round"/>
<path d="M557.604 638.907L444.811 598.945" stroke="#E52741" stroke-width="1.5" stroke-linecap="round" stroke-linejoin="round" stroke-dasharray="8.16 8.16"/>
<path d="M442.348 598.068L438.486 596.701" stroke="#E52741" stroke-width="1.5" stroke-linecap="round" stroke-linejoin="round"/>
<path d="M727.163 856.241L724.681 852.932" stroke="#E52741" stroke-width="1.5" stroke-linecap="round" stroke-linejoin="round"/>
<path d="M721.585 848.81L570.427 647.392" stroke="#E52741" stroke-width="1.5" stroke-linecap="round" stroke-linejoin="round" stroke-dasharray="7.96 7.96"/>
<path d="M568.884 645.325L566.391 642.017L569.803 644.313" stroke="#E52741" stroke-width="1.5" stroke-linecap="round" stroke-linejoin="round"/>
<path d="M574.074 647.194L805.241 803.097" stroke="#E52741" stroke-width="1.5" stroke-linecap="round" stroke-linejoin="round" stroke-dasharray="8.02 8.02"/>
<path d="M807.376 804.537L810.788 806.844" stroke="#E52741" stroke-width="1.5" stroke-linecap="round" stroke-linejoin="round"/>
<path d="M566.391 642.017L566.963 646.15" stroke="#E52741" stroke-width="1.5" stroke-linecap="round" stroke-linejoin="round"/>
<path d="M567.678 651.441L595.479 855.02" stroke="#E52741" stroke-width="1.5" stroke-linecap="round" stroke-linejoin="round" stroke-dasharray="8.19 8.19"/>
<path d="M595.836 857.66L596.408 861.804" stroke="#E52741" stroke-width="1.5" stroke-linecap="round" stroke-linejoin="round"/>
<path d="M501.014 1160.12L501.535 1155.97" stroke="#E52741" stroke-width="1.5" stroke-linecap="round" stroke-linejoin="round"/>
<path d="M502.178 1150.87L565.554 648.707" stroke="#E52741" stroke-width="1.5" stroke-linecap="round" stroke-linejoin="round" stroke-dasharray="7.9 7.9"/>
<path d="M565.87 646.16L566.391 642.017L570.407 641.213" stroke="#E52741" stroke-width="1.5" stroke-linecap="round" stroke-linejoin="round"/>
<path d="M575.443 640.211L716.885 612.022" stroke="#E52741" stroke-width="1.5" stroke-linecap="round" stroke-linejoin="round" stroke-dasharray="8.03 8.03"/>
<path d="M719.409 611.521L723.414 610.717" stroke="#E52741" stroke-width="1.5" stroke-linecap="round" stroke-linejoin="round"/>
<path d="M783.203 679.38L779.167 678.681" stroke="#E52741" stroke-width="1.5" stroke-linecap="round" stroke-linejoin="round"/>
<path d="M774.273 677.836L572.879 643.134" stroke="#E52741" stroke-width="1.5" stroke-linecap="round" stroke-linejoin="round" stroke-dasharray="7.78 7.78"/>
<path d="M570.427 642.706L566.391 642.017L570.049 643.885" stroke="#E52741" stroke-width="1.5" stroke-linecap="round" stroke-linejoin="round"/>
<path d="M574.636 646.223L667.63 693.72" stroke="#E52741" stroke-width="1.5" stroke-linecap="round" stroke-linejoin="round" stroke-dasharray="8.02 8.02"/>
<path d="M669.918 694.889L673.576 696.758" stroke="#E52741" stroke-width="1.5" stroke-linecap="round" stroke-linejoin="round"/>
<path d="M367.949 738.817L371.638 737.022" stroke="#E52741" stroke-width="1.5" stroke-linecap="round" stroke-linejoin="round"/>
<path d="M376.123 734.831L560.466 644.908" stroke="#E52741" stroke-width="1.5" stroke-linecap="round" stroke-linejoin="round" stroke-dasharray="7.78 7.78"/>
<path d="M562.703 643.812L566.391 642.017" stroke="#E52741" stroke-width="1.5" stroke-linecap="round" stroke-linejoin="round"/>
<path d="M564.869 642.121L567.444 638.886" stroke="#E52741" stroke-width="1.5" stroke-linecap="round" stroke-linejoin="round"/>
<path d="M570.887 634.544L622.993 568.97" stroke="#E52741" stroke-width="1.5" stroke-linecap="round" stroke-linejoin="round" stroke-dasharray="8.57 8.57"/>
<path d="M624.719 566.8L627.294 563.554" stroke="#E52741" stroke-width="1.5" stroke-linecap="round" stroke-linejoin="round"/>
<path d="M481.888 703.145L485.218 700.734" stroke="#E52741" stroke-width="1.5" stroke-linecap="round" stroke-linejoin="round"/>
<path d="M489.274 697.801L561.038 645.889" stroke="#E52741" stroke-width="1.5" stroke-linecap="round" stroke-linejoin="round" stroke-dasharray="7.78 7.78"/>
<path d="M563.061 644.428L566.391 642.017" stroke="#E52741" stroke-width="1.5" stroke-linecap="round" stroke-linejoin="round"/>
<path d="M566.412 646.15C568.59 646.15 570.355 644.346 570.355 642.121C570.355 639.896 568.59 638.093 566.412 638.093C564.234 638.093 562.468 639.896 562.468 642.121C562.468 644.346 564.234 646.15 566.412 646.15Z" fill="#E93842" stroke="#E52741" stroke-width="0.5" stroke-miterlimit="10"/>
<path d="M809.593 809.641C811.771 809.641 813.537 807.837 813.537 805.612C813.537 803.387 811.771 801.584 809.593 801.584C807.415 801.584 805.649 803.387 805.649 805.612C805.649 807.837 807.415 809.641 809.593 809.641Z" fill="#E93842" stroke="#E52741" stroke-width="0.5" stroke-miterlimit="10"/>
<path d="M725.651 859.174C727.83 859.174 729.595 857.37 729.595 855.145C729.595 852.92 727.83 851.116 725.651 851.116C723.473 851.116 721.708 852.92 721.708 855.145C721.708 857.37 723.473 859.174 725.651 859.174Z" fill="#E93842" stroke="#E52741" stroke-width="0.5" stroke-miterlimit="10"/>
<path d="M596.715 864.298C598.893 864.298 600.658 862.494 600.658 860.269C600.658 858.045 598.893 856.241 596.715 856.241C594.537 856.241 592.771 858.045 592.771 860.269C592.771 862.494 594.537 864.298 596.715 864.298Z" fill="#E93842" stroke="#E52741" stroke-width="0.5" stroke-miterlimit="10"/>
<path d="M501.014 1162.18C503.192 1162.18 504.957 1160.38 504.957 1158.15C504.957 1155.93 503.192 1154.13 501.014 1154.13C498.836 1154.13 497.07 1155.93 497.07 1158.15C497.07 1160.38 498.836 1162.18 501.014 1162.18Z" fill="#E93842" stroke="#E52741" stroke-width="0.5" stroke-miterlimit="10"/>
<path d="M223.013 1039.81C225.191 1039.81 226.957 1038.01 226.957 1035.78C226.957 1033.56 225.191 1031.76 223.013 1031.76C220.835 1031.76 219.07 1033.56 219.07 1035.78C219.07 1038.01 220.835 1039.81 223.013 1039.81Z" fill="#E93842" stroke="#E52741" stroke-width="0.5" stroke-miterlimit="10"/>
<path d="M20.6175 853.371C22.7956 853.371 24.5612 851.567 24.5612 849.342C24.5612 847.117 22.7956 845.314 20.6175 845.314C18.4395 845.314 16.6738 847.117 16.6738 849.342C16.6738 851.567 18.4395 853.371 20.6175 853.371Z" fill="#E93842" stroke="#E52741" stroke-width="0.5" stroke-miterlimit="10"/>
<path d="M132.145 713.926C134.323 713.926 136.088 712.122 136.088 709.897C136.088 707.672 134.323 705.869 132.145 705.869C129.967 705.869 128.201 707.672 128.201 709.897C128.201 712.122 129.967 713.926 132.145 713.926Z" fill="#E93842" stroke="#E52741" stroke-width="0.5" stroke-miterlimit="10"/>
<path d="M87.7423 636.506C89.9203 636.506 91.686 634.703 91.686 632.478C91.686 630.253 89.9203 628.449 87.7423 628.449C85.5642 628.449 83.7986 630.253 83.7986 632.478C83.7986 634.703 85.5642 636.506 87.7423 636.506Z" fill="#E93842" stroke="#E52741" stroke-width="0.5" stroke-miterlimit="10"/>
<path d="M294.766 593.152C296.944 593.152 298.71 591.349 298.71 589.124C298.71 586.899 296.944 585.095 294.766 585.095C292.588 585.095 290.823 586.899 290.823 589.124C290.823 591.349 292.588 593.152 294.766 593.152Z" fill="#E93842" stroke="#E52741" stroke-width="0.5" stroke-miterlimit="10"/>
<path d="M439.866 600.729C442.044 600.729 443.81 598.926 443.81 596.701C443.81 594.476 442.044 592.672 439.866 592.672C437.688 592.672 435.922 594.476 435.922 596.701C435.922 598.926 437.688 600.729 439.866 600.729Z" fill="#E93842" stroke="#E52741" stroke-width="0.5" stroke-miterlimit="10"/>
<path d="M369.39 742.846C371.568 742.846 373.334 741.042 373.334 738.817C373.334 736.593 371.568 734.789 369.39 734.789C367.212 734.789 365.446 736.593 365.446 738.817C365.446 741.042 367.212 742.846 369.39 742.846Z" fill="#E93842" stroke="#E52741" stroke-width="0.5" stroke-miterlimit="10"/>
<path d="M474.838 711.755C477.016 711.755 478.782 709.951 478.782 707.727C478.782 705.502 477.016 703.698 474.838 703.698C472.66 703.698 470.894 705.502 470.894 707.727C470.894 709.951 472.66 711.755 474.838 711.755Z" fill="#E93842" stroke="#E52741" stroke-width="0.5" stroke-miterlimit="10"/>
<path d="M517.83 822.249C520.009 822.249 521.774 820.445 521.774 818.22C521.774 815.995 520.009 814.191 517.83 814.191C515.652 814.191 513.887 815.995 513.887 818.22C513.887 820.445 515.652 822.249 517.83 822.249Z" fill="#E93842" stroke="#E52741" stroke-width="0.5" stroke-miterlimit="10"/>
<path d="M673.484 700.786C675.662 700.786 677.428 698.982 677.428 696.758C677.428 694.533 675.662 692.729 673.484 692.729C671.306 692.729 669.541 694.533 669.541 696.758C669.541 698.982 671.306 700.786 673.484 700.786Z" fill="#E93842" stroke="#E52741" stroke-width="0.5" stroke-miterlimit="10"/>
<path d="M157.442 1176.68C159.62 1176.68 161.385 1174.88 161.385 1172.65C161.385 1170.43 159.62 1168.62 157.442 1168.62C155.263 1168.62 153.498 1170.43 153.498 1172.65C153.498 1174.88 155.263 1176.68 157.442 1176.68Z" fill="#E93842" stroke="#E52741" stroke-width="0.5" stroke-miterlimit="10"/>
<path d="M781.16 683.409C783.338 683.409 785.103 681.605 785.103 679.38C785.103 677.155 783.338 675.352 781.16 675.352C778.982 675.352 777.216 677.155 777.216 679.38C777.216 681.605 778.982 683.409 781.16 683.409Z" fill="#E93842" stroke="#E52741" stroke-width="0.5" stroke-miterlimit="10"/>
<path d="M721.708 614.746C723.886 614.746 725.651 612.942 725.651 610.717C725.651 608.492 723.886 606.689 721.708 606.689C719.53 606.689 717.764 608.492 717.764 610.717C717.764 612.942 719.53 614.746 721.708 614.746Z" fill="#E93842" stroke="#E52741" stroke-width="0.5" stroke-miterlimit="10"/>
<path d="M625.526 567.582C627.704 567.582 629.47 565.779 629.47 563.554C629.47 561.329 627.704 559.525 625.526 559.525C623.348 559.525 621.583 561.329 621.583 563.554C621.583 565.779 623.348 567.582 625.526 567.582Z" fill="#E93842" stroke="#E52741" stroke-width="0.5" stroke-miterlimit="10"/>
</g>
<g clip-path="url(#clip1)">
<path d="M394.116 456.52C394.116 456.52 383.855 452.799 377.834 444.239C372.968 437.318 370.919 430.926 375.772 429.271C379.849 427.877 388.176 424.822 395.116 428.189C396.434 428.829 397.699 429.699 398.88 430.855" fill="white"/>
<path d="M418.173 477.817L417.059 482.865L416.87 490.336L419.257 494.229L415.929 492.039L415.074 496.12L414.605 491.886L410.714 493.304L414.618 489.543L415.465 482.641L416.616 477.624L418.173 477.817Z" fill="#DC4B64"/>
<path d="M427.042 477.595L428.391 482.582L428.923 490.035L426.719 494.041L429.941 491.69L430.985 495.723L431.257 491.468L435.209 492.69L431.137 489.13L429.972 482.278L428.587 477.325L427.042 477.595Z" fill="#DC4B64"/>
<path d="M451.29 447.148C451.69 463.904 438.945 477.825 422.82 478.24C406.695 478.655 393.299 465.411 392.899 448.655C392.5 431.902 398.984 398.604 420.901 398.041C442.818 397.472 450.888 430.394 451.29 447.148Z" fill="white"/>
<path d="M417.027 402.687C416.006 402.804 411.26 395.93 417.324 392.995C423.391 390.059 424.091 396.668 424.091 396.668C424.091 396.668 422.195 389.93 428.173 391.305C431.505 392.072 429.039 396.93 429.039 396.93C429.039 396.93 430.586 393.212 432.973 395.584C435.485 398.08 432.51 401.368 431.174 400.437C425.257 397.718 418.963 400.833 417.027 402.687Z" fill="#DC4B64"/>
<path d="M427.376 424.621C427.371 427.678 429.122 430.201 431.29 430.254C433.458 430.307 435.219 427.874 435.224 424.817C435.229 421.76 433.478 419.237 431.31 419.184C429.144 419.128 427.381 421.564 427.376 424.621Z" fill="black" stroke="black" stroke-miterlimit="10" stroke-linecap="square" stroke-linejoin="round"/>
<path d="M430.217 420.403C430.209 420.403 430.202 420.403 430.194 420.403C429.494 420.422 428.947 421.233 428.97 422.22C428.993 423.196 429.565 423.973 430.253 423.973C430.26 423.973 430.268 423.973 430.275 423.973C430.975 423.955 431.522 423.143 431.5 422.156C431.479 421.183 430.907 420.403 430.217 420.403Z" fill="white" stroke="white" stroke-miterlimit="30"/>
<path d="M406.851 424.621C406.846 427.678 408.597 430.201 410.765 430.254C412.933 430.307 414.694 427.874 414.699 424.817C414.705 421.76 412.954 419.237 410.785 419.184C408.617 419.131 406.856 421.564 406.851 424.621Z" fill="black" stroke="black" stroke-miterlimit="10" stroke-linecap="square" stroke-linejoin="round"/>
<path d="M409.432 420.411C409.424 420.411 409.417 420.411 409.409 420.411C408.712 420.429 408.162 421.241 408.185 422.228C408.208 423.204 408.78 423.981 409.467 423.981C409.475 423.981 409.483 423.981 409.49 423.981C410.19 423.963 410.737 423.151 410.714 422.164C410.694 421.188 410.121 420.411 409.432 420.411Z" fill="white" stroke="white" stroke-miterlimit="30"/>
<path d="M395.117 428.187C396.435 428.827 397.7 429.697 398.881 430.853Z" fill="white"/>
<path d="M395.121 428.176C395.495 428.279 395.852 428.438 396.195 428.62C396.539 428.803 396.849 429.041 397.16 429.279C397.781 429.749 398.358 430.276 398.89 430.847L398.872 430.865C398.292 430.35 397.684 429.876 397.045 429.453C396.724 429.242 396.391 429.059 396.07 428.85C395.75 428.639 395.429 428.435 395.114 428.202L395.121 428.176Z" fill="#B2B2B2"/>
<path d="M449.886 456.52C449.886 456.52 460.147 452.799 466.169 444.239C471.035 437.318 473.083 430.926 468.23 429.271C464.153 427.877 455.826 424.822 448.886 428.189C447.568 428.829 446.303 429.699 445.122 430.855" fill="white"/>
<path d="M448.885 428.186C447.566 428.826 446.301 429.697 445.121 430.852Z" fill="white"/>
<path d="M448.891 428.202C448.576 428.435 448.253 428.641 447.935 428.85C447.614 429.059 447.28 429.242 446.96 429.453C446.321 429.876 445.713 430.35 445.133 430.865L445.115 430.847C445.644 430.276 446.222 429.747 446.845 429.279C447.153 429.041 447.466 428.805 447.81 428.62C448.153 428.438 448.507 428.279 448.884 428.176L448.891 428.202Z" fill="#B2B2B2"/>
<path d="M421.944 437.138C422.766 437.014 427.242 432.785 426.924 432.423C426.606 432.06 419.511 433.375 419.223 434.036C418.936 434.694 421.122 437.262 421.944 437.138Z" fill="#DC4B64"/>
<path d="M421.645 428.776C420.604 428.511 414.229 431.865 414.55 432.518C414.87 433.174 424.62 435.599 426.903 432.534C427.427 431.83 422.686 429.04 421.645 428.776Z" fill="#DC4B64"/>
<path d="M419.438 433.843C420.09 433.912 420.741 433.954 421.393 433.964C422.044 433.98 422.696 433.964 423.342 433.896C423.988 433.824 424.622 433.692 425.233 433.496C425.844 433.306 426.424 433.007 426.89 432.528C426.895 432.523 426.902 432.523 426.907 432.528C426.912 432.534 426.912 432.539 426.91 432.544C426.551 433.131 425.933 433.51 425.312 433.748C424.681 433.986 424.014 434.062 423.357 434.107C422.039 434.192 420.726 434.076 419.433 433.869C419.425 433.869 419.42 433.861 419.423 433.853C419.425 433.845 419.43 433.843 419.438 433.843Z" fill="#660011"/>
<path d="M409.451 437.188C410.747 437.188 411.798 436.096 411.798 434.75C411.798 433.403 410.747 432.311 409.451 432.311C408.155 432.311 407.105 433.403 407.105 434.75C407.105 436.096 408.155 437.188 409.451 437.188Z" fill="#FFBDBD"/>
<path d="M432.976 437.188C434.272 437.188 435.323 436.096 435.323 434.75C435.323 433.403 434.272 432.311 432.976 432.311C431.68 432.311 430.63 433.403 430.63 434.75C430.63 436.096 431.68 437.188 432.976 437.188Z" fill="#FFBDBD"/>
</g>
<defs>
<clipPath id="clip0">
<rect width="874" height="857" fill="white" transform="translate(0 435.12)"/>
</clipPath>
<clipPath id="clip1">
<rect width="98" height="105" fill="white" transform="translate(373 391.12)"/>
</clipPath>
</defs>
</svg>
