<svg width="1884" height="1853" viewBox="0 0 1884 1853" fill="none" xmlns="http://www.w3.org/2000/svg">
<path d="M1680 1246L1680 196L0 196L0 1246L1680 1246Z" fill="#B8B8B8"/>
<path d="M1074.42 665.74C1081.28 643.456 1088.85 622.907 1096.76 602.444C1107.58 574.483 1118.01 546.406 1128.79 518.435C1130.17 514.833 1129.99 512.514 1127.34 509.73C1109.56 491.062 1091.78 472.387 1074.44 453.335C1048.55 424.884 1022.96 396.181 1005.76 361.544C995.533 340.947 987.529 319.58 986.596 295.962C986.237 286.699 987.351 277.477 994.432 269.837C1002.45 261.17 1012.87 260.179 1023.41 261.301C1043.13 263.391 1060.4 271.073 1077.24 279.885C1103.18 293.453 1126.18 310.479 1146.85 330.347C1159.54 342.55 1172.26 354.751 1184.51 367.369C1197.66 380.908 1211.16 394.096 1225.09 406.909C1228.06 409.638 1230.69 409.692 1234.53 409.093C1283.34 401.433 1331.66 390.185 1380.35 381.67C1387.8 380.368 1395.33 379.597 1403.04 377.789C1399.85 372.785 1394.92 369.688 1392.17 364.741C1388.62 358.33 1389.5 351.919 1394.71 346.897C1404.38 337.569 1414.05 328.017 1425.44 320.598C1436.02 313.709 1441.23 314.201 1449.58 322.564C1458.95 331.944 1467.87 341.734 1476.67 351.611C1482.28 357.904 1484.07 358.6 1492.77 356.227C1503.78 353.225 1514.78 349.89 1525.92 347.672C1567.42 339.385 1608.09 327.025 1649.34 317.493C1656.6 315.817 1658.88 314.458 1662.86 320.188C1665.91 324.582 1672.79 330.523 1676.48 334.506C1680.75 339.129 1680.59 339.803 1674.86 343.194C1644.18 361.344 1613.9 380.238 1582.68 397.427C1538.1 421.98 1495.06 449.061 1450.87 474.236C1431.42 485.322 1412.05 496.619 1393.34 508.851C1382.57 515.892 1373.18 524.976 1363.23 533.206C1358.7 536.957 1354.37 540.929 1349.87 544.706C1348.09 546.197 1347.67 547.154 1349.18 549.181C1354.48 556.263 1359.83 563.292 1365.78 569.872C1376.96 582.225 1386.62 595.716 1396.89 608.759C1407.04 621.675 1417.61 634.283 1427.86 647.131C1437.42 659.128 1446.75 671.296 1456.28 683.318C1465.7 695.206 1475.24 706.999 1484.72 718.832C1485.06 719.257 1485.63 719.555 1485.81 720.032C1489.56 729.349 1496.8 728.036 1505.24 725.292C1515.74 721.875 1526.43 718.978 1537.15 716.454C1575.64 707.375 1613.03 693.685 1651.52 684.614C1656.62 683.416 1659.69 684.326 1662.83 687.884C1669.93 695.895 1677.41 703.592 1684.94 711.223C1687.8 714.113 1688.1 715.627 1683.68 718.037C1651.6 735.559 1619.87 753.745 1587.55 770.817C1573.24 778.376 1558.95 785.974 1544.62 793.511C1539.38 796.272 1539.51 798.661 1541.67 802.429C1553.26 822.712 1564.24 843.333 1573.32 864.894C1575.92 871.077 1579.16 877.042 1580.46 884.22C1576.06 884.06 1572.52 882.248 1569.1 880.575C1544.24 868.375 1520.64 854.291 1497.55 839.454C1494.62 837.572 1493.46 837.19 1490.97 840.667C1482.38 852.616 1472.62 863.882 1464.44 876.04C1443.25 907.56 1418.94 937.147 1397.62 968.572C1395.59 971.57 1394.37 971.424 1392.2 969.093C1384.14 960.464 1375.99 951.92 1367.67 943.532C1365.35 941.197 1364.83 939.212 1366.21 935.91C1379.53 903.672 1393.21 871.532 1405.62 839.028C1412.04 822.217 1418.81 805.516 1425.41 788.772C1426.37 786.324 1425.96 785.151 1423.94 783.414C1409.15 770.757 1394.61 757.837 1379.98 744.994C1366.19 732.874 1352.36 720.779 1338.6 708.61C1324.99 696.558 1311.43 684.44 1297.88 672.318C1283.25 659.223 1268.61 646.144 1254.09 632.94C1252.03 631.067 1250.66 631.626 1248.73 633.196C1239.77 640.484 1232.03 649.04 1223.17 656.349C1197.67 677.389 1181.66 705.228 1161.77 730.259C1136.21 762.424 1110.9 794.776 1086.53 827.711C1075.01 843.28 1063.61 858.917 1051.74 874.255C1038.71 891.088 1025.26 907.634 1011.99 924.304C1010.12 926.642 1008.68 927.339 1006.26 924.774C1000.95 919.11 995.323 913.675 989.449 908.53C986.577 906.011 986.838 903.446 987.85 900.247C994.794 878.392 1003.13 856.906 1011.27 835.363C1016.7 820.993 1022.91 806.792 1027.32 792.209C1032.22 776.048 1039.2 760.503 1044.47 744.47C1045.58 741.081 1045.41 738.903 1042.94 736.246C1032.1 724.547 1020.36 713.596 1010.71 700.895C1006.07 694.802 1005.54 689.161 1010.69 682.836C1020.31 671.051 1031.96 661.146 1044.94 652.915C1051.94 648.467 1059.19 650.475 1066.68 657.668C1069.04 659.901 1071.18 662.341 1074.42 665.74Z" fill="#878787"/>
<path d="M840 1852.01C1183.52 1852.01 1462 1573.76 1462 1230.51C1462 887.258 1183.52 609 840 609C496.479 609 218 887.258 218 1230.51C218 1573.76 496.479 1852.01 840 1852.01Z" fill="#B6D3FF"/>
<path d="M392.312 1512.52C381.283 1492.98 353.332 1475.24 355.907 1451.24C360.316 1432.31 367.527 1414.01 371.466 1395.01C375.072 1377.71 378.889 1321.11 348.545 1348.41C321.29 1328.52 293.885 1308.5 266.433 1288.51C251.905 1275.94 226.211 1267.68 224.12 1246.19C224.499 1237.53 222.06 1230.07 218.03 1223.42C218.015 1225.78 218 1228.15 218 1230.51C218 1417.11 300.308 1584.49 430.61 1698.4C427.459 1661.61 426.959 1624.39 425.005 1587.29C422.263 1559.12 408.356 1535.11 392.312 1512.52Z" fill="#B6D3FF"/>
<path d="M1240.44 754.927C1237.18 754.564 1233.88 754.609 1230.53 755.23C1156.1 770.837 1082.95 792.408 1011.39 818.793C996.693 823.894 982.876 823.576 968.666 816.174C946.002 806.804 919.02 792.12 895.205 805.411C877.677 815.069 820.835 863.631 832.864 885.156C881.085 917.278 858.83 899.174 888.024 883.643C866.996 865.326 886.857 849.129 894.584 831.917C904.037 812.556 932.231 836.549 917.657 850.658C915.127 853.867 912.036 856.955 910.657 860.694C906.779 876.755 918.975 872.804 928.489 869.943C940.472 869.655 947.941 879.071 944.502 890.636C934.503 918.52 897.22 942.104 869.632 935.398C853.149 931.387 841.469 937.956 829.895 946.055C813.488 957.545 798.277 970.926 782.4 983.627C791.263 993.088 797.383 1005.12 790.081 1019.49C780.673 1040.35 759.585 1018.9 747.889 1033.84C741.027 1042.07 740.754 1060.25 747.602 1067.04C752.434 1070.24 761.221 1069.58 767.251 1067.43C782.476 1056.91 793.126 1037.26 808.018 1025.66C835.227 1003.12 857.649 1037.99 873.511 1057.97C874.556 1057.62 875.601 1057.27 876.646 1056.92C876.843 1037.44 841.939 1014.96 863.103 999.037C870.072 994.526 873.45 999.597 878.237 1003.93C894.705 1018.79 909.233 1034.66 913.763 1057.98C914.324 1060.86 916.717 1063.33 919.278 1067.75C919.187 1051.31 922.156 1040.82 938.518 1043.03C957.955 1044.96 936.079 1074.59 963.5 1078.42C978.437 1081.66 1007.28 1067.08 1005.19 1093.57C1002.01 1109.3 1004.45 1136.74 983.649 1138.14C964.954 1139.94 946.85 1139.21 930.322 1128.3C922.611 1123.2 915.899 1120.91 912.43 1133.78C909.93 1143.06 902.613 1143.86 894.947 1140.39C886.509 1136.59 878.358 1132.07 869.844 1128.43C834.5 1115.35 859.012 1080.46 836.53 1085.59C811.154 1091.59 785.885 1098.04 760.342 1103.24C747.359 1112.49 737.557 1126.9 735.482 1143.77C734.679 1148.7 731.71 1154.53 727.937 1157.45C712.682 1169.24 705.228 1186.47 697.88 1203.43C691.563 1225.72 692.866 1250.97 690.972 1274.22C690.715 1281.48 689.609 1290 692.623 1295.84C702.41 1314.79 713.818 1332.84 724.832 1351.08C731.316 1361.81 739.057 1369.41 752.222 1360.93C754.071 1359.75 757.116 1359.36 759.206 1360.01C782.703 1369.03 803.64 1332.26 822.547 1359.43C825.335 1362.84 830.713 1365.6 834.97 1365.7C853.18 1364.78 854.24 1387.45 852.346 1400.81C845.196 1449.14 897.099 1478.98 870.496 1540.07C850.316 1585.21 894.629 1606.56 886.509 1661.55C884.812 1682.93 890.827 1700.59 911.642 1709.14C927.262 1764.78 975.74 1676.92 978.907 1653.06C980.179 1646.63 983.164 1638.62 987.921 1635.29C1011.05 1619.41 977.483 1596.01 1007.43 1573.07C1041.55 1550.12 1023.9 1511.66 1022.93 1477.6C1018.19 1444.98 1051.2 1410.96 1067.81 1384.93C1084.26 1363.45 1090.32 1338.89 1095.77 1311.8C1070.97 1321.21 1061.03 1325.72 1043.96 1301.37C1025.55 1280.34 989.587 1196.87 1003.62 1172.5C1011.42 1176 1014.57 1182.99 1017.69 1190.66C1030.54 1216.02 1043.41 1241.36 1056.28 1266.7C1070.91 1302.12 1121.1 1255.42 1132.98 1236.49C1142.49 1221.58 1135.45 1203.2 1118.25 1203.06C1100.94 1202.93 1092.29 1197.61 1086.42 1181.46C1078.26 1161.74 1062.38 1158.07 1078.64 1135.46C1100.71 1141.27 1099.92 1165.58 1117.15 1166.41C1125.86 1162.05 1130.37 1165.05 1134.93 1172.45C1145.92 1182.1 1163.87 1176.22 1177.37 1179.11C1197.73 1178.24 1205.47 1201.31 1218.5 1213.81C1219.1 1212.34 1219.71 1210.89 1220.32 1209.42C1268.49 1215.55 1235.39 1235.43 1239.59 1259.13C1246.62 1282.14 1253.8 1305.33 1262.99 1327.52C1264.64 1327.48 1266.3 1327.43 1267.93 1327.39C1269.73 1313.39 1273.3 1299.32 1272.8 1285.41C1272.42 1274.75 1274.76 1266.9 1281.02 1259.3C1289.61 1248.87 1300.7 1239.44 1305.72 1227.34C1311.37 1213.72 1320.73 1210.42 1332.06 1207.35C1340.54 1205.05 1345.71 1207.41 1348.27 1216.72C1352.36 1231.66 1357.18 1246.37 1361.68 1261.15C1372.59 1254.53 1375.99 1255.41 1379.18 1268.43C1386.8 1299.5 1393.34 1330.87 1401.01 1361.93C1403.76 1374.21 1416.82 1410.86 1429.75 1387.48C1443.88 1356.76 1448.5 1322.03 1447.77 1288.36C1447.36 1278.86 1439.58 1268.9 1433.35 1260.6C1410.23 1228.64 1435.4 1214.66 1461.54 1207.74C1455.05 1026.13 1370.51 864.387 1240.44 754.927Z" fill="white"/>
<path d="M544.096 1650.8C545.642 1648.25 545.066 1644.04 544.642 1640.71C540.445 1596.54 593.151 1620 591.409 1562.66C586.515 1514.32 627.526 1486.8 591.939 1452.33C569.29 1430.75 546.778 1408.98 523.341 1388.29C510.1 1377.52 488.8 1374.16 476.892 1361.72C465.757 1347.85 451.502 1338.95 435.231 1334.88C411.022 1328.83 387.191 1319.27 361.316 1322.06C358.498 1322.36 354.983 1321.5 352.605 1319.94C325.108 1301.99 297.581 1284.05 270.539 1265.41C266.433 1262.58 262.282 1256.17 262.373 1251.47C259.48 1189 272.872 1175.27 333.94 1164.36C366.633 1164.51 349.65 1191.1 362.028 1201.19C364.588 1197.11 367.118 1193.3 364.588 1188.5C354.347 1152.82 383.449 1140.76 403.826 1118.99C430.428 1085.59 456.395 1051.69 482.483 1017.88C490.921 1006.94 499.556 997.387 515.721 1000.6C523.463 1000.82 531.855 992.891 539.233 990.181C549.52 986.564 551.323 983.551 544.566 975.256C535.931 964.629 526.417 954.578 516.372 945.268C478.316 912.192 459.046 968.111 441.533 993.83C436.776 1001.31 429.61 1002.34 424.929 994.708C413.643 976.255 403.098 957.302 393.13 938.108C388.994 930.146 391.766 921.699 399.144 916.749C421.096 904.2 450.668 874.091 476.65 886.806C485.664 895.798 493.496 894.239 502.935 893.346C506.389 882.628 507.752 870.261 525.144 875.922C513.343 859.513 511.479 839.077 488.421 838.563C468.242 834.082 468.287 826.498 446.139 836.095C437.791 838.669 444.109 845.738 443.2 850.658C441.821 858.105 440.094 869.852 435.579 871.442C425.853 874.863 414.036 874.242 403.553 872.486C400.584 871.987 399.22 861.86 396.645 854.836C379.571 860.391 358.649 852.293 339.833 862.934C339.182 863.298 338.47 863.57 337.743 863.812C263.752 964.826 219.545 1089 218.045 1223.42C222.075 1230.07 224.514 1237.53 224.135 1246.19C226.241 1267.7 251.92 1275.94 266.448 1288.51C293.9 1308.5 321.305 1328.52 348.56 1348.41C378.904 1321.11 375.087 1377.71 371.481 1395.01C367.542 1414.01 360.316 1432.31 355.922 1451.24C353.347 1475.24 381.298 1492.98 392.327 1512.52C408.37 1535.09 422.278 1559.12 425.005 1587.29C426.959 1624.39 427.459 1661.61 430.61 1698.4C449.896 1715.26 470.242 1730.96 491.527 1745.37C518.645 1719.03 525.447 1681.68 544.096 1650.8Z" fill="white"/>
<path d="M763.586 820.503C765.282 814.358 766.328 806.895 768.297 800.567C776.008 776.544 742.755 781.085 728.105 780.949C685.928 783.734 643.964 792.59 601.469 784.324C573.715 783.25 562.095 783.31 538.371 798.766C536.492 799.795 535.719 802.823 534.432 804.927C550.157 815.765 616.24 807.394 623.936 825.257C627.299 841.62 629.117 858.499 619.527 873.879C604.09 889.107 624.072 939.985 641.782 910.103C655.962 881.887 689.822 872.047 717.924 864.615C744.497 860.361 747.421 834.082 763.586 820.503Z" fill="white"/>
<path d="M346.303 895.253L352.363 895.374" stroke="#E52741" stroke-width="1.5" stroke-linecap="round" stroke-linejoin="round"/>
<path d="M359.968 895.526L1047.99 908.892" stroke="#E52741" stroke-width="1.5" stroke-linecap="round" stroke-linejoin="round" stroke-dasharray="8.03 8.03"/>
<path d="M1051.79 908.968L1057.85 909.089L1051.87 909.997" stroke="#E52741" stroke-width="1.5" stroke-linecap="round" stroke-linejoin="round"/>
<path d="M1044.32 911.148L420.778 1006.06" stroke="#E52741" stroke-width="1.5" stroke-linecap="round" stroke-linejoin="round" stroke-dasharray="8.05 8.05"/>
<path d="M417.006 1006.64L411.021 1007.54" stroke="#E52741" stroke-width="1.5" stroke-linecap="round" stroke-linejoin="round"/>
<path d="M546.111 1482.37L550.141 1477.84" stroke="#E52741" stroke-width="1.5" stroke-linecap="round" stroke-linejoin="round"/>
<path d="M555.187 1472.19L1051.31 916.431" stroke="#E52741" stroke-width="1.5" stroke-linecap="round" stroke-linejoin="round" stroke-dasharray="8.01 8.01"/>
<path d="M1053.82 913.6L1057.85 909.089L1052.19 911.208" stroke="#E52741" stroke-width="1.5" stroke-linecap="round" stroke-linejoin="round"/>
<path d="M1045.08 913.842L255.708 1208.06" stroke="#E52741" stroke-width="1.5" stroke-linecap="round" stroke-linejoin="round" stroke-dasharray="7.99 7.99"/>
<path d="M252.163 1209.39L246.481 1211.51" stroke="#E52741" stroke-width="1.5" stroke-linecap="round" stroke-linejoin="round"/>
<path d="M984.756 1167.05L986.407 1161.22" stroke="#E52741" stroke-width="1.5" stroke-linecap="round" stroke-linejoin="round"/>
<path d="M988.407 1154.15L1055.2 918.459" stroke="#E52741" stroke-width="1.5" stroke-linecap="round" stroke-linejoin="round" stroke-dasharray="7.78 7.78"/>
<path d="M1056.2 914.917L1057.85 909.089L1054.11 913.842" stroke="#E52741" stroke-width="1.5" stroke-linecap="round" stroke-linejoin="round"/>
<path d="M1049.43 919.776L455.259 1673.13" stroke="#E52741" stroke-width="1.5" stroke-linecap="round" stroke-linejoin="round" stroke-dasharray="7.99 7.99"/>
<path d="M452.911 1676.11L449.169 1680.87" stroke="#E52741" stroke-width="1.5" stroke-linecap="round" stroke-linejoin="round"/>
<path d="M666.854 834.385L672.793 835.52" stroke="#E52741" stroke-width="1.5" stroke-linecap="round" stroke-linejoin="round"/>
<path d="M680.322 836.958L1048.14 907.227" stroke="#E52741" stroke-width="1.5" stroke-linecap="round" stroke-linejoin="round" stroke-dasharray="8.09 8.09"/>
<path d="M1051.9 907.954L1057.85 909.089L1052.13 907.106" stroke="#E52741" stroke-width="1.5" stroke-linecap="round" stroke-linejoin="round"/>
<path d="M1044.82 904.578L877.572 846.616" stroke="#E52741" stroke-width="1.5" stroke-linecap="round" stroke-linejoin="round" stroke-dasharray="8.16 8.16"/>
<path d="M873.921 845.344L868.194 843.361" stroke="#E52741" stroke-width="1.5" stroke-linecap="round" stroke-linejoin="round"/>
<path d="M1296.25 1219.8L1292.57 1215.01" stroke="#E52741" stroke-width="1.5" stroke-linecap="round" stroke-linejoin="round"/>
<path d="M1287.98 1209.03L1063.84 916.885" stroke="#E52741" stroke-width="1.5" stroke-linecap="round" stroke-linejoin="round" stroke-dasharray="7.96 7.96"/>
<path d="M1061.55 913.888L1057.85 909.089L1062.91 912.419" stroke="#E52741" stroke-width="1.5" stroke-linecap="round" stroke-linejoin="round"/>
<path d="M1069.24 916.597L1412.02 1142.72" stroke="#E52741" stroke-width="1.5" stroke-linecap="round" stroke-linejoin="round" stroke-dasharray="8.02 8.02"/>
<path d="M1415.19 1144.81L1420.25 1148.16" stroke="#E52741" stroke-width="1.5" stroke-linecap="round" stroke-linejoin="round"/>
<path d="M1057.85 909.089L1058.7 915.083" stroke="#E52741" stroke-width="1.5" stroke-linecap="round" stroke-linejoin="round"/>
<path d="M1059.76 922.758L1100.98 1218.03" stroke="#E52741" stroke-width="1.5" stroke-linecap="round" stroke-linejoin="round" stroke-dasharray="8.19 8.19"/>
<path d="M1101.51 1221.86L1102.36 1227.87" stroke="#E52741" stroke-width="1.5" stroke-linecap="round" stroke-linejoin="round"/>
<path d="M960.909 1660.55L961.682 1654.54" stroke="#E52741" stroke-width="1.5" stroke-linecap="round" stroke-linejoin="round"/>
<path d="M962.637 1647.14L1056.61 918.792" stroke="#E52741" stroke-width="1.5" stroke-linecap="round" stroke-linejoin="round" stroke-dasharray="7.9 7.9"/>
<path d="M1057.08 915.099L1057.85 909.089L1063.81 907.923" stroke="#E52741" stroke-width="1.5" stroke-linecap="round" stroke-linejoin="round"/>
<path d="M1071.28 906.47L1281.01 865.583" stroke="#E52741" stroke-width="1.5" stroke-linecap="round" stroke-linejoin="round" stroke-dasharray="8.03 8.03"/>
<path d="M1284.75 864.857L1290.69 863.691" stroke="#E52741" stroke-width="1.5" stroke-linecap="round" stroke-linejoin="round"/>
<path d="M1379.34 963.282L1373.36 962.268" stroke="#E52741" stroke-width="1.5" stroke-linecap="round" stroke-linejoin="round"/>
<path d="M1366.1 961.041L1067.47 910.709" stroke="#E52741" stroke-width="1.5" stroke-linecap="round" stroke-linejoin="round" stroke-dasharray="7.78 7.78"/>
<path d="M1063.84 910.088L1057.85 909.089L1063.28 911.799" stroke="#E52741" stroke-width="1.5" stroke-linecap="round" stroke-linejoin="round"/>
<path d="M1070.08 915.189L1207.97 984.081" stroke="#E52741" stroke-width="1.5" stroke-linecap="round" stroke-linejoin="round" stroke-dasharray="8.02 8.02"/>
<path d="M1211.36 985.776L1216.79 988.486" stroke="#E52741" stroke-width="1.5" stroke-linecap="round" stroke-linejoin="round"/>
<path d="M763.6 1049.49L769.069 1046.89" stroke="#E52741" stroke-width="1.5" stroke-linecap="round" stroke-linejoin="round"/>
<path d="M775.719 1043.71L1049.06 913.282" stroke="#E52741" stroke-width="1.5" stroke-linecap="round" stroke-linejoin="round" stroke-dasharray="7.78 7.78"/>
<path d="M1052.38 911.693L1057.85 909.089" stroke="#E52741" stroke-width="1.5" stroke-linecap="round" stroke-linejoin="round"/>
<path d="M1055.6 909.24L1059.41 904.548" stroke="#E52741" stroke-width="1.5" stroke-linecap="round" stroke-linejoin="round"/>
<path d="M1064.52 898.25L1141.78 803.141" stroke="#E52741" stroke-width="1.5" stroke-linecap="round" stroke-linejoin="round" stroke-dasharray="8.57 8.57"/>
<path d="M1144.34 799.992L1148.16 795.284" stroke="#E52741" stroke-width="1.5" stroke-linecap="round" stroke-linejoin="round"/>
<path d="M932.549 997.75L937.488 994.253" stroke="#E52741" stroke-width="1.5" stroke-linecap="round" stroke-linejoin="round"/>
<path d="M943.501 990L1049.91 914.705" stroke="#E52741" stroke-width="1.5" stroke-linecap="round" stroke-linejoin="round" stroke-dasharray="7.78 7.78"/>
<path d="M1052.91 912.586L1057.85 909.089" stroke="#E52741" stroke-width="1.5" stroke-linecap="round" stroke-linejoin="round"/>
<path d="M1058 915C1061.31 915 1064 912.314 1064 909C1064 905.686 1061.31 903 1058 903C1054.69 903 1052 905.686 1052 909C1052 912.314 1054.69 915 1058 915Z" fill="#E93842" stroke="#E52741" stroke-width="0.5" stroke-miterlimit="10"/>
<path d="M1418.5 1152C1421.54 1152 1424 1149.54 1424 1146.5C1424 1143.46 1421.54 1141 1418.5 1141C1415.46 1141 1413 1143.46 1413 1146.5C1413 1149.54 1415.46 1152 1418.5 1152Z" fill="#E93842" stroke="#E52741" stroke-width="0.5" stroke-miterlimit="10"/>
<path d="M1294 1224C1297.31 1224 1300 1221.31 1300 1218C1300 1214.69 1297.31 1212 1294 1212C1290.69 1212 1288 1214.69 1288 1218C1288 1221.31 1290.69 1224 1294 1224Z" fill="#E93842" stroke="#E52741" stroke-width="0.5" stroke-miterlimit="10"/>
<path d="M1103 1231C1106.31 1231 1109 1228.54 1109 1225.5C1109 1222.46 1106.31 1220 1103 1220C1099.69 1220 1097 1222.46 1097 1225.5C1097 1228.54 1099.69 1231 1103 1231Z" fill="#E93842" stroke="#E52741" stroke-width="0.5" stroke-miterlimit="10"/>
<path d="M961 1664C964.314 1664 967 1661.31 967 1658C967 1654.69 964.314 1652 961 1652C957.686 1652 955 1654.69 955 1658C955 1661.31 957.686 1664 961 1664Z" fill="#E93842" stroke="#E52741" stroke-width="0.5" stroke-miterlimit="10"/>
<path d="M549 1486C552.314 1486 555 1483.31 555 1480C555 1476.69 552.314 1474 549 1474C545.686 1474 543 1476.69 543 1480C543 1483.31 545.686 1486 549 1486Z" fill="#E93842" stroke="#E52741" stroke-width="0.5" stroke-miterlimit="10"/>
<path d="M248.5 1216C251.538 1216 254 1213.31 254 1210C254 1206.69 251.538 1204 248.5 1204C245.462 1204 243 1206.69 243 1210C243 1213.31 245.462 1216 248.5 1216Z" fill="#E93842" stroke="#E52741" stroke-width="0.5" stroke-miterlimit="10"/>
<path d="M414 1013C417.314 1013 420 1010.54 420 1007.5C420 1004.46 417.314 1002 414 1002C410.686 1002 408 1004.46 408 1007.5C408 1010.54 410.686 1013 414 1013Z" fill="#E93842" stroke="#E52741" stroke-width="0.5" stroke-miterlimit="10"/>
<path d="M348 901C351.314 901 354 898.314 354 895C354 891.686 351.314 889 348 889C344.686 889 342 891.686 342 895C342 898.314 344.686 901 348 901Z" fill="#E93842" stroke="#E52741" stroke-width="0.5" stroke-miterlimit="10"/>
<path d="M655 838C658.314 838 661 835.538 661 832.5C661 829.462 658.314 827 655 827C651.686 827 649 829.462 649 832.5C649 835.538 651.686 838 655 838Z" fill="#E93842" stroke="#E52741" stroke-width="0.5" stroke-miterlimit="10"/>
<path d="M870 849C873.314 849 876 846.538 876 843.5C876 840.462 873.314 838 870 838C866.686 838 864 840.462 864 843.5C864 846.538 866.686 849 870 849Z" fill="#E93842" stroke="#E52741" stroke-width="0.5" stroke-miterlimit="10"/>
<path d="M766 1055C769.314 1055 772 1052.54 772 1049.5C772 1046.46 769.314 1044 766 1044C762.686 1044 760 1046.46 760 1049.5C760 1052.54 762.686 1055 766 1055Z" fill="#E93842" stroke="#E52741" stroke-width="0.5" stroke-miterlimit="10"/>
<path d="M922 1010C925.314 1010 928 1007.54 928 1004.5C928 1001.46 925.314 999 922 999C918.686 999 916 1001.46 916 1004.5C916 1007.54 918.686 1010 922 1010Z" fill="#E93842" stroke="#E52741" stroke-width="0.5" stroke-miterlimit="10"/>
<path d="M986 1171C989.314 1171 992 1168.31 992 1165C992 1161.69 989.314 1159 986 1159C982.686 1159 980 1161.69 980 1165C980 1168.31 982.686 1171 986 1171Z" fill="#E93842" stroke="#E52741" stroke-width="0.5" stroke-miterlimit="10"/>
<path d="M1216.5 994C1219.54 994 1222 991.538 1222 988.5C1222 985.462 1219.54 983 1216.5 983C1213.46 983 1211 985.462 1211 988.5C1211 991.538 1213.46 994 1216.5 994Z" fill="#E93842" stroke="#E52741" stroke-width="0.5" stroke-miterlimit="10"/>
<path d="M451.5 1685C454.538 1685 457 1682.31 457 1679C457 1675.69 454.538 1673 451.5 1673C448.462 1673 446 1675.69 446 1679C446 1682.31 448.462 1685 451.5 1685Z" fill="#E93842" stroke="#E52741" stroke-width="0.5" stroke-miterlimit="10"/>
<path d="M1376 969C1379.31 969 1382 966.314 1382 963C1382 959.686 1379.31 957 1376 957C1372.69 957 1370 959.686 1370 963C1370 966.314 1372.69 969 1376 969Z" fill="#E93842" stroke="#E52741" stroke-width="0.5" stroke-miterlimit="10"/>
<path d="M1288 870C1291.31 870 1294 867.314 1294 864C1294 860.686 1291.31 858 1288 858C1284.69 858 1282 860.686 1282 864C1282 867.314 1284.69 870 1288 870Z" fill="#E93842" stroke="#E52741" stroke-width="0.5" stroke-miterlimit="10"/>
<path d="M1145.5 801C1148.54 801 1151 798.314 1151 795C1151 791.686 1148.54 789 1145.5 789C1142.46 789 1140 791.686 1140 795C1140 798.314 1142.46 801 1145.5 801Z" fill="#E93842" stroke="#E52741" stroke-width="0.5" stroke-miterlimit="10"/>
<path d="M813.823 635.315C813.823 635.315 799.331 630.176 790.827 618.355C783.955 608.797 781.061 599.97 787.916 597.684C793.674 595.76 805.434 591.542 815.236 596.191C817.098 597.074 818.884 598.276 820.552 599.872" fill="white"/>
<path d="M847.8 664.724L846.226 671.696L845.96 682.013L849.332 687.389L844.63 684.365L843.423 690L842.761 684.153L837.266 686.111L842.779 680.918L843.976 671.386L845.601 664.458L847.8 664.724Z" fill="#DC4B64"/>
<path d="M860.327 664.417L862.232 671.305L862.983 681.596L859.87 687.129L864.421 683.883L865.894 689.452L866.279 683.576L871.861 685.263L866.11 680.347L864.464 670.885L862.509 664.045L860.327 664.417Z" fill="#DC4B64"/>
<path d="M894.572 622.372C895.136 645.511 877.136 664.735 854.362 665.309C831.589 665.882 812.669 647.593 812.104 624.454C811.54 601.318 820.698 555.335 851.652 554.558C882.606 553.772 894.004 599.236 894.572 622.372Z" fill="white"/>
<path d="M846.181 560.974C844.74 561.135 838.037 551.643 846.602 547.589C855.171 543.536 856.159 552.662 856.159 552.662C856.159 552.662 853.481 543.357 861.924 545.256C866.629 546.315 863.146 553.023 863.146 553.023C863.146 553.023 865.332 547.889 868.703 551.165C872.251 554.612 868.049 559.152 866.162 557.866C857.805 554.112 848.917 558.414 846.181 560.974Z" fill="#DC4B64"/>
<path d="M860.797 591.264C860.79 595.485 863.263 598.97 866.325 599.043C869.388 599.116 871.875 595.756 871.882 591.534C871.889 587.312 869.416 583.828 866.354 583.755C863.295 583.678 860.805 587.042 860.797 591.264Z" fill="black" stroke="black" stroke-miterlimit="10" stroke-linecap="square" stroke-linejoin="round"/>
<path d="M864.81 585.439C864.799 585.439 864.789 585.439 864.778 585.439C863.789 585.464 863.017 586.585 863.049 587.948C863.081 589.295 863.89 590.369 864.861 590.369C864.871 590.369 864.882 590.369 864.893 590.369C865.881 590.343 866.654 589.222 866.622 587.86C866.593 586.516 865.784 585.439 864.81 585.439Z" fill="white" stroke="white" stroke-miterlimit="30"/>
<path d="M831.81 591.264C831.803 595.485 834.276 598.969 837.338 599.042C840.4 599.115 842.887 595.756 842.895 591.534C842.902 587.312 840.429 583.828 837.367 583.755C834.304 583.682 831.817 587.042 831.81 591.264Z" fill="black" stroke="black" stroke-miterlimit="10" stroke-linecap="square" stroke-linejoin="round"/>
<path d="M835.456 585.449C835.445 585.449 835.434 585.449 835.423 585.449C834.438 585.475 833.662 586.596 833.694 587.958C833.727 589.306 834.535 590.38 835.506 590.38C835.517 590.38 835.527 590.38 835.538 590.38C836.527 590.354 837.299 589.233 837.267 587.871C837.238 586.523 836.43 585.449 835.456 585.449Z" fill="white" stroke="white" stroke-miterlimit="30"/>
<path d="M815.238 596.19C817.1 597.073 818.886 598.275 820.554 599.871L815.238 596.19Z" fill="white"/>
<path d="M815.242 596.172C815.771 596.315 816.274 596.534 816.759 596.786C817.244 597.038 817.683 597.367 818.122 597.695C818.999 598.345 819.814 599.072 820.566 599.861L820.54 599.886C819.721 599.174 818.862 598.521 817.96 597.936C817.507 597.644 817.036 597.392 816.583 597.104C816.13 596.811 815.677 596.53 815.232 596.209L815.242 596.172Z" fill="#B2B2B2"/>
<path d="M892.589 635.315C892.589 635.315 907.082 630.176 915.586 618.355C922.458 608.797 925.351 599.97 918.497 597.684C912.739 595.76 900.978 591.542 891.177 596.191C889.315 597.074 887.529 598.276 885.861 599.872" fill="white"/>
<path d="M891.175 596.188C889.313 597.072 887.526 598.273 885.859 599.869L891.175 596.188Z" fill="white"/>
<path d="M891.184 596.209C890.738 596.53 890.282 596.815 889.833 597.104C889.38 597.392 888.909 597.644 888.456 597.936C887.554 598.521 886.695 599.174 885.875 599.886L885.85 599.861C886.598 599.072 887.414 598.342 888.294 597.695C888.729 597.367 889.171 597.042 889.656 596.786C890.142 596.534 890.641 596.315 891.173 596.172L891.184 596.209Z" fill="#B2B2B2"/>
<path d="M853.125 608.549C854.286 608.377 860.608 602.538 860.159 602.037C859.71 601.537 849.689 603.352 849.283 604.265C848.876 605.174 851.964 608.72 853.125 608.549Z" fill="#DC4B64"/>
<path d="M852.703 597.001C851.233 596.636 842.229 601.267 842.682 602.169C843.135 603.074 856.905 606.423 860.129 602.19C860.869 601.219 854.173 597.366 852.703 597.001Z" fill="#DC4B64"/>
<path d="M849.586 603.998C850.506 604.093 851.426 604.152 852.346 604.166C853.267 604.188 854.187 604.166 855.1 604.071C856.013 603.973 856.908 603.79 857.77 603.52C858.633 603.257 859.452 602.844 860.11 602.183C860.117 602.176 860.128 602.176 860.135 602.183C860.142 602.191 860.142 602.198 860.139 602.205C859.632 603.016 858.759 603.538 857.882 603.867C856.99 604.196 856.049 604.301 855.121 604.364C853.259 604.48 851.405 604.32 849.579 604.035C849.568 604.035 849.561 604.024 849.564 604.013C849.568 604.002 849.575 603.998 849.586 603.998Z" fill="#660011"/>
<path d="M835.482 608.618C837.312 608.618 838.796 607.11 838.796 605.251C838.796 603.391 837.312 601.884 835.482 601.884C833.652 601.884 832.168 603.391 832.168 605.251C832.168 607.11 833.652 608.618 835.482 608.618Z" fill="#FFBDBD"/>
<path d="M868.707 608.618C870.537 608.618 872.021 607.11 872.021 605.251C872.021 603.391 870.537 601.884 868.707 601.884C866.877 601.884 865.393 603.391 865.393 605.251C865.393 607.11 866.877 608.618 868.707 608.618Z" fill="#FFBDBD"/>
</svg>
