<svg width="1464" height="1737" viewBox="0 0 1464 1737" fill="none" xmlns="http://www.w3.org/2000/svg">
<path d="M852.108 503.2C857.298 486.357 863.013 470.825 868.997 455.358C877.174 434.223 885.055 413.002 893.203 391.86C894.25 389.137 894.111 387.384 892.108 385.28C878.669 371.17 865.227 357.054 852.126 342.653C832.558 321.149 813.211 299.454 800.215 273.274C792.483 257.705 786.433 241.555 785.728 223.703C785.457 216.701 786.298 209.731 791.65 203.956C797.712 197.406 805.584 196.656 813.554 197.504C828.456 199.084 841.513 204.891 854.242 211.551C873.85 221.806 891.233 234.676 906.853 249.693C916.451 258.916 926.065 268.139 935.322 277.676C945.262 287.909 955.464 297.877 965.992 307.562C968.239 309.625 970.227 309.666 973.131 309.213C1010.02 303.424 1046.55 294.921 1083.35 288.485C1088.98 287.501 1094.67 286.919 1100.5 285.552C1098.09 281.769 1094.36 279.429 1092.28 275.689C1089.59 270.844 1090.26 265.998 1094.2 262.202C1101.51 255.152 1108.82 247.932 1117.43 242.324C1125.42 237.117 1129.37 237.489 1135.68 243.81C1142.76 250.9 1149.5 258.3 1156.15 265.765C1160.39 270.522 1161.74 271.048 1168.32 269.255C1176.64 266.986 1184.95 264.465 1193.37 262.788C1224.74 256.524 1255.49 247.182 1286.66 239.977C1292.15 238.71 1293.88 237.683 1296.88 242.014C1299.18 245.335 1304.39 249.826 1307.18 252.836C1310.41 256.331 1310.28 256.84 1305.95 259.403C1282.76 273.122 1259.87 287.403 1236.28 300.395C1202.58 318.953 1170.05 339.423 1136.65 358.451C1121.95 366.831 1107.31 375.37 1093.17 384.615C1085.03 389.938 1077.92 396.804 1070.41 403.024C1066.99 405.859 1063.71 408.861 1060.31 411.716C1058.96 412.843 1058.64 413.567 1059.79 415.098C1063.79 420.452 1067.84 425.764 1072.34 430.738C1080.79 440.075 1088.09 450.272 1095.85 460.131C1103.52 469.893 1111.51 479.423 1119.25 489.134C1126.48 498.202 1133.53 507.399 1140.74 516.486C1147.86 525.471 1155.07 534.386 1162.23 543.329C1162.49 543.651 1162.92 543.876 1163.06 544.237C1165.89 551.279 1171.36 550.286 1177.74 548.212C1185.68 545.629 1193.76 543.44 1201.86 541.532C1230.96 534.67 1259.22 524.322 1288.31 517.466C1292.17 516.56 1294.48 517.248 1296.86 519.938C1302.22 525.993 1307.88 531.81 1313.57 537.578C1315.73 539.763 1315.96 540.907 1312.62 542.729C1288.37 555.973 1264.39 569.719 1239.96 582.622C1229.14 588.336 1218.34 594.079 1207.51 599.776C1203.55 601.862 1203.65 603.668 1205.28 606.517C1214.04 621.847 1222.34 637.434 1229.2 653.731C1231.17 658.404 1233.62 662.912 1234.6 668.338C1231.27 668.217 1228.6 666.848 1226.02 665.583C1207.22 656.361 1189.38 645.717 1171.93 634.502C1169.72 633.079 1168.84 632.791 1166.96 635.418C1160.47 644.45 1153.09 652.965 1146.9 662.155C1130.89 685.98 1112.52 708.343 1096.4 732.096C1094.87 734.362 1093.94 734.251 1092.3 732.489C1086.21 725.967 1080.05 719.51 1073.76 713.169C1072.01 711.404 1071.62 709.904 1072.66 707.408C1082.73 683.041 1093.07 658.748 1102.45 634.18C1107.3 621.473 1112.41 608.849 1117.41 596.194C1118.13 594.344 1117.82 593.457 1116.3 592.144C1105.12 582.577 1094.13 572.812 1083.07 563.104C1072.64 553.943 1062.19 544.801 1051.79 535.603C1041.51 526.494 1031.26 517.334 1021.01 508.172C1009.95 498.274 998.885 488.388 987.91 478.408C986.354 476.992 985.32 477.414 983.862 478.602C977.087 484.11 971.239 490.577 964.545 496.102C945.268 512.005 933.165 533.047 918.132 551.967C898.816 576.279 879.68 600.732 861.262 625.626C852.559 637.394 843.94 649.213 834.967 660.806C825.118 673.529 814.953 686.036 804.918 698.636C803.51 700.403 802.419 700.93 800.593 698.991C796.574 694.71 792.324 690.602 787.884 686.713C785.714 684.809 785.911 682.87 786.676 680.452C791.924 663.933 798.223 647.693 804.379 631.41C808.484 620.548 813.173 609.814 816.509 598.792C820.211 586.576 825.49 574.827 829.469 562.708C830.311 560.146 830.179 558.5 828.317 556.492C820.121 547.649 811.25 539.372 803.952 529.772C800.445 525.167 800.046 520.903 803.943 516.122C811.213 507.215 820.017 499.727 829.824 493.506C835.118 490.144 840.598 491.662 846.261 497.098C848.043 498.787 849.658 500.631 852.108 503.2Z" fill="#878787"/>
<path d="M622 1736.01C965.521 1736.01 1244 1457.76 1244 1114.51C1244 771.258 965.521 493 622 493C278.479 493 0 771.258 0 1114.51C0 1457.76 278.479 1736.01 622 1736.01Z" fill="#B6D3FF"/>
<path d="M174.312 1396.52C163.283 1376.98 135.332 1359.24 137.907 1335.24C142.316 1316.31 149.527 1298.01 153.466 1279.01C157.072 1261.71 160.889 1205.11 130.545 1232.41C103.29 1212.52 75.8847 1192.5 48.4335 1172.51C33.905 1159.94 8.21112 1151.69 6.12047 1130.19C6.49921 1121.53 4.06011 1114.07 0.0302993 1107.42C0.0151497 1109.78 0 1112.15 0 1114.51C0 1301.11 82.3082 1468.49 212.61 1582.4C209.459 1545.61 208.959 1508.39 207.005 1471.29C204.263 1443.12 190.356 1419.11 174.312 1396.52Z" fill="#B6D3FF"/>
<path d="M1022.44 638.927C1019.18 638.564 1015.88 638.609 1012.53 639.23C938.097 654.837 864.955 676.408 793.388 702.793C778.692 707.894 764.876 707.576 750.665 700.174C728.002 690.804 701.02 676.12 677.205 689.411C659.677 699.069 602.835 747.631 614.864 769.156C663.085 801.278 640.83 783.174 670.024 767.643C648.996 749.326 668.857 733.129 676.584 715.917C686.037 696.556 714.231 720.549 699.657 734.658C697.127 737.867 694.036 740.955 692.657 744.694C688.779 760.755 700.975 756.804 710.489 753.943C722.472 753.655 729.941 763.071 726.502 774.636C716.503 802.52 679.22 826.104 651.632 819.398C635.149 815.387 623.469 821.957 611.895 830.055C595.487 841.545 580.277 854.926 564.4 867.627C573.263 877.088 579.383 889.122 572.081 903.488C562.673 924.348 541.585 902.898 529.889 917.838C523.027 926.073 522.754 944.254 529.601 951.035C534.434 954.245 543.221 953.578 549.251 951.429C564.476 940.908 575.126 921.26 590.018 909.664C617.227 887.124 639.649 921.986 655.51 941.968C656.556 941.62 657.601 941.272 658.646 940.923C658.843 921.441 623.939 898.962 645.103 883.037C652.071 878.526 655.45 883.597 660.237 887.926C676.705 902.792 691.233 918.656 695.763 941.983C696.324 944.859 698.717 947.327 701.278 951.747C701.187 935.307 704.156 924.817 720.518 927.027C739.955 928.965 718.079 958.589 745.499 962.419C760.437 965.658 789.282 951.081 787.191 977.572C784.01 993.3 786.449 1020.74 765.649 1022.14C746.954 1023.94 728.85 1023.21 712.322 1012.3C704.611 1007.2 697.899 1004.91 694.43 1017.78C691.93 1027.06 684.613 1027.86 676.947 1024.39C668.509 1020.59 660.358 1016.07 651.844 1012.43C616.5 999.355 641.012 964.462 618.53 969.594C593.154 975.589 567.885 982.037 542.342 987.245C529.359 996.494 519.557 1010.9 517.482 1027.77C516.679 1032.7 513.71 1038.53 509.937 1041.45C494.682 1053.24 487.228 1070.47 479.88 1087.43C473.563 1109.72 474.866 1134.97 472.972 1158.22C472.715 1165.48 471.609 1174 474.623 1179.84C484.41 1198.79 495.818 1216.84 506.832 1235.08C513.316 1245.81 521.057 1253.41 534.222 1244.93C536.07 1243.75 539.115 1243.36 541.206 1244.01C564.703 1253.03 585.64 1216.26 604.547 1243.43C607.334 1246.84 612.713 1249.6 616.97 1249.7C635.18 1248.78 636.24 1271.45 634.346 1284.81C627.196 1333.14 679.098 1362.98 652.496 1424.07C632.316 1469.21 676.629 1490.56 668.509 1545.55C666.812 1566.93 672.826 1584.59 693.642 1593.14C709.261 1648.78 757.74 1560.92 760.907 1537.06C762.179 1530.63 765.164 1522.62 769.921 1519.29C793.054 1503.41 759.483 1480.01 789.434 1457.07C823.551 1434.12 805.901 1395.66 804.932 1361.6C800.19 1328.98 833.201 1294.96 849.805 1268.93C866.257 1247.45 872.317 1222.89 877.771 1195.8C852.971 1205.21 843.033 1209.72 825.959 1185.37C807.553 1164.34 771.587 1080.87 785.616 1056.5C793.418 1060 796.569 1066.99 799.69 1074.66C812.537 1100.02 825.414 1125.36 838.276 1150.7C852.911 1186.12 903.102 1139.42 914.979 1120.49C924.493 1105.58 917.448 1087.2 900.253 1087.06C882.937 1086.93 874.287 1081.61 868.424 1065.46C860.258 1045.74 844.381 1042.07 860.637 1019.46C882.71 1025.27 881.922 1049.58 899.147 1050.41C907.858 1046.05 912.373 1049.05 916.933 1056.45C927.917 1066.1 945.869 1060.22 959.367 1063.11C979.729 1062.24 987.47 1085.31 1000.5 1097.81C1001.1 1096.34 1001.71 1094.89 1002.32 1093.42C1050.49 1099.55 1017.39 1119.43 1021.59 1143.13C1028.62 1166.14 1035.8 1189.33 1044.99 1211.52C1046.64 1211.48 1048.3 1211.43 1049.93 1211.39C1051.73 1197.39 1055.3 1183.32 1054.8 1169.41C1054.42 1158.75 1056.76 1150.9 1063.02 1143.3C1071.61 1132.87 1082.7 1123.44 1087.72 1111.34C1093.37 1097.72 1102.73 1094.42 1114.06 1091.35C1122.54 1089.05 1127.71 1091.41 1130.27 1100.72C1134.36 1115.66 1139.18 1130.37 1143.68 1145.15C1154.59 1138.53 1157.99 1139.41 1161.18 1152.43C1168.8 1183.5 1175.34 1214.87 1183.01 1245.93C1185.76 1258.21 1198.82 1294.86 1211.75 1271.48C1225.88 1240.76 1230.5 1206.03 1229.77 1172.36C1229.36 1162.86 1221.58 1152.9 1215.35 1144.6C1192.23 1112.65 1217.4 1098.66 1243.54 1091.74C1237.05 910.133 1152.51 748.387 1022.44 638.927Z" fill="white"/>
<path d="M326.096 1534.8C327.642 1532.25 327.066 1528.04 326.642 1524.71C322.445 1480.54 375.151 1504 373.409 1446.66C368.516 1398.32 409.526 1370.8 373.939 1336.33C351.29 1314.75 328.778 1292.98 305.341 1272.29C292.101 1261.52 270.8 1258.16 258.893 1245.72C247.758 1231.85 233.502 1222.95 217.231 1218.88C193.022 1212.83 169.191 1203.27 143.316 1206.06C140.498 1206.36 136.983 1205.5 134.605 1203.94C107.108 1185.99 79.581 1168.05 52.5389 1149.41C48.4333 1146.58 44.2823 1140.17 44.3732 1135.47C41.4796 1073 54.8719 1059.27 115.94 1048.36C148.633 1048.51 131.65 1075.1 144.028 1085.19C146.588 1081.11 149.118 1077.3 146.588 1072.5C136.347 1036.82 165.449 1024.76 185.826 1002.99C212.428 969.594 238.395 935.686 264.483 901.883C272.921 890.939 281.556 881.387 297.721 884.596C305.463 884.823 313.855 876.891 321.233 874.181C331.52 870.564 333.323 867.551 326.566 859.256C317.931 848.629 308.417 838.578 298.373 829.268C260.317 796.192 241.046 852.111 223.533 877.83C218.776 885.308 211.61 886.337 206.929 878.708C195.643 860.255 185.098 841.302 175.13 822.108C170.994 814.146 173.767 805.699 181.144 800.749C203.096 788.2 232.668 758.091 258.65 770.806C267.664 779.798 275.497 778.239 284.935 777.346C288.389 766.628 289.752 754.261 307.144 759.922C295.343 743.513 293.479 723.077 270.421 722.563C250.242 718.082 250.287 710.498 228.139 720.095C219.791 722.669 226.109 729.738 225.2 734.658C223.821 742.105 222.094 753.852 217.579 755.442C207.853 758.863 196.037 758.242 185.553 756.486C182.584 755.987 181.22 745.86 178.645 738.836C161.571 744.391 140.649 736.293 121.833 746.934C121.182 747.298 120.47 747.57 119.743 747.812C45.7518 848.826 1.54508 973 0.045258 1107.42C4.07507 1114.07 6.51417 1121.53 6.13543 1130.19C8.24123 1151.7 33.9199 1159.94 48.4485 1172.51C75.8997 1192.5 103.305 1212.52 130.56 1232.41C160.904 1205.11 157.087 1261.71 153.481 1279.01C149.542 1298.01 142.316 1316.31 137.922 1335.24C135.347 1359.24 163.298 1376.98 174.327 1396.52C190.371 1419.09 204.278 1443.12 207.005 1471.29C208.959 1508.39 209.459 1545.61 212.61 1582.4C231.896 1599.26 252.242 1614.96 273.527 1629.37C300.645 1603.03 307.447 1565.68 326.096 1534.8Z" fill="white"/>
<path d="M545.586 704.503C547.282 698.358 548.328 690.895 550.297 684.567C558.008 660.544 524.755 665.085 510.105 664.949C467.928 667.734 425.964 676.59 383.469 668.324C355.715 667.25 344.095 667.31 320.371 682.766C318.492 683.795 317.719 686.823 316.432 688.927C332.157 699.765 398.24 691.394 405.936 709.257C409.299 725.621 411.117 742.499 401.527 757.879C386.09 773.107 406.072 823.985 423.782 794.103C437.962 765.887 471.822 756.047 499.925 748.615C526.497 744.361 529.421 718.082 545.586 704.503Z" fill="white"/>
<path d="M128.303 779.253L134.363 779.374" stroke="#E52741" stroke-width="1.5" stroke-linecap="round" stroke-linejoin="round"/>
<path d="M141.967 779.526L829.99 792.892" stroke="#E52741" stroke-width="1.5" stroke-linecap="round" stroke-linejoin="round" stroke-dasharray="8.03 8.03"/>
<path d="M833.792 792.968L839.852 793.089L833.868 793.997" stroke="#E52741" stroke-width="1.5" stroke-linecap="round" stroke-linejoin="round"/>
<path d="M826.323 795.148L202.778 890.061" stroke="#E52741" stroke-width="1.5" stroke-linecap="round" stroke-linejoin="round" stroke-dasharray="8.05 8.05"/>
<path d="M199.006 890.636L193.022 891.544" stroke="#E52741" stroke-width="1.5" stroke-linecap="round" stroke-linejoin="round"/>
<path d="M328.111 1366.37L332.141 1361.84" stroke="#E52741" stroke-width="1.5" stroke-linecap="round" stroke-linejoin="round"/>
<path d="M337.187 1356.19L833.308 800.431" stroke="#E52741" stroke-width="1.5" stroke-linecap="round" stroke-linejoin="round" stroke-dasharray="8.01 8.01"/>
<path d="M835.823 797.6L839.852 793.089L834.186 795.208" stroke="#E52741" stroke-width="1.5" stroke-linecap="round" stroke-linejoin="round"/>
<path d="M827.081 797.842L37.7076 1092.06" stroke="#E52741" stroke-width="1.5" stroke-linecap="round" stroke-linejoin="round" stroke-dasharray="7.99 7.99"/>
<path d="M34.1626 1093.39L28.4814 1095.51" stroke="#E52741" stroke-width="1.5" stroke-linecap="round" stroke-linejoin="round"/>
<path d="M766.756 1051.05L768.407 1045.22" stroke="#E52741" stroke-width="1.5" stroke-linecap="round" stroke-linejoin="round"/>
<path d="M770.407 1038.15L837.202 802.459" stroke="#E52741" stroke-width="1.5" stroke-linecap="round" stroke-linejoin="round" stroke-dasharray="7.78 7.78"/>
<path d="M838.201 798.917L839.852 793.089L836.11 797.842" stroke="#E52741" stroke-width="1.5" stroke-linecap="round" stroke-linejoin="round"/>
<path d="M831.429 803.776L237.259 1557.13" stroke="#E52741" stroke-width="1.5" stroke-linecap="round" stroke-linejoin="round" stroke-dasharray="7.99 7.99"/>
<path d="M234.911 1560.11L231.169 1564.87" stroke="#E52741" stroke-width="1.5" stroke-linecap="round" stroke-linejoin="round"/>
<path d="M448.854 718.385L454.793 719.52" stroke="#E52741" stroke-width="1.5" stroke-linecap="round" stroke-linejoin="round"/>
<path d="M462.322 720.958L830.141 791.227" stroke="#E52741" stroke-width="1.5" stroke-linecap="round" stroke-linejoin="round" stroke-dasharray="8.09 8.09"/>
<path d="M833.899 791.954L839.853 793.089L834.126 791.106" stroke="#E52741" stroke-width="1.5" stroke-linecap="round" stroke-linejoin="round"/>
<path d="M826.824 788.578L659.572 730.616" stroke="#E52741" stroke-width="1.5" stroke-linecap="round" stroke-linejoin="round" stroke-dasharray="8.16 8.16"/>
<path d="M655.921 729.344L650.194 727.361" stroke="#E52741" stroke-width="1.5" stroke-linecap="round" stroke-linejoin="round"/>
<path d="M1078.25 1103.8L1074.57 1099.01" stroke="#E52741" stroke-width="1.5" stroke-linecap="round" stroke-linejoin="round"/>
<path d="M1069.98 1093.03L845.836 800.885" stroke="#E52741" stroke-width="1.5" stroke-linecap="round" stroke-linejoin="round" stroke-dasharray="7.96 7.96"/>
<path d="M843.548 797.888L839.852 793.089L844.912 796.419" stroke="#E52741" stroke-width="1.5" stroke-linecap="round" stroke-linejoin="round"/>
<path d="M851.244 800.597L1194.02 1026.72" stroke="#E52741" stroke-width="1.5" stroke-linecap="round" stroke-linejoin="round" stroke-dasharray="8.02 8.02"/>
<path d="M1197.19 1028.81L1202.25 1032.16" stroke="#E52741" stroke-width="1.5" stroke-linecap="round" stroke-linejoin="round"/>
<path d="M839.852 793.089L840.7 799.084" stroke="#E52741" stroke-width="1.5" stroke-linecap="round" stroke-linejoin="round"/>
<path d="M841.761 806.758L882.983 1102.03" stroke="#E52741" stroke-width="1.5" stroke-linecap="round" stroke-linejoin="round" stroke-dasharray="8.19 8.19"/>
<path d="M883.513 1105.86L884.361 1111.87" stroke="#E52741" stroke-width="1.5" stroke-linecap="round" stroke-linejoin="round"/>
<path d="M742.909 1544.55L743.682 1538.54" stroke="#E52741" stroke-width="1.5" stroke-linecap="round" stroke-linejoin="round"/>
<path d="M744.637 1531.14L838.61 802.792" stroke="#E52741" stroke-width="1.5" stroke-linecap="round" stroke-linejoin="round" stroke-dasharray="7.9 7.9"/>
<path d="M839.079 799.099L839.852 793.089L845.805 791.923" stroke="#E52741" stroke-width="1.5" stroke-linecap="round" stroke-linejoin="round"/>
<path d="M853.275 790.47L1063.01 749.583" stroke="#E52741" stroke-width="1.5" stroke-linecap="round" stroke-linejoin="round" stroke-dasharray="8.03 8.03"/>
<path d="M1066.75 748.857L1072.69 747.691" stroke="#E52741" stroke-width="1.5" stroke-linecap="round" stroke-linejoin="round"/>
<path d="M1161.34 847.282L1155.36 846.268" stroke="#E52741" stroke-width="1.5" stroke-linecap="round" stroke-linejoin="round"/>
<path d="M1148.1 845.041L849.472 794.709" stroke="#E52741" stroke-width="1.5" stroke-linecap="round" stroke-linejoin="round" stroke-dasharray="7.78 7.78"/>
<path d="M845.836 794.088L839.852 793.089L845.275 795.799" stroke="#E52741" stroke-width="1.5" stroke-linecap="round" stroke-linejoin="round"/>
<path d="M852.078 799.19L989.97 868.081" stroke="#E52741" stroke-width="1.5" stroke-linecap="round" stroke-linejoin="round" stroke-dasharray="8.02 8.02"/>
<path d="M993.363 869.776L998.787 872.486" stroke="#E52741" stroke-width="1.5" stroke-linecap="round" stroke-linejoin="round"/>
<path d="M545.6 933.491L551.069 930.887" stroke="#E52741" stroke-width="1.5" stroke-linecap="round" stroke-linejoin="round"/>
<path d="M557.719 927.708L831.064 797.282" stroke="#E52741" stroke-width="1.5" stroke-linecap="round" stroke-linejoin="round" stroke-dasharray="7.78 7.78"/>
<path d="M834.382 795.693L839.851 793.089" stroke="#E52741" stroke-width="1.5" stroke-linecap="round" stroke-linejoin="round"/>
<path d="M837.596 793.24L841.413 788.548" stroke="#E52741" stroke-width="1.5" stroke-linecap="round" stroke-linejoin="round"/>
<path d="M846.52 782.251L923.783 687.141" stroke="#E52741" stroke-width="1.5" stroke-linecap="round" stroke-linejoin="round" stroke-dasharray="8.57 8.57"/>
<path d="M926.343 683.992L930.161 679.284" stroke="#E52741" stroke-width="1.5" stroke-linecap="round" stroke-linejoin="round"/>
<path d="M714.549 881.75L719.488 878.254" stroke="#E52741" stroke-width="1.5" stroke-linecap="round" stroke-linejoin="round"/>
<path d="M725.501 874L831.912 798.705" stroke="#E52741" stroke-width="1.5" stroke-linecap="round" stroke-linejoin="round" stroke-dasharray="7.78 7.78"/>
<path d="M834.912 796.586L839.851 793.089" stroke="#E52741" stroke-width="1.5" stroke-linecap="round" stroke-linejoin="round"/>
<path d="M840 799C843.314 799 846 796.314 846 793C846 789.686 843.314 787 840 787C836.686 787 834 789.686 834 793C834 796.314 836.686 799 840 799Z" fill="#E93842" stroke="#E52741" stroke-width="0.5" stroke-miterlimit="10"/>
<path d="M1200.5 1036C1203.54 1036 1206 1033.54 1206 1030.5C1206 1027.46 1203.54 1025 1200.5 1025C1197.46 1025 1195 1027.46 1195 1030.5C1195 1033.54 1197.46 1036 1200.5 1036Z" fill="#E93842" stroke="#E52741" stroke-width="0.5" stroke-miterlimit="10"/>
<path d="M1076 1108C1079.31 1108 1082 1105.31 1082 1102C1082 1098.69 1079.31 1096 1076 1096C1072.69 1096 1070 1098.69 1070 1102C1070 1105.31 1072.69 1108 1076 1108Z" fill="#E93842" stroke="#E52741" stroke-width="0.5" stroke-miterlimit="10"/>
<path d="M885 1115C888.314 1115 891 1112.54 891 1109.5C891 1106.46 888.314 1104 885 1104C881.686 1104 879 1106.46 879 1109.5C879 1112.54 881.686 1115 885 1115Z" fill="#E93842" stroke="#E52741" stroke-width="0.5" stroke-miterlimit="10"/>
<path d="M743 1548C746.314 1548 749 1545.31 749 1542C749 1538.69 746.314 1536 743 1536C739.686 1536 737 1538.69 737 1542C737 1545.31 739.686 1548 743 1548Z" fill="#E93842" stroke="#E52741" stroke-width="0.5" stroke-miterlimit="10"/>
<path d="M331 1370C334.314 1370 337 1367.31 337 1364C337 1360.69 334.314 1358 331 1358C327.686 1358 325 1360.69 325 1364C325 1367.31 327.686 1370 331 1370Z" fill="#E93842" stroke="#E52741" stroke-width="0.5" stroke-miterlimit="10"/>
<path d="M30.5 1100C33.5376 1100 36 1097.31 36 1094C36 1090.69 33.5376 1088 30.5 1088C27.4624 1088 25 1090.69 25 1094C25 1097.31 27.4624 1100 30.5 1100Z" fill="#E93842" stroke="#E52741" stroke-width="0.5" stroke-miterlimit="10"/>
<path d="M196 897C199.314 897 202 894.538 202 891.5C202 888.462 199.314 886 196 886C192.686 886 190 888.462 190 891.5C190 894.538 192.686 897 196 897Z" fill="#E93842" stroke="#E52741" stroke-width="0.5" stroke-miterlimit="10"/>
<path d="M130 785C133.314 785 136 782.314 136 779C136 775.686 133.314 773 130 773C126.686 773 124 775.686 124 779C124 782.314 126.686 785 130 785Z" fill="#E93842" stroke="#E52741" stroke-width="0.5" stroke-miterlimit="10"/>
<path d="M437 722C440.314 722 443 719.538 443 716.5C443 713.462 440.314 711 437 711C433.686 711 431 713.462 431 716.5C431 719.538 433.686 722 437 722Z" fill="#E93842" stroke="#E52741" stroke-width="0.5" stroke-miterlimit="10"/>
<path d="M652 733C655.314 733 658 730.538 658 727.5C658 724.463 655.314 722 652 722C648.686 722 646 724.463 646 727.5C646 730.538 648.686 733 652 733Z" fill="#E93842" stroke="#E52741" stroke-width="0.5" stroke-miterlimit="10"/>
<path d="M548 939C551.314 939 554 936.538 554 933.5C554 930.462 551.314 928 548 928C544.686 928 542 930.462 542 933.5C542 936.538 544.686 939 548 939Z" fill="#E93842" stroke="#E52741" stroke-width="0.5" stroke-miterlimit="10"/>
<path d="M704 894C707.314 894 710 891.538 710 888.5C710 885.462 707.314 883 704 883C700.686 883 698 885.462 698 888.5C698 891.538 700.686 894 704 894Z" fill="#E93842" stroke="#E52741" stroke-width="0.5" stroke-miterlimit="10"/>
<path d="M768 1055C771.314 1055 774 1052.31 774 1049C774 1045.69 771.314 1043 768 1043C764.686 1043 762 1045.69 762 1049C762 1052.31 764.686 1055 768 1055Z" fill="#E93842" stroke="#E52741" stroke-width="0.5" stroke-miterlimit="10"/>
<path d="M998.5 878C1001.54 878 1004 875.538 1004 872.5C1004 869.462 1001.54 867 998.5 867C995.462 867 993 869.462 993 872.5C993 875.538 995.462 878 998.5 878Z" fill="#E93842" stroke="#E52741" stroke-width="0.5" stroke-miterlimit="10"/>
<path d="M233.5 1569C236.538 1569 239 1566.31 239 1563C239 1559.69 236.538 1557 233.5 1557C230.462 1557 228 1559.69 228 1563C228 1566.31 230.462 1569 233.5 1569Z" fill="#E93842" stroke="#E52741" stroke-width="0.5" stroke-miterlimit="10"/>
<path d="M1158 853C1161.31 853 1164 850.314 1164 847C1164 843.686 1161.31 841 1158 841C1154.69 841 1152 843.686 1152 847C1152 850.314 1154.69 853 1158 853Z" fill="#E93842" stroke="#E52741" stroke-width="0.5" stroke-miterlimit="10"/>
<path d="M1070 754C1073.31 754 1076 751.314 1076 748C1076 744.686 1073.31 742 1070 742C1066.69 742 1064 744.686 1064 748C1064 751.314 1066.69 754 1070 754Z" fill="#E93842" stroke="#E52741" stroke-width="0.5" stroke-miterlimit="10"/>
<path d="M927.5 685C930.538 685 933 682.314 933 679C933 675.686 930.538 673 927.5 673C924.462 673 922 675.686 922 679C922 682.314 924.462 685 927.5 685Z" fill="#E93842" stroke="#E52741" stroke-width="0.5" stroke-miterlimit="10"/>
<path d="M595.823 519.315C595.823 519.315 581.331 514.176 572.827 502.355C565.955 492.797 563.061 483.97 569.916 481.684C575.674 479.76 587.434 475.542 597.236 480.191C599.098 481.074 600.884 482.276 602.552 483.872" fill="white"/>
<path d="M629.801 548.725L628.226 555.696L627.96 566.013L631.332 571.389L626.63 568.365L625.423 574L624.761 568.153L619.266 570.111L624.779 564.918L625.976 555.386L627.601 548.458L629.801 548.725Z" fill="#DC4B64"/>
<path d="M642.327 548.417L644.232 555.305L644.983 565.596L641.87 571.129L646.421 567.883L647.895 573.452L648.279 567.576L653.861 569.263L648.11 564.347L646.464 554.885L644.509 548.045L642.327 548.417Z" fill="#DC4B64"/>
<path d="M676.572 506.372C677.136 529.511 659.136 548.735 636.362 549.309C613.589 549.882 594.669 531.593 594.104 508.454C593.54 485.318 602.698 439.335 633.652 438.558C664.606 437.772 676.004 483.236 676.572 506.372Z" fill="white"/>
<path d="M628.181 444.974C626.74 445.135 620.037 435.643 628.602 431.589C637.171 427.536 638.159 436.662 638.159 436.662C638.159 436.662 635.481 427.357 643.924 429.256C648.629 430.315 645.146 437.024 645.146 437.024C645.146 437.024 647.332 431.889 650.703 435.165C654.251 438.612 650.049 443.152 648.162 441.866C639.805 438.112 630.917 442.414 628.181 444.974Z" fill="#DC4B64"/>
<path d="M642.797 475.264C642.79 479.485 645.263 482.97 648.325 483.043C651.388 483.116 653.875 479.756 653.882 475.534C653.889 471.312 651.416 467.828 648.354 467.755C645.295 467.678 642.805 471.042 642.797 475.264Z" fill="black" stroke="black" stroke-miterlimit="10" stroke-linecap="square" stroke-linejoin="round"/>
<path d="M646.81 469.439C646.799 469.439 646.789 469.439 646.778 469.439C645.789 469.464 645.017 470.585 645.049 471.948C645.081 473.295 645.89 474.369 646.86 474.369C646.871 474.369 646.882 474.369 646.893 474.369C647.881 474.343 648.654 473.222 648.622 471.86C648.593 470.516 647.784 469.439 646.81 469.439Z" fill="white" stroke="white" stroke-miterlimit="30"/>
<path d="M613.81 475.264C613.803 479.485 616.276 482.97 619.338 483.043C622.4 483.116 624.887 479.756 624.895 475.534C624.902 471.312 622.429 467.828 619.367 467.755C616.304 467.682 613.817 471.042 613.81 475.264Z" fill="black" stroke="black" stroke-miterlimit="10" stroke-linecap="square" stroke-linejoin="round"/>
<path d="M617.456 469.45C617.445 469.45 617.434 469.45 617.423 469.45C616.438 469.475 615.662 470.596 615.694 471.958C615.727 473.306 616.535 474.38 617.506 474.38C617.517 474.38 617.527 474.38 617.538 474.38C618.527 474.354 619.299 473.233 619.267 471.871C619.238 470.523 618.43 469.45 617.456 469.45Z" fill="white" stroke="white" stroke-miterlimit="30"/>
<path d="M597.238 480.19C599.1 481.073 600.886 482.275 602.554 483.871L597.238 480.19Z" fill="white"/>
<path d="M597.242 480.172C597.771 480.315 598.274 480.534 598.759 480.786C599.244 481.038 599.683 481.367 600.122 481.695C600.999 482.345 601.814 483.072 602.566 483.861L602.54 483.887C601.721 483.174 600.862 482.521 599.96 481.936C599.507 481.644 599.036 481.392 598.583 481.104C598.13 480.812 597.677 480.53 597.232 480.209L597.242 480.172Z" fill="#B2B2B2"/>
<path d="M674.589 519.315C674.589 519.315 689.081 514.176 697.586 502.355C704.458 492.797 707.351 483.97 700.497 481.684C694.739 479.76 682.978 475.542 673.177 480.191C671.315 481.074 669.529 482.276 667.861 483.872" fill="white"/>
<path d="M673.175 480.188C671.313 481.072 669.526 482.274 667.859 483.869L673.175 480.188Z" fill="white"/>
<path d="M673.184 480.209C672.738 480.53 672.282 480.815 671.833 481.104C671.38 481.392 670.909 481.644 670.456 481.936C669.554 482.521 668.695 483.174 667.875 483.887L667.85 483.861C668.598 483.072 669.414 482.342 670.294 481.695C670.729 481.367 671.171 481.042 671.656 480.786C672.142 480.534 672.641 480.315 673.173 480.172L673.184 480.209Z" fill="#B2B2B2"/>
<path d="M635.125 492.549C636.286 492.377 642.608 486.538 642.159 486.037C641.71 485.537 631.689 487.352 631.283 488.265C630.876 489.174 633.964 492.72 635.125 492.549Z" fill="#DC4B64"/>
<path d="M634.703 481.001C633.233 480.636 624.23 485.267 624.682 486.169C625.135 487.074 638.905 490.423 642.129 486.191C642.87 485.219 636.173 481.366 634.703 481.001Z" fill="#DC4B64"/>
<path d="M631.586 487.998C632.506 488.093 633.426 488.152 634.347 488.166C635.267 488.188 636.187 488.166 637.1 488.071C638.013 487.973 638.908 487.79 639.77 487.52C640.633 487.257 641.452 486.844 642.11 486.183C642.117 486.176 642.128 486.176 642.135 486.183C642.143 486.191 642.143 486.198 642.139 486.205C641.632 487.016 640.759 487.538 639.882 487.867C638.99 488.196 638.049 488.301 637.121 488.364C635.259 488.48 633.405 488.32 631.579 488.035C631.568 488.035 631.561 488.024 631.565 488.013C631.568 488.002 631.575 487.998 631.586 487.998Z" fill="#660011"/>
<path d="M617.482 492.618C619.312 492.618 620.796 491.11 620.796 489.251C620.796 487.391 619.312 485.884 617.482 485.884C615.652 485.884 614.168 487.391 614.168 489.251C614.168 491.11 615.652 492.618 617.482 492.618Z" fill="#FFBDBD"/>
<path d="M650.707 492.618C652.537 492.618 654.021 491.11 654.021 489.251C654.021 487.391 652.537 485.884 650.707 485.884C648.877 485.884 647.393 487.391 647.393 489.251C647.393 491.11 648.877 492.618 650.707 492.618Z" fill="#FFBDBD"/>
<path d="M1144.39 963.665C1147.18 963.665 1149.45 961.398 1149.45 958.602C1149.45 955.806 1147.18 953.539 1144.39 953.539C1141.6 953.539 1139.33 955.806 1139.33 958.602C1139.33 961.398 1141.6 963.665 1144.39 963.665Z" fill="#E93842" stroke="#E52741" stroke-width="0.5" stroke-miterlimit="10"/>
<path d="M748.604 1406.71C751.398 1406.71 753.663 1404.44 753.663 1401.64C753.663 1398.85 751.398 1396.58 748.604 1396.58C745.811 1396.58 743.546 1398.85 743.546 1401.64C743.546 1404.44 745.811 1406.71 748.604 1406.71Z" fill="#E93842" stroke="#E52741" stroke-width="0.5" stroke-miterlimit="10"/>
<path d="M392.039 1252.92C394.832 1252.92 397.097 1250.66 397.097 1247.86C397.097 1245.06 394.832 1242.8 392.039 1242.8C389.245 1242.8 386.981 1245.06 386.981 1247.86C386.981 1250.66 389.245 1252.92 392.039 1252.92Z" fill="#E93842" stroke="#E52741" stroke-width="0.5" stroke-miterlimit="10"/>
<path d="M307.936 1424.92C310.73 1424.92 312.994 1422.66 312.994 1419.86C312.994 1417.07 310.73 1414.8 307.936 1414.8C305.142 1414.8 302.878 1417.07 302.878 1419.86C302.878 1422.66 305.142 1424.92 307.936 1424.92Z" fill="#E93842" stroke="#E52741" stroke-width="0.5" stroke-miterlimit="10"/>
</svg>
