<svg width="1490" height="1738" viewBox="0 0 1490 1738" fill="none" xmlns="http://www.w3.org/2000/svg">
<path d="M878.108 503.2C883.298 486.357 889.013 470.825 894.997 455.358C903.174 434.223 911.055 413.002 919.203 391.86C920.25 389.137 920.111 387.384 918.108 385.28C904.669 371.17 891.227 357.054 878.126 342.653C858.558 321.149 839.211 299.454 826.215 273.274C818.483 257.705 812.433 241.555 811.728 223.703C811.457 216.701 812.298 209.731 817.65 203.956C823.712 197.406 831.584 196.656 839.554 197.504C854.456 199.084 867.514 204.891 880.242 211.551C899.85 221.806 917.233 234.676 932.853 249.693C942.451 258.916 952.065 268.139 961.322 277.676C971.262 287.909 981.464 297.877 991.992 307.562C994.239 309.625 996.227 309.666 999.131 309.213C1036.02 303.424 1072.55 294.921 1109.35 288.485C1114.98 287.501 1120.67 286.919 1126.5 285.552C1124.09 281.769 1120.36 279.429 1118.28 275.689C1115.59 270.844 1116.26 265.998 1120.2 262.202C1127.51 255.152 1134.82 247.932 1143.43 242.324C1151.42 237.117 1155.37 237.489 1161.68 243.81C1168.76 250.9 1175.5 258.3 1182.15 265.765C1186.39 270.522 1187.74 271.048 1194.32 269.255C1202.64 266.986 1210.95 264.465 1219.38 262.788C1250.74 256.524 1281.49 247.182 1312.66 239.977C1318.15 238.71 1319.88 237.683 1322.88 242.014C1325.18 245.335 1330.39 249.826 1333.18 252.836C1336.41 256.331 1336.28 256.84 1331.95 259.403C1308.76 273.122 1285.87 287.403 1262.28 300.395C1228.58 318.953 1196.05 339.423 1162.65 358.451C1147.95 366.831 1133.31 375.37 1119.17 384.615C1111.03 389.938 1103.92 396.804 1096.41 403.024C1092.99 405.859 1089.71 408.861 1086.31 411.716C1084.96 412.843 1084.64 413.567 1085.79 415.098C1089.79 420.452 1093.84 425.764 1098.34 430.738C1106.79 440.075 1114.09 450.272 1121.85 460.131C1129.52 469.893 1137.51 479.423 1145.25 489.134C1152.48 498.202 1159.53 507.399 1166.74 516.486C1173.86 525.471 1181.07 534.386 1188.23 543.329C1188.49 543.651 1188.92 543.876 1189.06 544.237C1191.89 551.279 1197.36 550.286 1203.74 548.212C1211.68 545.629 1219.76 543.44 1227.86 541.532C1256.96 534.67 1285.22 524.322 1314.31 517.466C1318.17 516.56 1320.48 517.248 1322.86 519.938C1328.22 525.993 1333.88 531.81 1339.57 537.578C1341.73 539.763 1341.96 540.907 1338.62 542.729C1314.37 555.973 1290.39 569.719 1265.96 582.622C1255.14 588.336 1244.34 594.079 1233.51 599.776C1229.55 601.862 1229.65 603.668 1231.28 606.517C1240.04 621.847 1248.34 637.434 1255.2 653.731C1257.17 658.404 1259.62 662.912 1260.6 668.338C1257.27 668.217 1254.6 666.848 1252.02 665.583C1233.22 656.361 1215.38 645.717 1197.93 634.502C1195.72 633.079 1194.84 632.791 1192.96 635.418C1186.47 644.45 1179.09 652.965 1172.9 662.155C1156.89 685.98 1138.52 708.343 1122.4 732.096C1120.87 734.362 1119.94 734.251 1118.3 732.489C1112.21 725.967 1106.05 719.51 1099.76 713.169C1098.01 711.404 1097.62 709.904 1098.66 707.408C1108.73 683.041 1119.07 658.748 1128.45 634.18C1133.3 621.473 1138.41 608.849 1143.41 596.194C1144.13 594.344 1143.82 593.457 1142.3 592.144C1131.12 582.577 1120.13 572.812 1109.07 563.104C1098.64 553.943 1088.19 544.801 1077.79 535.603C1067.51 526.494 1057.26 517.334 1047.01 508.172C1035.95 498.274 1024.89 488.388 1013.91 478.408C1012.35 476.992 1011.32 477.414 1009.86 478.602C1003.09 484.11 997.239 490.577 990.545 496.102C971.268 512.005 959.165 533.047 944.132 551.967C924.816 576.279 905.68 600.732 887.262 625.626C878.559 637.394 869.94 649.213 860.967 660.806C851.118 673.529 840.953 686.036 830.918 698.636C829.51 700.403 828.419 700.93 826.593 698.991C822.574 694.71 818.324 690.602 813.884 686.713C811.714 684.809 811.911 682.87 812.676 680.452C817.924 663.933 824.223 647.693 830.379 631.41C834.484 620.548 839.174 609.814 842.509 598.792C846.211 586.576 851.49 574.827 855.469 562.708C856.311 560.146 856.18 558.5 854.317 556.492C846.121 547.649 837.251 539.372 829.952 529.772C826.445 525.167 826.046 520.903 829.943 516.122C837.213 507.215 846.018 499.727 855.824 493.506C861.118 490.144 866.598 491.662 872.261 497.098C874.043 498.787 875.658 500.631 878.108 503.2Z" fill="#878787"/>
<path d="M604 1737.01C937.534 1737.01 1207.92 1466.85 1207.92 1133.58C1207.92 800.307 937.534 530.139 604 530.139C270.466 530.139 0.0839844 800.307 0.0839844 1133.58C0.0839844 1466.85 270.466 1737.01 604 1737.01Z" fill="#B6D3FF"/>
<path d="M169.328 1407.39C158.62 1388.42 131.481 1371.19 133.982 1347.9C138.262 1329.51 145.264 1311.74 149.088 1293.29C152.589 1276.5 156.296 1221.54 126.833 1248.06C100.371 1228.74 73.7624 1209.3 47.1093 1189.9C33.0032 1177.68 8.05638 1169.67 6.02651 1148.8C6.39424 1140.4 4.02605 1133.15 0.113403 1126.7C0.0986936 1128.99 0.0839844 1131.28 0.0839844 1133.58C0.0839844 1314.75 79.9991 1477.26 206.513 1587.86C203.454 1552.15 202.968 1516.01 201.071 1479.98C198.408 1452.63 184.905 1429.32 169.328 1407.39Z" fill="#B6D3FF"/>
<path d="M992.793 671.824C989.631 671.471 986.424 671.515 983.173 672.118C910.907 687.271 839.891 708.215 770.405 733.833C756.137 738.786 742.722 738.477 728.925 731.29C706.92 722.192 680.723 707.936 657.6 720.84C640.581 730.217 585.392 777.367 597.071 798.267C643.891 829.455 622.283 811.877 650.627 796.797C630.211 779.013 649.495 763.287 656.997 746.575C666.175 727.777 693.549 751.073 679.399 764.771C676.942 767.887 673.942 770.885 672.603 774.515C668.837 790.11 680.678 786.274 689.916 783.496C701.551 783.216 708.802 792.358 705.463 803.587C695.755 830.66 659.556 853.559 632.771 847.048C616.767 843.153 605.426 849.532 594.188 857.395C578.258 868.55 563.49 881.543 548.075 893.874C556.68 903.06 562.622 914.745 555.532 928.693C546.398 948.946 525.923 928.12 514.567 942.626C507.904 950.621 507.639 968.273 514.288 974.858C518.98 977.974 527.511 977.327 533.366 975.24C548.148 965.025 558.489 945.948 572.948 934.689C599.366 912.805 621.136 946.653 636.536 966.054C637.551 965.716 638.566 965.378 639.581 965.04C639.772 946.124 605.882 924.298 626.431 908.836C633.197 904.457 636.477 909.38 641.125 913.584C657.114 928.017 671.22 943.42 675.618 966.069C676.163 968.861 678.487 971.257 680.973 975.549C680.884 959.587 683.767 949.402 699.653 951.547C718.525 953.429 697.285 982.192 723.909 985.91C738.412 989.056 766.418 974.902 764.389 1000.62C761.3 1015.89 763.668 1042.54 743.472 1043.89C725.321 1045.64 707.743 1044.94 691.696 1034.34C684.209 1029.39 677.692 1027.17 674.324 1039.66C671.897 1048.67 664.792 1049.45 657.35 1046.08C649.157 1042.39 641.243 1038 632.976 1034.47C598.66 1021.77 622.459 987.894 600.631 992.877C575.993 998.697 551.458 1004.96 526.658 1010.01C514.052 1018.99 504.536 1032.99 502.52 1049.36C501.741 1054.15 498.858 1059.81 495.195 1062.65C480.383 1074.1 473.146 1090.82 466.012 1107.28C459.878 1128.93 461.143 1153.45 459.305 1176.02C459.055 1183.06 457.981 1191.34 460.908 1197.01C470.41 1215.41 481.486 1232.93 492.18 1250.64C498.475 1261.06 505.992 1268.44 518.774 1260.21C520.569 1259.06 523.525 1258.68 525.555 1259.31C548.369 1268.07 568.697 1232.37 587.054 1258.76C589.761 1262.06 594.983 1264.74 599.116 1264.84C616.796 1263.94 617.826 1285.96 615.987 1298.92C609.045 1345.85 659.438 1374.82 633.609 1434.14C614.016 1477.97 657.041 1498.69 649.157 1552.09C647.509 1572.84 653.349 1589.99 673.559 1598.3C688.724 1652.31 735.794 1567.01 738.868 1543.84C740.104 1537.6 743.001 1529.82 747.62 1526.59C770.081 1511.17 737.485 1488.45 766.566 1466.18C799.691 1443.9 782.554 1406.55 781.613 1373.48C777.009 1341.81 809.06 1308.79 825.182 1283.51C841.156 1262.65 847.04 1238.81 852.335 1212.5C828.256 1221.64 818.607 1226.02 802.029 1202.38C784.158 1181.96 749.238 1100.92 762.859 1077.26C770.434 1080.65 773.494 1087.44 776.524 1094.89C788.997 1119.51 801.5 1144.11 813.988 1168.72C828.197 1203.11 876.929 1157.77 888.461 1139.38C897.698 1124.91 890.858 1107.06 874.163 1106.93C857.351 1106.8 848.952 1101.64 843.259 1085.96C835.331 1066.81 819.916 1063.25 835.699 1041.29C857.13 1046.93 856.365 1070.54 873.09 1071.35C881.547 1067.11 885.931 1070.02 890.358 1077.21C901.022 1086.57 918.453 1080.87 931.559 1083.68C951.328 1082.83 958.844 1105.23 971.494 1117.37C972.083 1115.94 972.671 1114.53 973.259 1113.1C1020.03 1119.06 987.895 1138.35 991.969 1161.37C998.795 1183.71 1005.77 1206.23 1014.7 1227.77C1016.3 1227.73 1017.9 1227.68 1019.49 1227.64C1021.24 1214.05 1024.7 1200.39 1024.21 1186.88C1023.84 1176.54 1026.12 1168.91 1032.2 1161.53C1040.54 1151.4 1051.31 1142.25 1056.18 1130.5C1061.66 1117.28 1070.75 1114.07 1081.75 1111.09C1089.99 1108.86 1095.01 1111.15 1097.49 1120.19C1101.46 1134.69 1106.14 1148.98 1110.51 1163.32C1121.1 1156.9 1124.41 1157.75 1127.5 1170.39C1134.9 1200.57 1141.25 1231.02 1148.7 1261.18C1151.37 1273.1 1164.05 1308.68 1176.6 1285.99C1190.32 1256.15 1194.81 1222.44 1194.1 1189.75C1193.71 1180.52 1186.15 1170.85 1180.1 1162.8C1157.65 1131.77 1182.09 1118.19 1207.47 1111.47C1201.16 935.145 1119.09 778.102 992.793 671.824Z" fill="white"/>
<path d="M316.7 1541.65C318.2 1539.17 317.641 1535.08 317.229 1531.85C313.155 1488.96 364.328 1511.74 362.636 1456.07C357.885 1409.14 397.703 1382.42 363.151 1348.95C341.161 1328 319.303 1306.86 296.548 1286.77C283.692 1276.32 263.011 1273.06 251.449 1260.98C240.638 1247.51 226.797 1238.87 210.999 1234.92C187.494 1229.04 164.356 1219.76 139.233 1222.47C136.497 1222.76 133.084 1221.92 130.775 1220.41C104.078 1202.98 77.3513 1185.56 51.0953 1167.47C47.1091 1164.72 43.0788 1158.49 43.1671 1153.93C40.3576 1093.28 53.3606 1079.95 112.653 1069.35C144.396 1069.5 127.907 1095.32 139.924 1105.11C142.41 1101.15 144.867 1097.45 142.41 1092.79C132.467 1058.15 160.723 1046.43 180.507 1025.3C206.336 992.877 231.548 959.954 256.877 927.135C265.07 916.509 273.454 907.234 289.149 910.35C296.666 910.571 304.814 902.869 311.978 900.238C321.965 896.726 323.716 893.801 317.156 885.747C308.771 875.429 299.534 865.67 289.782 856.631C252.832 824.517 234.122 878.809 217.118 903.78C212.499 911.041 205.542 912.04 200.997 904.633C190.039 886.717 179.801 868.315 170.122 849.679C166.107 841.948 168.798 833.747 175.962 828.941C197.275 816.756 225.988 787.523 251.214 799.869C259.966 808.599 267.571 807.085 276.735 806.218C280.088 795.812 281.412 783.804 298.298 789.301C286.84 773.369 285.031 753.527 262.643 753.028C243.051 748.677 243.095 741.314 221.59 750.632C213.485 753.131 219.619 759.994 218.736 764.771C217.398 772.002 215.721 783.408 211.337 784.951C201.894 788.272 190.421 787.67 180.242 785.965C177.359 785.48 176.035 775.647 173.535 768.828C156.958 774.222 136.644 766.358 118.375 776.691C117.743 777.043 117.051 777.308 116.345 777.543C44.5056 875.62 1.58414 996.184 0.12793 1126.7C4.04058 1133.15 6.40876 1140.4 6.04103 1148.8C8.08561 1169.69 33.0177 1177.68 47.1239 1189.9C73.7769 1209.3 100.386 1228.74 126.848 1248.06C156.31 1221.54 152.604 1276.5 149.103 1293.29C145.278 1311.74 138.262 1329.51 133.996 1347.9C131.496 1371.19 158.634 1388.42 169.343 1407.39C184.92 1429.31 198.423 1452.63 201.07 1479.98C202.968 1516.01 203.453 1552.15 206.513 1587.86C225.238 1604.24 244.992 1619.48 265.659 1633.47C291.988 1607.9 298.592 1571.64 316.7 1541.65Z" fill="white"/>
<path d="M529.807 735.494C531.455 729.526 532.47 722.28 534.382 716.137C541.869 692.812 509.582 697.221 495.358 697.089C454.408 699.793 413.663 708.391 372.404 700.366C345.457 699.323 334.175 699.382 311.14 714.388C309.316 715.387 308.566 718.327 307.316 720.37C322.584 730.893 386.746 722.765 394.218 740.109C397.483 755.997 399.248 772.384 389.937 787.317C374.949 802.103 394.35 851.501 411.545 822.488C425.313 795.092 458.188 785.539 485.474 778.322C511.274 774.192 514.113 748.677 529.807 735.494Z" fill="white"/>
<path d="M124.656 808.07L130.54 808.188" stroke="#E52741" stroke-width="1.5" stroke-linecap="round" stroke-linejoin="round"/>
<path d="M137.924 808.335L805.943 821.312" stroke="#E52741" stroke-width="1.5" stroke-linecap="round" stroke-linejoin="round" stroke-dasharray="8.03 8.03"/>
<path d="M809.635 821.386L815.518 821.504L809.708 822.385" stroke="#E52741" stroke-width="1.5" stroke-linecap="round" stroke-linejoin="round"/>
<path d="M802.383 823.502L196.966 915.656" stroke="#E52741" stroke-width="1.5" stroke-linecap="round" stroke-linejoin="round" stroke-dasharray="8.05 8.05"/>
<path d="M193.304 916.214L187.494 917.096" stroke="#E52741" stroke-width="1.5" stroke-linecap="round" stroke-linejoin="round"/>
<path d="M318.656 1378.11L322.568 1373.72" stroke="#E52741" stroke-width="1.5" stroke-linecap="round" stroke-linejoin="round"/>
<path d="M327.468 1368.24L809.165 828.632" stroke="#E52741" stroke-width="1.5" stroke-linecap="round" stroke-linejoin="round" stroke-dasharray="8.01 8.01"/>
<path d="M811.606 825.883L815.518 821.504L810.017 823.561" stroke="#E52741" stroke-width="1.5" stroke-linecap="round" stroke-linejoin="round"/>
<path d="M803.119 826.119L36.6953 1111.78" stroke="#E52741" stroke-width="1.5" stroke-linecap="round" stroke-linejoin="round" stroke-dasharray="7.99 7.99"/>
<path d="M33.2533 1113.07L27.7373 1115.13" stroke="#E52741" stroke-width="1.5" stroke-linecap="round" stroke-linejoin="round"/>
<path d="M744.547 1071.96L746.15 1066.31" stroke="#E52741" stroke-width="1.5" stroke-linecap="round" stroke-linejoin="round"/>
<path d="M748.092 1059.44L812.945 830.601" stroke="#E52741" stroke-width="1.5" stroke-linecap="round" stroke-linejoin="round" stroke-dasharray="7.78 7.78"/>
<path d="M813.915 827.162L815.518 821.504L811.885 826.119" stroke="#E52741" stroke-width="1.5" stroke-linecap="round" stroke-linejoin="round"/>
<path d="M807.341 831.88L230.445 1563.33" stroke="#E52741" stroke-width="1.5" stroke-linecap="round" stroke-linejoin="round" stroke-dasharray="7.99 7.99"/>
<path d="M228.165 1566.23L224.532 1570.84" stroke="#E52741" stroke-width="1.5" stroke-linecap="round" stroke-linejoin="round"/>
<path d="M435.889 748.971L441.655 750.073" stroke="#E52741" stroke-width="1.5" stroke-linecap="round" stroke-linejoin="round"/>
<path d="M448.965 751.47L806.09 819.696" stroke="#E52741" stroke-width="1.5" stroke-linecap="round" stroke-linejoin="round" stroke-dasharray="8.09 8.09"/>
<path d="M809.738 820.401L815.519 821.504L809.959 819.578" stroke="#E52741" stroke-width="1.5" stroke-linecap="round" stroke-linejoin="round"/>
<path d="M802.869 817.124L640.48 760.847" stroke="#E52741" stroke-width="1.5" stroke-linecap="round" stroke-linejoin="round" stroke-dasharray="8.16 8.16"/>
<path d="M636.934 759.612L631.374 757.687" stroke="#E52741" stroke-width="1.5" stroke-linecap="round" stroke-linejoin="round"/>
<path d="M1046.98 1123.19L1043.41 1118.53" stroke="#E52741" stroke-width="1.5" stroke-linecap="round" stroke-linejoin="round"/>
<path d="M1038.95 1112.72L821.328 829.073" stroke="#E52741" stroke-width="1.5" stroke-linecap="round" stroke-linejoin="round" stroke-dasharray="7.96 7.96"/>
<path d="M819.107 826.163L815.518 821.504L820.431 824.737" stroke="#E52741" stroke-width="1.5" stroke-linecap="round" stroke-linejoin="round"/>
<path d="M826.579 828.794L1159.39 1048.35" stroke="#E52741" stroke-width="1.5" stroke-linecap="round" stroke-linejoin="round" stroke-dasharray="8.02 8.02"/>
<path d="M1162.46 1050.37L1167.38 1053.62" stroke="#E52741" stroke-width="1.5" stroke-linecap="round" stroke-linejoin="round"/>
<path d="M815.518 821.504L816.342 827.324" stroke="#E52741" stroke-width="1.5" stroke-linecap="round" stroke-linejoin="round"/>
<path d="M817.371 834.775L857.395 1121.47" stroke="#E52741" stroke-width="1.5" stroke-linecap="round" stroke-linejoin="round" stroke-dasharray="8.19 8.19"/>
<path d="M857.91 1125.18L858.733 1131.02" stroke="#E52741" stroke-width="1.5" stroke-linecap="round" stroke-linejoin="round"/>
<path d="M721.394 1551.12L722.144 1545.28" stroke="#E52741" stroke-width="1.5" stroke-linecap="round" stroke-linejoin="round"/>
<path d="M723.072 1538.1L814.313 830.925" stroke="#E52741" stroke-width="1.5" stroke-linecap="round" stroke-linejoin="round" stroke-dasharray="7.9 7.9"/>
<path d="M814.768 827.339L815.518 821.504L821.298 820.372" stroke="#E52741" stroke-width="1.5" stroke-linecap="round" stroke-linejoin="round"/>
<path d="M828.551 818.961L1032.19 779.263" stroke="#E52741" stroke-width="1.5" stroke-linecap="round" stroke-linejoin="round" stroke-dasharray="8.03 8.03"/>
<path d="M1035.82 778.557L1041.58 777.426" stroke="#E52741" stroke-width="1.5" stroke-linecap="round" stroke-linejoin="round"/>
<path d="M1127.66 874.121L1121.85 873.136" stroke="#E52741" stroke-width="1.5" stroke-linecap="round" stroke-linejoin="round"/>
<path d="M1114.81 871.946L824.859 823.076" stroke="#E52741" stroke-width="1.5" stroke-linecap="round" stroke-linejoin="round" stroke-dasharray="7.78 7.78"/>
<path d="M821.328 822.474L815.518 821.504L820.784 824.134" stroke="#E52741" stroke-width="1.5" stroke-linecap="round" stroke-linejoin="round"/>
<path d="M827.389 827.427L961.272 894.315" stroke="#E52741" stroke-width="1.5" stroke-linecap="round" stroke-linejoin="round" stroke-dasharray="8.02 8.02"/>
<path d="M964.567 895.961L969.833 898.592" stroke="#E52741" stroke-width="1.5" stroke-linecap="round" stroke-linejoin="round"/>
<path d="M529.821 957.823L535.131 955.295" stroke="#E52741" stroke-width="1.5" stroke-linecap="round" stroke-linejoin="round"/>
<path d="M541.588 952.209L806.986 825.575" stroke="#E52741" stroke-width="1.5" stroke-linecap="round" stroke-linejoin="round" stroke-dasharray="7.78 7.78"/>
<path d="M810.207 824.032L815.517 821.504" stroke="#E52741" stroke-width="1.5" stroke-linecap="round" stroke-linejoin="round"/>
<path d="M813.328 821.651L817.034 817.094" stroke="#E52741" stroke-width="1.5" stroke-linecap="round" stroke-linejoin="round"/>
<path d="M821.992 810.98L897.009 718.635" stroke="#E52741" stroke-width="1.5" stroke-linecap="round" stroke-linejoin="round" stroke-dasharray="8.57 8.57"/>
<path d="M899.495 715.578L903.202 711.007" stroke="#E52741" stroke-width="1.5" stroke-linecap="round" stroke-linejoin="round"/>
<path d="M693.858 907.587L698.653 904.192" stroke="#E52741" stroke-width="1.5" stroke-linecap="round" stroke-linejoin="round"/>
<path d="M704.492 900.062L807.809 826.956" stroke="#E52741" stroke-width="1.5" stroke-linecap="round" stroke-linejoin="round" stroke-dasharray="7.78 7.78"/>
<path d="M810.722 824.899L815.517 821.504" stroke="#E52741" stroke-width="1.5" stroke-linecap="round" stroke-linejoin="round"/>
<path d="M815.662 827.243C818.879 827.243 821.488 824.634 821.488 821.417C821.488 818.2 818.879 815.592 815.662 815.592C812.445 815.592 809.836 818.2 809.836 821.417C809.836 824.634 812.445 827.243 815.662 827.243Z" fill="#E93842" stroke="#E52741" stroke-width="0.5" stroke-miterlimit="10"/>
<path d="M1165.68 1057.35C1168.63 1057.35 1171.02 1054.96 1171.02 1052.01C1171.02 1049.06 1168.63 1046.67 1165.68 1046.67C1162.73 1046.67 1160.34 1049.06 1160.34 1052.01C1160.34 1054.96 1162.73 1057.35 1165.68 1057.35Z" fill="#E93842" stroke="#E52741" stroke-width="0.5" stroke-miterlimit="10"/>
<path d="M1044.8 1127.26C1048.02 1127.26 1050.63 1124.65 1050.63 1121.43C1050.63 1118.22 1048.02 1115.61 1044.8 1115.61C1041.58 1115.61 1038.97 1118.22 1038.97 1121.43C1038.97 1124.65 1041.58 1127.26 1044.8 1127.26Z" fill="#E93842" stroke="#E52741" stroke-width="0.5" stroke-miterlimit="10"/>
<path d="M859.354 1134.06C862.571 1134.06 865.179 1131.66 865.179 1128.72C865.179 1125.77 862.571 1123.38 859.354 1123.38C856.136 1123.38 853.528 1125.77 853.528 1128.72C853.528 1131.66 856.136 1134.06 859.354 1134.06Z" fill="#E93842" stroke="#E52741" stroke-width="0.5" stroke-miterlimit="10"/>
<path d="M721.482 1554.47C724.699 1554.47 727.308 1551.86 727.308 1548.64C727.308 1545.42 724.699 1542.82 721.482 1542.82C718.265 1542.82 715.656 1545.42 715.656 1548.64C715.656 1551.86 718.265 1554.47 721.482 1554.47Z" fill="#E93842" stroke="#E52741" stroke-width="0.5" stroke-miterlimit="10"/>
<path d="M321.461 1381.64C324.678 1381.64 327.286 1379.03 327.286 1375.82C327.286 1372.6 324.678 1369.99 321.461 1369.99C318.243 1369.99 315.635 1372.6 315.635 1375.82C315.635 1379.03 318.243 1381.64 321.461 1381.64Z" fill="#E93842" stroke="#E52741" stroke-width="0.5" stroke-miterlimit="10"/>
<path d="M29.6973 1119.49C32.6465 1119.49 35.0374 1116.88 35.0374 1113.67C35.0374 1110.45 32.6465 1107.84 29.6973 1107.84C26.748 1107.84 24.3572 1110.45 24.3572 1113.67C24.3572 1116.88 26.748 1119.49 29.6973 1119.49Z" fill="#E93842" stroke="#E52741" stroke-width="0.5" stroke-miterlimit="10"/>
<path d="M190.385 922.393C193.603 922.393 196.211 920.003 196.211 917.053C196.211 914.104 193.603 911.713 190.385 911.713C187.168 911.713 184.56 914.104 184.56 917.053C184.56 920.003 187.168 922.393 190.385 922.393Z" fill="#E93842" stroke="#E52741" stroke-width="0.5" stroke-miterlimit="10"/>
<path d="M126.304 813.65C129.522 813.65 132.13 811.042 132.13 807.824C132.13 804.607 129.522 801.999 126.304 801.999C123.087 801.999 120.479 804.607 120.479 807.824C120.479 811.042 123.087 813.65 126.304 813.65Z" fill="#E93842" stroke="#E52741" stroke-width="0.5" stroke-miterlimit="10"/>
<path d="M424.379 752.481C427.596 752.481 430.204 750.091 430.204 747.141C430.204 744.192 427.596 741.801 424.379 741.801C421.161 741.801 418.553 744.192 418.553 747.141C418.553 750.091 421.161 752.481 424.379 752.481Z" fill="#E93842" stroke="#E52741" stroke-width="0.5" stroke-miterlimit="10"/>
<path d="M633.128 763.162C636.345 763.162 638.953 760.771 638.953 757.821C638.953 754.872 636.345 752.481 633.128 752.481C629.91 752.481 627.302 754.872 627.302 757.821C627.302 760.771 629.91 763.162 633.128 763.162Z" fill="#E93842" stroke="#E52741" stroke-width="0.5" stroke-miterlimit="10"/>
<path d="M532.151 963.172C535.369 963.172 537.977 960.782 537.977 957.832C537.977 954.883 535.369 952.492 532.151 952.492C528.934 952.492 526.326 954.883 526.326 957.832C526.326 960.782 528.934 963.172 532.151 963.172Z" fill="#E93842" stroke="#E52741" stroke-width="0.5" stroke-miterlimit="10"/>
<path d="M683.616 919.481C686.833 919.481 689.442 917.09 689.442 914.141C689.442 911.191 686.833 908.801 683.616 908.801C680.399 908.801 677.791 911.191 677.791 914.141C677.791 917.09 680.399 919.481 683.616 919.481Z" fill="#E93842" stroke="#E52741" stroke-width="0.5" stroke-miterlimit="10"/>
<path d="M745.755 1075.8C748.973 1075.8 751.581 1073.19 751.581 1069.97C751.581 1066.76 748.973 1064.15 745.755 1064.15C742.538 1064.15 739.93 1066.76 739.93 1069.97C739.93 1073.19 742.538 1075.8 745.755 1075.8Z" fill="#E93842" stroke="#E52741" stroke-width="0.5" stroke-miterlimit="10"/>
<path d="M969.554 903.946C972.503 903.946 974.894 901.555 974.894 898.606C974.894 895.656 972.503 893.266 969.554 893.266C966.604 893.266 964.214 895.656 964.214 898.606C964.214 901.555 966.604 903.946 969.554 903.946Z" fill="#E93842" stroke="#E52741" stroke-width="0.5" stroke-miterlimit="10"/>
<path d="M226.795 1574.86C229.744 1574.86 232.135 1572.25 232.135 1569.03C232.135 1565.81 229.744 1563.2 226.795 1563.2C223.846 1563.2 221.455 1565.81 221.455 1569.03C221.455 1572.25 223.846 1574.86 226.795 1574.86Z" fill="#E93842" stroke="#E52741" stroke-width="0.5" stroke-miterlimit="10"/>
<path d="M1124.42 879.673C1127.63 879.673 1130.24 877.065 1130.24 873.847C1130.24 870.63 1127.63 868.022 1124.42 868.022C1121.2 868.022 1118.59 870.63 1118.59 873.847C1118.59 877.065 1121.2 879.673 1124.42 879.673Z" fill="#E93842" stroke="#E52741" stroke-width="0.5" stroke-miterlimit="10"/>
<path d="M1038.97 783.551C1042.19 783.551 1044.8 780.943 1044.8 777.725C1044.8 774.508 1042.19 771.9 1038.97 771.9C1035.76 771.9 1033.15 774.508 1033.15 777.725C1033.15 780.943 1035.76 783.551 1038.97 783.551Z" fill="#E93842" stroke="#E52741" stroke-width="0.5" stroke-miterlimit="10"/>
<path d="M900.618 716.557C903.567 716.557 905.958 713.949 905.958 710.732C905.958 707.514 903.567 704.906 900.618 704.906C897.669 704.906 895.278 707.514 895.278 710.732C895.278 713.949 897.669 716.557 900.618 716.557Z" fill="#E93842" stroke="#E52741" stroke-width="0.5" stroke-miterlimit="10"/>
<path d="M578.584 555.689C578.584 555.689 564.513 550.7 556.257 539.222C549.584 529.943 546.775 521.372 553.43 519.153C559.02 517.284 570.439 513.189 579.956 517.702C581.763 518.56 583.498 519.727 585.117 521.277" fill="white"/>
<path d="M611.574 584.244L610.045 591.013L609.787 601.03L613.06 606.249L608.496 603.313L607.323 608.784L606.681 603.108L601.345 605.008L606.699 599.966L607.861 590.711L609.438 583.985L611.574 584.244Z" fill="#DC4B64"/>
<path d="M623.736 583.945L625.586 590.633L626.315 600.625L623.293 605.997L627.711 602.845L629.142 608.252L629.515 602.547L634.935 604.185L629.351 599.412L627.753 590.225L625.854 583.584L623.736 583.945Z" fill="#DC4B64"/>
<path d="M656.985 543.122C657.533 565.589 640.056 584.254 617.945 584.811C595.834 585.368 577.463 567.61 576.915 545.144C576.368 522.681 585.26 478.035 615.314 477.28C645.368 476.517 656.434 520.659 656.985 543.122Z" fill="white"/>
<path d="M610.002 483.51C608.602 483.666 602.094 474.45 610.41 470.514C618.729 466.578 619.689 475.439 619.689 475.439C619.689 475.439 617.089 466.404 625.287 468.248C629.855 469.277 626.473 475.79 626.473 475.79C626.473 475.79 628.595 470.805 631.869 473.985C635.313 477.333 631.233 481.74 629.401 480.492C621.288 476.847 612.657 481.024 610.002 483.51Z" fill="#DC4B64"/>
<path d="M624.193 512.919C624.186 517.018 626.587 520.4 629.56 520.471C632.533 520.542 634.948 517.28 634.955 513.181C634.962 509.082 632.561 505.699 629.588 505.628C626.618 505.554 624.2 508.82 624.193 512.919Z" fill="black" stroke="black" stroke-miterlimit="10" stroke-linecap="square" stroke-linejoin="round"/>
<path d="M628.089 507.263C628.078 507.263 628.068 507.263 628.057 507.263C627.098 507.288 626.347 508.376 626.379 509.699C626.41 511.007 627.195 512.05 628.138 512.05C628.148 512.05 628.159 512.05 628.169 512.05C629.129 512.025 629.879 510.937 629.848 509.614C629.82 508.309 629.035 507.263 628.089 507.263Z" fill="white" stroke="white" stroke-miterlimit="30"/>
<path d="M596.048 512.919C596.041 517.018 598.442 520.4 601.415 520.471C604.388 520.542 606.803 517.28 606.81 513.181C606.817 509.082 604.416 505.699 601.443 505.628C598.47 505.558 596.055 508.82 596.048 512.919Z" fill="black" stroke="black" stroke-miterlimit="10" stroke-linecap="square" stroke-linejoin="round"/>
<path d="M599.588 507.273C599.577 507.273 599.567 507.273 599.556 507.273C598.6 507.298 597.846 508.387 597.878 509.709C597.909 511.018 598.694 512.06 599.637 512.06C599.647 512.06 599.657 512.06 599.668 512.06C600.628 512.036 601.378 510.947 601.347 509.624C601.319 508.316 600.533 507.273 599.588 507.273Z" fill="white" stroke="white" stroke-miterlimit="30"/>
<path d="M579.958 517.702C581.766 518.56 583.5 519.727 585.12 521.276L579.958 517.702Z" fill="white"/>
<path d="M579.962 517.685C580.475 517.823 580.964 518.036 581.435 518.28C581.906 518.525 582.332 518.844 582.758 519.163C583.609 519.794 584.401 520.5 585.131 521.266L585.106 521.291C584.311 520.599 583.477 519.965 582.601 519.397C582.161 519.114 581.704 518.869 581.264 518.589C580.824 518.305 580.385 518.032 579.952 517.72L579.962 517.685Z" fill="#B2B2B2"/>
<path d="M655.06 555.689C655.06 555.689 669.131 550.7 677.388 539.222C684.061 529.943 686.87 521.372 680.215 519.153C674.624 517.284 663.206 513.189 653.689 517.702C651.881 518.56 650.147 519.727 648.528 521.277" fill="white"/>
<path d="M653.687 517.7C651.879 518.559 650.145 519.725 648.526 521.275L653.687 517.7Z" fill="white"/>
<path d="M653.696 517.72C653.263 518.032 652.82 518.309 652.384 518.589C651.944 518.869 651.487 519.114 651.047 519.397C650.171 519.965 649.337 520.599 648.542 521.291L648.517 521.266C649.243 520.5 650.035 519.791 650.89 519.163C651.312 518.844 651.742 518.529 652.213 518.28C652.684 518.036 653.169 517.823 653.685 517.685L653.696 517.72Z" fill="#B2B2B2"/>
<path d="M616.743 529.701C617.871 529.535 624.009 523.865 623.573 523.379C623.137 522.893 613.407 524.655 613.013 525.542C612.618 526.425 615.616 529.868 616.743 529.701Z" fill="#DC4B64"/>
<path d="M616.334 518.489C614.907 518.135 606.165 522.631 606.604 523.506C607.044 524.386 620.414 527.637 623.544 523.528C624.263 522.585 617.761 518.844 616.334 518.489Z" fill="#DC4B64"/>
<path d="M613.307 525.283C614.201 525.375 615.094 525.432 615.987 525.446C616.881 525.467 617.774 525.446 618.661 525.354C619.547 525.258 620.416 525.081 621.253 524.819C622.091 524.563 622.887 524.163 623.525 523.521C623.532 523.514 623.543 523.514 623.55 523.521C623.557 523.528 623.557 523.535 623.553 523.542C623.061 524.329 622.213 524.836 621.362 525.155C620.496 525.474 619.582 525.577 618.682 525.638C616.874 525.751 615.073 525.595 613.3 525.318C613.29 525.318 613.283 525.308 613.286 525.297C613.29 525.287 613.297 525.283 613.307 525.283Z" fill="#660011"/>
<path d="M599.613 529.768C601.39 529.768 602.831 528.305 602.831 526.499C602.831 524.693 601.39 523.23 599.613 523.23C597.836 523.23 596.396 524.693 596.396 526.499C596.396 528.305 597.836 529.768 599.613 529.768Z" fill="#FFBDBD"/>
<path d="M631.872 529.768C633.649 529.768 635.09 528.305 635.09 526.499C635.09 524.693 633.649 523.23 631.872 523.23C630.095 523.23 628.655 524.693 628.655 526.499C628.655 528.305 630.095 529.768 631.872 529.768Z" fill="#FFBDBD"/>
</svg>
